<?xml version="1.0" encoding="iso-8859-1"?>
<!-- Generator: Adobe Illustrator 16.0.0, SVG Export Plug-In . SVG Version: 6.00 Build 0)  -->
<!DOCTYPE svg PUBLIC "-//W3C//DTD SVG 1.1//EN" "http://www.w3.org/Graphics/SVG/1.1/DTD/svg11.dtd">
<svg version="1.1" id="content_1_" xmlns="http://www.w3.org/2000/svg" xmlns:xlink="http://www.w3.org/1999/xlink" x="0px" y="0px"
	 width="800px" height="600px" viewBox="0 0 800 600" style="enable-background:new 0 0 800 600;" xml:space="preserve">
<g>
	<g id="XMLID_1_">
		<g id="planet">
			<circle id="XMLID_2_" style="fill:#00A89F;" cx="624.927" cy="228.76" r="115.465"/>
			<g id="XMLID_711_">
				<g id="XMLID_635_">
					<g id="XMLID_707_">
						<path id="XMLID_708_" style="fill:#FFEECC;" d="M698.514,209.954c-14.463,0-32.664-4.944-50.572-14.669
							c-33.635-18.268-53.688-46.592-44.701-63.14c2.5-4.604,6.926-7.909,13.152-9.823l0.254-0.048
							c3.188-0.243,5.996-0.36,8.586-0.36c43.846,0,83.9,25.824,102.043,65.791l0.092,0.197l0.01,0.218
							c0.213,3.819-0.506,7.279-2.139,10.283v-0.001C721.037,206.141,711.217,209.954,698.514,209.954z M616.951,124.578
							c-5.559,1.734-9.486,4.652-11.672,8.674c-8.377,15.424,11.258,42.338,43.77,59.994c32.51,17.658,65.775,19.473,74.15,4.05
							v-0.001c1.395-2.563,2.023-5.534,1.873-8.832c-17.811-39.025-56.977-64.229-99.84-64.229
							C622.736,124.234,620.027,124.346,616.951,124.578z"/>
					</g>
					<g id="XMLID_698_">
						<path id="XMLID_703_" style="fill:#FFEECC;" d="M681.342,298.907c-0.676,0-1.354-0.006-2.041-0.019
							c-24.467-0.433-52.041-8.329-77.641-22.232c-25.566-13.886-47.084-32.652-60.59-52.842
							c-13.086-19.562-16.711-37.927-9.945-50.383l1.26-2.202c20.953-30.907,55.643-49.315,92.842-49.315
							c61.779,0,112.041,50.261,112.041,112.041c0,15.972-3.322,31.439-9.873,45.975l-0.545,1.211l-0.148-0.093
							C719.756,292.461,703.383,298.907,681.342,298.907z M625.227,124.234c-36.428,0-70.4,18.027-90.875,48.223l-1.201,2.104
							c-6.326,11.649-2.742,29.141,9.85,47.963c13.299,19.884,34.525,38.384,59.768,52.093
							c25.279,13.729,52.473,21.526,76.572,21.952c22.838,0.425,39.609-6.044,45.936-17.694l0.275-0.509
							c6.236-14.055,9.396-28.995,9.396-44.411C734.947,173.455,685.727,124.234,625.227,124.234z"/>
					</g>
					<path id="XMLID_639_" style="fill:#FFEECC;" d="M737.268,233.955c0-61.779-50.262-112.041-112.041-112.041
						s-112.041,50.262-112.041,112.041c0,9.786,1.266,19.282,3.634,28.337l-0.011,0.004c0.004,0.008,0.021,0.055,0.037,0.094
						c12.617,48.054,56.422,83.605,108.381,83.605c17.492,0,34.061-4.032,48.826-11.212c0.08-0.025,0.135-0.042,0.146-0.047
						l-0.008-0.022C711.502,316.509,737.268,278.187,737.268,233.955z M672.23,153.322c-8.967-4.869-13.102-11.613-11.34-14.857
						c0.814-1.499,2.941-2.349,5.877-2.349c3.418,0,7.936,1.151,12.758,3.771c8.965,4.869,13.102,11.613,11.34,14.857l0,0
						C689.102,157.988,681.191,158.19,672.23,153.322z M625.227,343.675c-46.598,0-86.5-29.202-102.379-70.265
						c8.355,12.893,26.65,34.638,62.502,52.3c20.932,10.311,41.143,13.129,56.986,13.129c7.648,0,14.277-0.657,19.48-1.445
						C650.365,341.456,638.051,343.675,625.227,343.675z M673.195,332.618c-3.576,1.077-43.564,12.32-86.818-8.99
						c-51.688-25.463-66.26-59.335-67.326-61.97c-2.311-8.854-3.545-18.137-3.545-27.703c0-60.5,49.221-109.721,109.721-109.721
						c16.357,0,31.887,3.604,45.844,10.049c-5.738-1.148-10.469-0.148-12.219,3.074c-2.666,4.91,2.725,12.818,12.271,18.004
						c4.941,2.684,9.885,4.035,13.877,4.035c3.723,0,6.617-1.176,7.904-3.545l0,0c1.486-2.738,0.463-6.409-2.385-10.02
						c26.939,20.012,44.428,52.062,44.428,88.123C734.947,277.263,709.723,314.787,673.195,332.618z"/>
				</g>
				<g id="XMLID_652_">
					<path id="XMLID_683_" style="fill:#FFEECC;" d="M714.484,208.109c-2.732-3.452,3.035-12.639,6.68-15.979
						c3.643-3.34,1.82-4.857,0-10.323c-1.822-5.465-3.947-9.108-9.109-11.537c-5.16-2.429-10.322-1.214-15.18-1.821
						s-9.109-6.68-13.967-8.502c-4.857-1.82-8.197,8.198-9.715,6.68c-1.518-1.518,0.305-6.072-2.428-9.158
						c-2.734-3.086-16.396-2.379-25.807-3.896c-9.412-1.518-8.805-6.68-6.072-9.412s2.732-5.768-4.043-8.805
						c-6.773-3.035-21.26-1.869-25.711-1.162c-8.807,1.398-6.377-4.605-10.945-3.695s-10.914,6.982-14.861,6.072
						c-1.408-0.324-2.467-1.888-3.428-3.527c-2.369,1.13-4.682,2.357-6.955,3.646c0.809,2.889,3.111,5.537,5.221,7.471
						c3.645,3.34,6.072-2.115,13.055,1.671c6.984,3.786,7.592,21.707,2.732,22.618c-4.857,0.91-7.893-4.25-7.59-8.805
						c0.305-4.555-0.91-7.59-6.375-6.982c-5.465,0.606-8.805,11.84-4.25,17.305c4.553,5.465-3.645,9.108-10.324,9.108
						c-6.678,0-9.854-8.675-9.41-13.87c0.738-8.663,7.285-10.418,9.107-15.275c0.83-2.216,0.838-5.679,0.604-8.795
						c-29.584,19.912-49.047,53.705-49.047,92.047c0,13.822,2.549,27.043,7.17,39.245c1.428-1.646,2.383-3.438,2.412-5.002
						c0.086-4.715-3.34-9.412,0-8.805s4.554-1.214,5.014-11.537c0.461-10.322,6.826-6.679,15.814-7.894s9.572-1.226,5.389-6.008
						s-6.746-14.293-6.311-24.604c0.486-11.539,9.543-24.038,12.58-23.431c3.035,0.606,0.709,4.479-3.072,12.345
						c-4.143,8.613-3.641,27.044,3.039,32.206c6.68,5.161,24.018-1.742,22.5-6.903c-1.52-5.161-8.197-3.036-9.717-13.157
						c-1.518-10.121,6.984-14.774,5.77-7.185s6.375,15.787,11.537,17.913c5.16,2.125,6.422,9.725,4.49,14.671
						c-3.02,7.734,9.172,5.063,4.906,9.617s-6.664,28.235-3.021,34.611c3.645,6.376,10.02,6.072,9.367,0.911
						c-0.652-5.162,3.385-13.663,10.064-19.059s20.342-5.838,26.414,0s-4.857,10.861-3.645,13.29
						c1.215,2.429,6.68-0.607,8.502,0.304c1.822,0.91,3.035,4.554,3.947,8.197c0.91,3.643,2.574,9.829,7.334,11.294
						c5.959,1.833,13.311-2.489,13.615-7.348c0.303-4.857-6.072-9.715-1.822-13.358s18.822-0.607,25.809-5.161
						c6.982-4.555,4.855-20.038,2.426-23.985c-2.428-3.946,0-8.197,6.377-3.644c6.375,4.555-0.941,9.612,4.553,10.323
						c3.664,0.474,5.465-4.858,5.465-7.894c0-3.036-4.857-7.287,0.305-8.502c5.162-1.214,6.072-3.035,7.895-13.966
						C723.592,209.74,717.217,211.562,714.484,208.109z M601.984,182.196c-3.18,0.489-0.49,7.337-3.68,9.782
						c-3.191,2.445-9.301,1.038-7.814-3.424c1.713-5.136,3.914-7.826,6.604-11.738s9.047-2.689,10.025,1.467
						C608.098,182.441,605.164,181.707,601.984,182.196z"/>
					<path id="XMLID_686_" style="fill:#16110D;" d="M657.783,292.891c-1.076,0-2.131-0.147-3.123-0.454
						c-5.201-1.601-6.908-8.427-7.729-11.708c-0.424-1.694-1.713-6.854-3.643-7.818c-0.566-0.282-1.939,0.012-3.154,0.27
						c-2.195,0.473-4.688,1.001-5.605-0.833c-0.609-1.219,0.578-2.506,2.08-4.134c2.939-3.186,4.93-5.87,1.68-8.996
						c-5.682-5.461-18.865-5.444-25.646,0.032c-6.836,5.522-10.438,13.921-9.854,18.534c0.271,2.152-0.564,3.771-2.24,4.331
						c-2.266,0.764-5.805-0.68-8.207-4.882c-3.605-6.312-1.49-30.392,3.102-35.294c0.762-0.813,0.779-1.191,0.752-1.315
						c-0.092-0.408-1.084-0.797-1.959-1.14c-2.258-0.886-5.672-2.224-3.816-6.977c1.898-4.863,0.49-12.006-4.17-13.926
						c-5.549-2.284-13.121-10.843-11.891-18.54c0.289-1.805-0.033-2.727-0.432-2.987c-0.416-0.27-1.027,0.062-1.271,0.22
						c-1.619,1.036-3.73,4.544-2.918,9.958c0.865,5.764,3.465,7.361,5.758,8.771c1.678,1.033,3.264,2.007,3.939,4.308
						c0.512,1.733-0.646,3.67-3.254,5.454c-5.064,3.458-15.18,5.917-20.156,2.072c-7.156-5.53-7.221-24.568-3.207-32.917
						c0.439-0.909,0.857-1.766,1.25-2.57c2.088-4.279,3.598-7.369,3.057-8.463c-0.078-0.154-0.246-0.375-0.824-0.49
						c-0.133-0.025-0.65-0.049-1.723,0.793c-3.986,3.131-9.783,13.051-10.164,22.094c-0.42,9.936,2.002,19.434,6.168,24.196
						c2.041,2.332,2.959,3.549,2.559,4.614c-0.486,1.295-2.525,1.57-7.975,2.307l-0.332,0.044c-2.367,0.319-4.553,0.305-6.48,0.299
						c-5.488-0.042-8.516-0.045-8.832,7.046c-0.32,7.184-1.016,10.313-2.567,11.551c-0.995,0.794-2.194,0.702-3.13,0.531
						c-0.475-0.085-0.675-0.025-0.715,0.019c-0.242,0.266,0.16,1.701,0.453,2.75c0.438,1.562,0.981,3.505,0.945,5.476
						c-0.029,1.599-0.937,3.506-2.554,5.372l-0.637,0.734l-0.345-0.909c-4.782-12.632-7.207-25.906-7.207-39.451
						c0-37.158,18.431-71.748,49.303-92.527l0.826-0.557l0.076,0.994c0.307,4.053,0.092,7.094-0.639,9.041
						c-0.738,1.969-2.174,3.424-3.693,4.965c-2.428,2.462-4.941,5.008-5.379,10.156c-0.27,3.141,0.859,7.844,3.535,10.759
						c1.514,1.647,3.297,2.482,5.299,2.482c4.314,0,9.531-1.604,10.791-4.292c0.551-1.176,0.242-2.477-0.914-3.864
						c-2.934-3.52-2.701-8.934-1.17-12.738c1.285-3.192,3.455-5.255,5.801-5.515c2.471-0.275,4.244,0.142,5.424,1.271
						c1.293,1.238,1.801,3.248,1.596,6.326c-0.178,2.646,0.869,5.457,2.602,6.996c1.221,1.082,2.703,1.498,4.303,1.199
						c1.139-0.214,2.061-1.874,2.463-4.441c0.857-5.459-0.768-14.604-5.365-17.096c-3.523-1.91-5.764-1.352-7.74-0.857
						c-1.799,0.45-3.498,0.875-5.43-0.896c-2.877-2.637-4.689-5.242-5.387-7.742l-0.123-0.437l0.395-0.224
						c2.48-1.406,4.768-2.605,6.992-3.666l0.48-0.229l0.27,0.459c0.898,1.531,1.889,2.986,3.055,3.255
						c2.051,0.476,5.061-1.284,7.975-2.983c2.266-1.32,4.609-2.687,6.645-3.092c2.275-0.452,3.143,0.627,3.982,1.672
						c1.045,1.301,2.229,2.771,6.986,2.02c3.42-0.544,18.809-2.035,26.039,1.205c3.699,1.658,5.674,3.42,6.035,5.387
						c0.262,1.422-0.352,2.887-1.82,4.357c-1.045,1.045-1.971,2.75-1.436,4.406c0.445,1.379,2.055,3.195,7.189,4.023
						c3.332,0.537,7.209,0.794,10.957,1.042c7.123,0.472,13.275,0.88,15.191,3.042c1.703,1.924,1.779,4.331,1.842,6.265
						c0.041,1.278,0.076,2.382,0.562,2.868c0.268-0.072,1.127-1.238,1.754-2.091c1.859-2.522,4.404-5.974,7.756-4.721
						c2.24,0.841,4.34,2.534,6.367,4.173c2.533,2.046,4.926,3.979,7.467,4.295c4.766,0.596,10.027-0.635,15.355,1.873
						c5.385,2.533,7.594,6.424,9.412,11.879c0.357,1.078,0.719,2.002,1.035,2.815c1.299,3.337,2.016,5.175-1.195,8.118
						c-3.604,3.303-8.992,12.188-6.617,15.19c0.73,0.921,1.775,1.44,2.885,1.988c2.754,1.365,5.873,2.911,4.52,11.027
						c-1.781,10.689-2.693,13.107-8.332,14.436c-0.977,0.23-1.586,0.582-1.809,1.047c-0.381,0.785,0.234,2.097,0.83,3.364
						c0.553,1.173,1.123,2.386,1.123,3.525c0,2.429-0.996,5.762-2.896,7.433c-0.957,0.841-2.035,1.186-3.225,1.037
						c-1.156-0.151-1.895-0.492-2.318-1.074c-0.59-0.812-0.395-1.862-0.188-2.974c0.363-1.957,0.775-4.175-2.311-6.378
						c-2.58-1.845-4.742-2.362-5.787-1.386c-0.873,0.815-0.771,2.604,0.242,4.253c2.449,3.979,4.85,19.914-2.604,24.774
						c-3.799,2.478-9.74,2.784-14.98,3.055c-4.576,0.237-8.898,0.46-10.768,2.061c-2.104,1.804-1.281,3.805,0.234,6.919
						c0.945,1.938,1.922,3.942,1.789,6.035c-0.137,2.18-1.568,4.367-3.93,5.999C662.9,292.086,660.287,292.891,657.783,292.891z
						 M642.604,271.637c0.457,0,0.865,0.065,1.205,0.235c1.664,0.833,2.975,3.478,4.25,8.576c0.768,3.074,2.367,9.473,6.943,10.881
						c2.967,0.912,6.582,0.256,9.432-1.713c2.068-1.429,3.318-3.294,3.432-5.117c0.113-1.789-0.795-3.652-1.674-5.456
						c-1.395-2.864-2.838-5.828,0.055-8.307c2.168-1.858,6.475-2.08,11.463-2.339c5.094-0.263,10.867-0.561,14.404-2.868
						c6.768-4.412,4.486-19.562,2.252-23.194c-1.324-2.151-1.344-4.499-0.049-5.708c0.711-0.664,2.838-1.866,7.256,1.288
						c3.686,2.634,3.137,5.583,2.775,7.535c-0.168,0.896-0.312,1.671-0.016,2.078c0.219,0.3,0.732,0.503,1.531,0.606
						c0.834,0.113,1.613-0.146,2.309-0.757c1.564-1.376,2.502-4.417,2.502-6.562c0-0.881-0.516-1.975-1.012-3.031
						c-0.711-1.515-1.447-3.08-0.826-4.363c0.389-0.806,1.236-1.352,2.588-1.67c4.811-1.133,5.646-2.647,7.455-13.498
						c1.211-7.268-1.268-8.496-3.893-9.797c-1.174-0.582-2.387-1.183-3.277-2.308c-3.154-3.985,3.377-13.682,6.742-16.767
						c2.625-2.406,2.154-3.613,0.896-6.842c-0.322-0.828-0.688-1.77-1.055-2.869c-1.766-5.299-3.773-8.828-8.805-11.196
						c-5.002-2.354-10.07-1.154-15.006-1.771c-2.869-0.358-5.502-2.485-8.051-4.544c-1.957-1.58-3.98-3.215-6.047-3.988
						c-2.521-0.945-4.684,1.973-6.414,4.322c-1.102,1.496-1.83,2.484-2.666,2.547c-0.312,0.023-0.605-0.088-0.842-0.324
						c-0.811-0.811-0.852-2.127-0.9-3.651c-0.059-1.839-0.127-3.923-1.551-5.532c-1.602-1.807-8.107-2.236-14.4-2.653
						c-3.775-0.25-7.68-0.509-11.066-1.056c-5.713-0.921-7.562-3.124-8.107-4.811c-0.582-1.802,0.076-3.941,1.719-5.584
						c1.201-1.201,1.691-2.289,1.5-3.326c-0.283-1.543-2.09-3.068-5.367-4.539c-6.348-2.844-20.09-1.959-25.385-1.119
						c-5.418,0.863-6.955-1.045-8.072-2.438c-0.789-0.982-1.268-1.574-2.852-1.262c-1.846,0.369-4.104,1.685-6.285,2.957
						c-3.254,1.896-6.33,3.69-8.82,3.112c-1.52-0.351-2.617-1.845-3.523-3.341c-1.928,0.934-3.912,1.975-6.035,3.17
						c0.721,2.141,2.414,4.471,4.92,6.768c1.475,1.352,2.625,1.062,4.365,0.627c2.072-0.52,4.656-1.164,8.574,0.962
						c5.24,2.841,6.85,12.622,5.959,18.297c-0.496,3.165-1.703,5.083-3.396,5.401c-1.961,0.367-3.787-0.143-5.285-1.473
						c-2.02-1.792-3.191-4.909-2.99-7.941c0.182-2.709-0.213-4.428-1.24-5.409c-0.918-0.88-2.395-1.192-4.492-0.958
						c-1.916,0.213-3.729,2.006-4.854,4.795c-1.357,3.372-1.627,8.428,0.984,11.562c1.832,2.198,1.594,3.986,1.074,5.1
						c-1.51,3.222-7.229,4.96-11.842,4.96c-2.309,0-4.436-0.988-6.152-2.858c-2.902-3.16-4.127-8.248-3.838-11.641
						c0.475-5.566,3.256-8.387,5.709-10.873c1.432-1.45,2.781-2.82,3.434-4.558c0.602-1.604,0.818-4.199,0.635-7.541
						c-30.049,20.622-47.955,54.562-47.955,90.997c0,13.066,2.279,25.876,6.778,38.092c1.046-1.393,1.623-2.739,1.644-3.858
						c0.033-1.8-0.485-3.653-0.902-5.143c-0.504-1.801-0.869-3.104-0.193-3.845c0.547-0.602,1.475-0.434,1.779-0.378
						c1.046,0.19,1.701,0.102,2.199-0.296c1.219-0.972,1.836-4.071,2.133-10.696c0.365-8.204,4.604-8.199,9.996-8.154
						c1.887,0.005,4.031,0.021,6.32-0.287l0.332-0.046c3.947-0.533,6.801-0.919,7.043-1.564c0.201-0.532-1.332-2.284-2.346-3.442
						c-4.352-4.975-6.885-14.791-6.453-25.011c0.395-9.373,6.443-19.688,10.607-22.955c1.045-0.82,1.939-1.162,2.664-1.019
						c0.799,0.159,1.35,0.534,1.637,1.114c0.795,1.604-0.574,4.402-3.055,9.486c-0.391,0.802-0.809,1.656-1.244,2.564
						c-4.146,8.621-3.348,26.691,2.869,31.495c4.498,3.476,14.135,1.07,18.791-2.113c2.131-1.454,3.15-2.975,2.799-4.168
						c-0.551-1.872-1.824-2.654-3.436-3.646c-2.385-1.468-5.354-3.292-6.297-9.589c-0.799-5.333,1.123-9.624,3.438-11.107
						c0.918-0.589,1.842-0.667,2.533-0.212c0.664,0.434,1.365,1.504,0.943,4.141c-1.143,7.15,5.975,15.14,11.186,17.285
						c5.34,2.198,6.943,9.954,4.811,15.419c-1.436,3.674,0.9,4.589,3.158,5.475c1.309,0.514,2.438,0.956,2.666,1.964
						c0.156,0.691-0.174,1.443-1.035,2.364c-3.918,4.181-6.584,27.552-2.941,33.926c2.068,3.62,5.061,4.946,6.832,4.357
						c1.125-0.376,1.656-1.501,1.457-3.086c-0.727-5.739,3.787-14.341,10.273-19.581c7.17-5.791,21.141-5.775,27.182,0.032
						c4.328,4.163,0.742,8.049-1.633,10.62c-1.006,1.091-2.146,2.325-1.895,2.828c0.516,1.032,2.539,0.6,4.326,0.218
						C640.867,271.837,641.809,271.637,642.604,271.637z M592.254,191.433c-1.238,0-2.443-0.323-3.365-0.979
						c-1.404-1.002-1.867-2.606-1.27-4.402c1.494-4.479,3.375-7.164,5.553-10.27c0.363-0.52,0.738-1.055,1.123-1.613
						c1.393-2.025,3.836-2.988,6.381-2.51c2.393,0.449,4.189,2.049,4.688,4.172c0.346,1.462,0.264,2.475-0.256,3.189
						c-0.73,1.006-2.088,1.118-3.658,1.248c-0.541,0.045-1.115,0.093-1.697,0.182l0,0c-1.084,0.168-1.219,1.504-1.348,3.672
						c-0.129,2.166-0.275,4.623-2.068,5.998C595.201,190.988,593.705,191.433,592.254,191.433z M599.424,172.703
						c-1.451,0-3.094,0.551-4.172,2.122c-0.387,0.562-0.764,1.099-1.131,1.622c-2.213,3.156-3.961,5.65-5.4,9.971
						c-0.439,1.316-0.148,2.385,0.842,3.09c1.59,1.133,4.369,0.992,6.068-0.311c1.371-1.051,1.496-3.133,1.615-5.146
						c0.131-2.179,0.264-4.431,2.33-4.749l0,0c0.609-0.094,1.209-0.145,1.777-0.191c1.285-0.105,2.396-0.198,2.814-0.774
						c0.299-0.409,0.32-1.163,0.068-2.241c-0.395-1.67-1.84-2.934-3.773-3.297C600.135,172.738,599.785,172.703,599.424,172.703z"/>
				</g>
				<g id="XMLID_640_">
					<path id="XMLID_679_" style="fill:#FFEECC;" d="M532.641,264.038c-1.445,3.868-1.839,10.977,3.02,14.316
						c4.857,3.34,1.518-14.573,6.982-15.787c5.465-1.215,1.145-6.762-2.732-6.376C536.223,256.559,533.732,261.118,532.641,264.038z
						"/>
					<path id="XMLID_680_" style="fill:#16110D;" d="M534.414,277.029c-0.434,0-0.902-0.173-1.403-0.517
						c-5.159-3.547-4.761-10.912-3.233-14.997l0.543,0.203l-0.543-0.203c0.678-1.814,3.242-7.772,7.756-8.221
						c2.795-0.291,5.578,2.062,5.916,4.17c0.123,0.778,0.082,2.663-3.002,3.349c-2.34,0.521-2.859,5.314-3.275,9.166
						c-0.377,3.491-0.674,6.249-2.111,6.909C534.855,276.982,534.639,277.029,534.414,277.029z M537.98,254.433
						c-0.111,0-0.223,0.005-0.332,0.016c-3.057,0.305-5.509,4.06-6.784,7.474l0,0c-1.347,3.601-1.774,10.486,2.804,13.635
						c0.275,0.19,0.66,0.396,0.908,0.277c0.838-0.385,1.16-3.356,1.443-5.979c0.479-4.44,1.023-9.473,4.178-10.174
						c1.07-0.237,2.305-0.784,2.105-2.032C542.064,256.157,539.984,254.433,537.98,254.433z"/>
				</g>
				<g id="XMLID_649_">
					<path id="XMLID_675_" style="fill:#FFEECC;" d="M666.725,325.22c-9.068,5.161-16.795,4.009-23.721,5.769
						c-4.791,1.217-7.223,6.782-10.957,13.074c23.258-0.895,44.684-8.929,62.123-22.006c-0.148-0.983-0.391-1.957-0.768-2.909
						C688.85,307.61,675.793,320.059,666.725,325.22z"/>
					<path id="XMLID_676_" style="fill:#16110D;" d="M628.686,342.362l0.545-0.916c0.576-0.974,1.121-1.929,1.65-2.853
						c2.883-5.043,5.373-9.398,9.66-10.487c2.307-0.586,4.664-0.851,7.16-1.13c5.123-0.575,10.422-1.168,16.418-4.58l0,0
						c1.807-1.029,3.758-2.34,5.824-3.728c6.111-4.104,12.426-8.349,17.141-6.881c1.992,0.62,3.518,2.243,4.537,4.826
						c0.377,0.951,0.639,1.945,0.801,3.037l0.053,0.342l-0.277,0.209c-18.135,13.597-39.729,21.246-62.447,22.119L628.686,342.362z
						 M685.07,312.657c-4.096,0-9.572,3.68-14.48,6.975c-2.084,1.4-4.053,2.723-5.898,3.772l0,0
						c-6.201,3.53-11.865,4.164-16.861,4.726c-2.455,0.274-4.773,0.534-7.004,1.101c-3.811,0.968-6.072,4.927-8.939,9.939
						c-0.361,0.636-0.734,1.286-1.119,1.946c21.977-1.053,42.85-8.519,60.453-21.634c-0.15-0.871-0.373-1.673-0.678-2.442
						c-0.896-2.271-2.141-3.626-3.803-4.144C686.217,312.732,685.656,312.657,685.07,312.657z"/>
				</g>
				<g id="XMLID_642_">
					<path id="XMLID_671_" style="fill:#FFEECC;" d="M632.047,299.046c-9.949-3.629-3.191,17.001,5.895,20.674
						c7.939,3.21,17.318,1.683,17.014-1.354c-0.303-3.036-5.182-0.528-12.09-5.993C635.955,306.908,636.781,300.772,632.047,299.046
						z"/>
					<path id="XMLID_672_" style="fill:#16110D;" d="M644.928,319.766c-2.971,0-6.371-0.553-9.523-1.827
						c-6.93-2.803-12.76-15.071-10.814-20.131c0.451-1.171,1.74-2.938,5.336-1.627c2.543,0.927,3.613,3.012,4.852,5.425
						c1.273,2.481,2.717,5.295,6.127,7.992c3.617,2.861,6.592,3.457,8.764,3.892c1.879,0.377,3.363,0.675,3.545,2.499
						c0.055,0.551-0.09,1.365-1.096,2.12C650.73,319.148,648.068,319.766,644.928,319.766z M627.643,296.876
						c-1.453,0-1.824,0.966-1.971,1.348c-1.557,4.051,3.57,15.972,10.168,18.639c6.441,2.605,13.418,1.939,15.58,0.318
						c0.461-0.346,0.676-0.708,0.641-1.076c-0.09-0.876-0.609-1.074-2.621-1.478c-2.158-0.432-5.418-1.085-9.256-4.119
						c-3.607-2.854-5.178-5.914-6.439-8.373c-1.172-2.287-2.1-4.093-4.215-4.864l0,0
						C628.754,296.987,628.135,296.876,627.643,296.876z"/>
				</g>
				<g id="XMLID_647_">
					<path id="XMLID_667_" style="fill:#FFEECC;" d="M681.336,302.661c-5.838-5.192,4.217-13.729,9.471-13.194
						s4.729,5.64,1.52,10.717C689.119,305.261,684.596,305.562,681.336,302.661z"/>
					<path id="XMLID_668_" style="fill:#16110D;" d="M683.508,302.765c-1.713,0-3.416-0.689-4.879-1.991v0.001
						c-2.002-1.781-2.488-4.163-1.367-6.708c1.801-4.1,7.492-7.88,11.283-7.496c2.467,0.251,3.541,1.445,4.006,2.402
						c1.039,2.137,0.291,5.491-2.055,9.201c-1.664,2.635-3.775,4.201-6.102,4.529C684.1,302.745,683.803,302.765,683.508,302.765z
						 M687.973,287.701c-3.312,0-8.119,3.35-9.65,6.832c-0.926,2.105-0.562,3.913,1.078,5.374v0.001
						c1.457,1.295,3.174,1.884,4.832,1.646c1.979-0.278,3.807-1.661,5.283-4c2.096-3.314,2.84-6.332,1.992-8.073
						c-0.49-1.008-1.525-1.599-3.08-1.757C688.279,287.708,688.127,287.701,687.973,287.701z"/>
				</g>
				<g id="XMLID_645_">
					<path id="XMLID_641_" style="fill:#FFEECC;" d="M715.035,253.885c-0.68-3.045,3.908-5.827,6.316-5.884
						c3.207-0.075,2.016-6.32,4.311-6.081s3.729,10.91-1.49,14.252C719.934,258.885,716.051,258.432,715.035,253.885z"/>
					<path id="XMLID_664_" style="fill:#16110D;" d="M717.049,256.108c-0.682,0-1.318-0.118-1.898-0.357
						c-1.51-0.622-2.547-2.025-3.002-4.061c-0.248-1.113,0.074-2.281,0.932-3.378c1.512-1.933,4.26-3.172,5.939-3.212
						c1.191-0.026,1.578-1.231,2.033-3.065c0.369-1.489,0.811-3.184,2.35-3.012c0.973,0.101,1.764,1.23,2.227,3.179
						c0.789,3.329,0.547,9.569-3.465,12.139C720.34,255.509,718.584,256.108,717.049,256.108z M713.281,251.438
						c0.373,1.673,1.15,2.764,2.311,3.24c1.525,0.633,3.639,0.162,5.947-1.313c3.32-2.128,3.73-7.651,2.961-10.895
						c-0.383-1.618-0.949-2.265-1.217-2.293c-0.498-0.032-0.766,0.771-1.104,2.138c-0.432,1.735-0.967,3.896-3.133,3.946
						c-1.393,0.033-3.811,1.178-5.053,2.767C713.35,249.853,713.109,250.663,713.281,251.438L713.281,251.438z"/>
				</g>
				<g id="XMLID_643_">
					<path id="XMLID_694_" style="fill:#16110D;" d="M698.514,206.861c-14.463,0-32.664-4.944-50.572-14.67
						c-33.635-18.268-53.688-46.592-44.701-63.139c2.5-4.605,6.926-7.91,13.152-9.824l0.254-0.047
						c3.188-0.243,5.996-0.361,8.586-0.361c43.846,0,83.9,25.824,102.043,65.791l0.092,0.198l0.01,0.218
						c0.213,3.818-0.506,7.279-2.139,10.282v-0.001C721.037,203.047,711.217,206.861,698.514,206.861z M616.951,121.484
						c-5.559,1.734-9.486,4.652-11.672,8.674c-8.377,15.425,11.258,42.338,43.77,59.994c32.51,17.658,65.775,19.473,74.15,4.051
						v-0.002c1.395-2.562,2.023-5.533,1.873-8.831c-17.811-39.025-56.977-64.229-99.84-64.229
						C622.736,121.141,620.027,121.253,616.951,121.484z"/>
				</g>
				<g id="XMLID_644_">
					<path id="XMLID_700_" style="fill:#16110D;" d="M681.342,295.813c-0.676,0-1.354-0.005-2.041-0.018
						c-24.467-0.433-52.041-8.33-77.641-22.233c-25.566-13.885-47.084-32.651-60.59-52.842
						c-13.086-19.562-16.711-37.927-9.945-50.383l1.26-2.201c20.953-30.908,55.643-49.316,92.842-49.316
						c61.779,0,112.041,50.262,112.041,112.041c0,15.972-3.322,31.439-9.873,45.976l-0.545,1.211l-0.148-0.093
						C719.756,289.368,703.383,295.813,681.342,295.813z M625.227,121.141c-36.428,0-70.4,18.027-90.875,48.223l-1.201,2.104
						c-6.326,11.65-2.742,29.141,9.85,47.963c13.299,19.884,34.525,38.385,59.768,52.093c25.279,13.73,52.473,21.526,76.572,21.952
						c22.838,0.425,39.609-6.044,45.936-17.693l0.275-0.509c6.236-14.056,9.396-28.995,9.396-44.412
						C734.947,170.361,685.727,121.141,625.227,121.141z"/>
				</g>
				<path id="XMLID_651_" style="fill:#16110D;" d="M737.268,230.861c0-61.779-50.262-112.041-112.041-112.041
					s-112.041,50.262-112.041,112.041c0,9.786,1.266,19.283,3.634,28.338l-0.011,0.003c0.004,0.008,0.021,0.055,0.037,0.095
					c12.617,48.054,56.422,83.604,108.381,83.604c17.492,0,34.061-4.032,48.826-11.212c0.08-0.024,0.135-0.042,0.146-0.046
					l-0.008-0.023C711.502,313.416,737.268,275.093,737.268,230.861z M672.23,150.229c-8.967-4.869-13.102-11.613-11.34-14.857
					c0.814-1.499,2.941-2.349,5.877-2.349c3.418,0,7.936,1.151,12.758,3.771c8.965,4.869,13.102,11.613,11.34,14.857l0,0
					C689.102,154.895,681.191,155.098,672.23,150.229z M625.227,340.582c-46.598,0-86.5-29.203-102.379-70.266
					c8.355,12.894,26.65,34.638,62.502,52.301c20.932,10.31,41.143,13.128,56.986,13.128c7.648,0,14.277-0.656,19.48-1.445
					C650.365,338.362,638.051,340.582,625.227,340.582z M673.195,329.525c-3.576,1.076-43.564,12.319-86.818-8.99
					c-51.688-25.463-66.26-59.336-67.326-61.971c-2.311-8.854-3.545-18.137-3.545-27.703c0-60.5,49.221-109.721,109.721-109.721
					c16.357,0,31.887,3.604,45.844,10.05c-5.738-1.149-10.469-0.149-12.219,3.073c-2.666,4.91,2.725,12.818,12.271,18.004
					c4.941,2.684,9.885,4.035,13.877,4.035c3.723,0,6.617-1.176,7.904-3.545l0,0c1.486-2.738,0.463-6.409-2.385-10.02
					c26.939,20.012,44.428,52.062,44.428,88.123C734.947,274.169,709.723,311.693,673.195,329.525z"/>
			</g>
		</g>
	</g>
	
		<ellipse transform="matrix(0.8607 0.509 -0.509 0.8607 240.2128 -249.3038)" style="fill:#191410;" cx="575.77" cy="314.396" rx="19.595" ry="15.415"/>
	<path style="fill:#00A89F;" d="M586.69,314.848c-1.755,4.524-8.083,7.251-13.393,4.111c-5.311-3.141-7.792-6.948-5.938-11.301
		c1.902-4.465,6.392-6.065,12.232-4.243C585.481,305.252,588.093,311.232,586.69,314.848z"/>
	<g id="illustration">
		<g id="XMLID_141_">
			<g id="XMLID_93_">
				<path id="XMLID_142_" style="fill:#00A89F;" d="M219.21,251.909h0.039l-25.358-56.333h-0.03c-0.975-2.915-3.697-5.03-6.94-5.03
					c-3.244,0-5.964,2.115-6.939,5.03h-0.03l-25.358,56.333h0.039c-2.373,4.804-3.741,10.192-3.741,15.912
					c0,19.898,16.131,36.03,36.03,36.03c19.9,0,36.03-16.132,36.03-36.03C222.951,262.102,221.583,256.713,219.21,251.909z"/>
				<path id="XMLID_95_" style="fill:#FFEECC;" d="M207.559,227.375h0.014l-9.64-21.416h-0.013c-0.37-1.109-1.405-1.913-2.638-1.913
					c-1.232,0-2.267,0.804-2.638,1.913h-0.011l-9.641,21.416h0.015c-0.902,1.826-1.422,3.874-1.422,6.049
					c0,7.565,6.133,13.697,13.697,13.697c7.566,0,13.698-6.132,13.698-13.697C208.981,231.249,208.461,229.201,207.559,227.375z"/>
				<path id="XMLID_300_" style="fill:#191410;" d="M220.877,252.971h0.014l-26.032-57.83l-0.092-0.184
					c-1.229-3.285-4.344-5.472-7.846-5.472c-3.454,0-6.533,2.127-7.795,5.339l-25.5,56.65l-0.283,0.666
					c-2.331,4.969-3.513,10.24-3.513,15.68c0,20.452,16.639,37.092,37.091,37.092c20.453,0,37.092-16.64,37.092-37.092
					C224.013,262.683,222.959,257.695,220.877,252.971z M213.587,243.162c0,11.634-9.431,21.064-21.063,21.064
					c-11.633,0-21.064-9.431-21.064-21.064c0-3.344,0.8-6.494,2.187-9.303h-0.022l14.825-32.932h0.018
					c0.57-1.705,2.161-2.941,4.058-2.941c0.495,0,0.962,0.101,1.403,0.256l19.609,43.563
					C213.568,242.254,213.587,242.705,213.587,243.162z"/>
				<g id="XMLID_143_">
					<path id="XMLID_144_" style="fill:#00A89F;" d="M168.994,291.922c-3.761-2.809-6.662-6.418-8.529-9.132
						c-1.393-2.026-0.691-4.808,1.495-5.935l0.006-0.003c1.83-0.944,4.065-0.38,5.229,1.317c1.49,2.176,3.798,5.082,6.674,7.217
						c1.571,1.166,2.132,3.256,1.3,5.025l0,0C174.064,292.768,171.079,293.479,168.994,291.922z"/>
				</g>
			</g>
			<g id="XMLID_45_">
				<path style="fill:#00A89F;" d="M574.065,305.829c-3.187,0-6.097,1.136-8.392,3c-0.919,2.127-1.737,4.317-2.434,6.575
					l-56.073,181.744c-0.497,1.613-1.528,2.707-3.065,3.248c-1.564,0.553-3.253,0.365-4.526-0.492c-0.484-0.326-1-1.01-1.411-1.875
					l-26.335-55.113l-21.11,10.068l26.334,55.113c2.22,4.654,5.484,8.523,9.44,11.195c4.483,3.025,9.745,4.648,15.094,4.785
					c3.457,0.088,6.95-0.445,10.292-1.625c8.526-3.004,14.957-9.715,17.639-18.41l56.073-181.744c0.49-1.59,1.079-3.125,1.745-4.61
					C586.589,311.017,580.937,305.829,574.065,305.829z"/>
				<path style="fill:#FFEECC;" d="M574.065,305.829c-0.732,0-1.443,0.079-2.144,0.192c-1.832,3.471-3.366,7.149-4.559,11.014
					l-56.072,181.744c-0.498,1.613-1.529,2.707-3.066,3.248c-1.308,0.461-2.688,0.379-3.854-0.152
					c-1.426,0.365-2.905,0.17-4.052-0.602c-0.484-0.328-0.999-1.012-1.412-1.875l-25.604-53.586l-13.704,6.533l18.025,37.725
					c2.221,4.656,5.486,8.525,9.441,11.193c4.483,3.027,7.25,4.66,12.598,4.797c3.456,0.088,7.329,0.139,10.671-1.039
					c8.528-3.006,12.361-11.752,15.043-20.447l52.085-169.258c0.827-2.689,1.847-5.307,3.027-7.841
					C578.583,306.428,576.395,305.829,574.065,305.829z"/>
				<path style="fill:#191410;" d="M587.354,320.436c0.039-0.411,0.072-0.824,0.072-1.246c0-1.521-0.267-2.979-0.735-4.342
					c-1.237,3.551-1.707,5.914-1.707,5.914c0.039-0.113,0.089-0.223,0.13-0.334c-0.183,0.518-0.374,1.029-0.537,1.559
					L528.504,503.73c-2.582,8.369-8.77,14.83-16.978,17.723c-0.223,0.078-0.453,0.131-0.676,0.203
					c-2.994-0.098-5.923-0.959-8.599-2.16c-6.916-3.109-12.377-8.754-15.69-15.576l-20.953-43.139l-1.021-5.936l-12.25-0.936
					l-0.204-0.426l19.195-9.152l25.877,54.154c0.499,1.049,1.13,1.865,1.775,2.299c1.554,1.043,3.599,1.273,5.473,0.613
					c1.846-0.652,3.135-2.014,3.728-3.938l56.073-181.744c0.86-2.787,1.902-5.476,3.105-8.059c-1.391,0.812-2.616,1.865-3.629,3.107
					c-0.547,1.416-1.052,2.856-1.505,4.326l-56.073,181.744c-0.398,1.293-1.185,2.129-2.404,2.561
					c-1.247,0.439-2.584,0.301-3.582-0.373c-0.241-0.162-0.657-0.637-1.045-1.451l-26.792-56.068l-23.027,10.979l26.792,56.072
					c2.301,4.824,5.691,8.842,9.806,11.617c4.6,3.105,10.016,4.824,15.659,4.967c0.257,0.006,0.513,0.012,0.769,0.012
					c3.384-0.002,6.711-0.57,9.903-1.695c8.849-3.119,15.518-10.08,18.3-19.1l56.073-181.744
					C586.832,321.874,587.086,321.151,587.354,320.436z"/>
				<g id="XMLID_42_">
					<g id="XMLID_90_">
						<path id="XMLID_262_" style="fill:#00A89F;" d="M478.779,439.967c-0.124-0.26-0.277-0.498-0.422-0.742l0.013-0.016
							l-5.519-9.225l-33.367,17.736l4.833,8.553l0.495,0.838c3.581,6.002,13.387,7.436,22.5,3.1
							C476.813,455.691,481.947,446.627,478.779,439.967z"/>
						<path id="XMLID_263_" style="fill:#191410;" d="M456.742,463.76c-5.6,0-10.464-2.121-12.842-6.105l-0.497-0.84l-5.378-9.52
							l35.217-18.721l6.438,10.758l-0.021,0.023c0.027,0.051,0.053,0.102,0.077,0.154l0.001,0.002
							c1.686,3.541,1.324,7.77-1.017,11.904c-2.272,4.012-6.162,7.475-10.952,9.754C464.094,462.918,460.271,463.76,456.742,463.76z
							 M440.943,448.146l4.783,8.424c3.314,5.561,12.597,6.742,21.13,2.682c4.4-2.094,7.958-5.246,10.018-8.883
							c1.99-3.514,2.326-7.045,0.949-9.945c-0.082-0.166-0.178-0.322-0.273-0.48l-0.5-0.846l0.01-0.012l-4.602-7.691
							L440.943,448.146z"/>
					</g>
					<g id="XMLID_82_">
						<g id="XMLID_87_">
							
								<ellipse id="XMLID_258_" transform="matrix(0.4296 0.903 -0.903 0.4296 656.931 -161.6367)" style="fill:#00A89F;" cx="456.417" cy="439.21" rx="13.355" ry="19.051"/>
							<path id="XMLID_289_" style="fill:#FFEECC;" d="M445.063,455.389c4.583,3.594,12.563,3.945,20.078,0.371
								c7.531-3.584,12.3-10.02,12.383-15.854l-4.862-8.424l0.285-0.062c-4.677-3.041-12.19-3.154-19.281,0.219
								c-8.305,3.951-13.271,11.373-12.273,17.629L445.063,455.389z"/>
							<path id="XMLID_259_" style="fill:#191410;" d="M451.534,454.85c-1.16,0-2.299-0.092-3.402-0.277
								c-4.684-0.793-8.191-3.18-9.877-6.723s-1.325-7.77,1.018-11.904c2.271-4.012,6.16-7.475,10.951-9.754
								c4.79-2.279,9.934-3.111,14.478-2.344c4.685,0.793,8.191,3.18,9.877,6.723c1.686,3.541,1.325,7.77-1.016,11.904
								c-2.271,4.012-6.162,7.475-10.952,9.754l0,0C458.983,453.953,455.154,454.85,451.534,454.85z M461.292,425.691
								c-3.302,0-6.812,0.826-10.156,2.416c-4.4,2.094-7.957,5.25-10.018,8.885c-1.989,3.514-2.326,7.045-0.946,9.945
								c1.379,2.9,4.331,4.867,8.312,5.541c4.122,0.695,8.813-0.076,13.215-2.168l0,0c4.4-2.092,7.957-5.246,10.016-8.883
								c1.991-3.514,2.326-7.047,0.947-9.945c-1.38-2.9-4.332-4.869-8.313-5.541C463.358,425.773,462.335,425.691,461.292,425.691z"
								/>
						</g>
					</g>
					<g id="XMLID_89_">
						<path id="XMLID_254_" style="fill:#00A89F;" d="M469.764,432.463c-0.239-1.326-0.503-2.084-1.148-3.572l-34.866-80.473
							l-28.254,12.24c0,0,35.335,81.928,35.575,82.432c2.534,5.328,10.75,6.717,18.351,3.1
							C465.997,443.062,470.458,437.436,469.764,432.463z"/>
						<path id="XMLID_294_" style="fill:#FFEECC;" d="M458.819,425.289c-0.239-1.326-0.502-2.084-1.146-3.572l-32.798-75.695
							l-21.615,9.365c0,0,35.335,81.926,35.574,82.43c0.608,1.279,1.55,2.322,2.725,3.133c2.245-0.205,4.609-0.836,6.918-1.934
							C455.054,435.887,459.515,430.26,458.819,425.289z"/>
						<path id="XMLID_140_" style="fill:#191410;" d="M470.813,432.316l-0.006-0.041c-0.265-1.467-0.575-2.322-1.217-3.805
							l-34.867-80.475l-0.423-0.973l-30.199,13.084l0.42,0.975c3.617,8.387,35.349,81.959,35.591,82.465
							c1.378,2.898,4.239,4.85,8.057,5.494c0.895,0.15,1.816,0.227,2.757,0.227c2.926,0,6.021-0.725,8.95-2.117
							C467.06,443.73,471.557,437.631,470.813,432.316z M458.965,445.232c-1.274,0.605-2.578,1.066-3.881,1.387l-22.563-54.354
							l-3.398,1.785l-7.589,1.111c-6.769-15.688-12.999-30.135-14.645-33.949l26.309-11.398l34.445,79.498
							c0.606,1.4,0.849,2.082,1.073,3.318C469.306,436.965,465.21,442.262,458.965,445.232z"/>
					</g>
					<g id="XMLID_79_">
						<path id="XMLID_250_" style="fill:#191410;" d="M384.414,420.041l-25.361,3.314l10.382-11.631l-13.029,11.975l-2.104,0.275
							l-11.851,8.287l-7.537,9.85l-2.287-4.178l-4.172-2.316l-0.983-11.672l-9.824,5.672l4.562,24.812
							c0.231,1.252,0.856,2.051,1.687,2.508v0.057l14.946,8.295l4.7-7.428l-1.214-3.539l5.754,1.395L384.414,420.041z"/>
						<path id="XMLID_251_" style="fill:#191410;" d="M339.201,466.703l-16.368-9.084v-0.111c-0.869-0.668-1.441-1.652-1.668-2.885
							l-4.698-25.551l11.921-6.883l1.076,12.775l3.944,2.189l1.653,3.018l6.781-8.777l12.062-8.438l2.03-0.266l12.782-11.748
							l1.51,1.488l-8.483,9.502l25.674-3.352l-39.013,38.305l-4.445-1.076l0.749,2.188L339.201,466.703z M324.956,456.369
							l13.524,7.506l3.892-6.152l-1.678-4.887l7.063,1.711l33.652-33.041l-26.714,3.488l-11.503,8.043l-8.428,11.014l-2.923-5.338
							l-4.397-2.439l-0.892-10.572l-7.728,4.461l4.428,24.078c0.156,0.85,0.532,1.426,1.151,1.768L324.956,456.369z"/>
					</g>
					<g id="XMLID_47_">
						<path id="XMLID_246_" style="fill:#00A89F;" d="M332.626,437.934l4.562,24.814c0.769,4.18,5.638,3.877,9.637-0.602
							l37.589-42.105l-31.896,29.316c-4.086,3.756-8.352,3.277-8.71-0.977l-1.358-16.119L332.626,437.934z"/>
						<path id="XMLID_247_" style="fill:#191410;" d="M340.527,466.768c-0.454,0-0.893-0.059-1.313-0.176
							c-1.63-0.457-2.721-1.754-3.069-3.652l-4.699-25.551l11.922-6.881l1.498,17.783c0.073,0.863,0.38,1.977,1.423,2.383
							c1.374,0.535,3.541-0.285,5.513-2.098l31.896-29.314l1.51,1.488l-37.59,42.104
							C345.382,465.355,342.778,466.768,340.527,466.768z M333.806,438.479l4.428,24.078c0.199,1.088,0.722,1.758,1.554,1.992
							c1.381,0.381,3.848-0.426,6.245-3.109l23.285-26.078l-16.081,14.777c-2.641,2.43-5.528,3.373-7.719,2.514
							c-1.61-0.627-2.593-2.113-2.767-4.184l-1.218-14.451L333.806,438.479z"/>
					</g>
					<path id="XMLID_175_" style="fill:#191410;" d="M408.962,379.338l-12.978-21.18l-31.258,27.748
						c-1.518,1.354-3.095,2.598-4.686,3.693l-22.17,15.291c-3.192,2.201-6.399,3.562-9.334,3.961l-4.804-13.67l2.527-74.711
						l-14.045,2.211l2.893-17.853l-15.977,9.225l-3.41,22.517c-4.319,28.525-2.055,54.15,6.544,74.105l5.147,11.945
						c0.882,2.047,2.266,3.67,4.133,4.832l22.974,12.857l1.87-9.117l-1.001-2.848l14.93,3.854l7.891-5.24
						c0.319,0.311,0.719,0.539,1.189,0.68c3.921,1.16,12.264-4.646,14.876-6.773c9.462-7.701,42.005-14.938,42.332-15.008
						l1.152-0.254L408.962,379.338z"/>
					<path id="XMLID_81_" style="fill:#191410;" d="M363.804,357.934c-0.214-1.053-0.428-2.117-0.633-3.291l-9.539-37.6
						l-14.523-1.693l9.146,47.916c0.958,4.9,0.918,10.465-0.12,16.533l-4.584,26.787c-0.765,4.473-2.922,12.07-8.786,12.711
						l-3.627,0.396l11.082,5.453l3.944-2.605c4.666-3.498,10.645-9.988,12.149-16.799l5.992-33.076
						C365.598,366.812,364.686,362.299,363.804,357.934z"/>
					<g id="XMLID_46_">
						<path id="XMLID_234_" style="fill:#00A89F;" d="M348.979,318.02l8.874,46.49c0.979,5.008,0.94,10.748-0.115,16.916
							l-4.583,26.787c-1.188,6.938-7.656,14.148-13.242,14.762l2.215,7.447l7.066-6.496l0,0c5.104-3.828,8.849-12.137,10.166-18.104
							l7.47-30.09c1.543-6.992,1.838-13.537,0.867-19.205l-6.355-37.066L348.979,318.02z"/>
						<path id="XMLID_235_" style="fill:#191410;" d="M341.596,432.352l-3.062-10.293l1.263-0.139
							c5.11-0.559,11.209-7.438,12.312-13.885l4.584-26.787c1.038-6.066,1.078-11.629,0.12-16.535l-9.147-47.916l14.589,1.701
							l6.489,37.852c1.001,5.842,0.706,12.441-0.877,19.613l-7.477,30.113c-1.369,6.207-5.261,14.727-10.56,18.697L341.596,432.352z
							 M341.267,423.801l1.394,4.689l5.816-5.346c4.946-3.717,8.554-11.688,9.848-17.551l7.476-30.115
							c1.517-6.877,1.805-13.201,0.852-18.771l-6.222-36.285l-10.137-1.182l8.604,45.07c1.007,5.154,0.969,10.975-0.112,17.293
							l-4.583,26.789C353.024,415.27,346.961,422.34,341.267,423.801z"/>
					</g>
					<g id="XMLID_80_">
						<path id="XMLID_230_" style="fill:#191410;" d="M358.35,295.273l-23.059,14.267l0.416,10.649
							c0.07,1.783,0.732,3.041,1.761,3.764l-0.016,0.02l14.943,8.293l20.788-28.775L358.35,295.273z"/>
						<path id="XMLID_231_" style="fill:#00A89F;" d="M352.705,333.652l-16.89-9.373l0.188-0.227
							c-0.684-0.785-1.285-1.99-1.356-3.82l-0.44-11.268l24.112-14.921l16.425,9.097L352.705,333.652z M338.224,323.186
							l13.863,7.695l19.535-27.041l-13.242-7.338l-22.004,13.617l0.392,10.029c0.055,1.357,0.506,2.373,1.31,2.936L338.224,323.186z
							"/>
					</g>
					<g id="XMLID_72_">
						<path id="XMLID_226_" style="fill:#00A89F;" d="M407.816,233.83l-4.217-21.442c-0.415-2.109-1.416-3.726-2.903-4.685
							l-2.792-1.8l1.157-1.836l-30.808-17.438c-1.348-0.763-2.79-1.347-4.289-1.735l-38.516-9.983
							c-4.206-1.012-9.879,1.485-14.798,6.513l-19.938,20.378c-3.634,3.715-5.54,8.999-4.443,12.318l7.86,23.79
							c1.068,3.233,0.925,7.422-0.413,11.952l-7.76,26.305c-0.975,3.303-0.276,5.982,1.774,6.798l4.894,2.773
							c0.607,0.746,1.076,1.655,1.376,2.724l4.673,16.691c0.389,1.388,1.154,2.363,2.146,2.979l-0.013,0.041l31.781,17.682
							c1.676,0.934,3.775-0.002,4.208-1.869l7.715-33.408l6.843-10.854l48.873-31.4C405.157,245.154,408.71,238.371,407.816,233.83z
							"/>
						<path id="XMLID_227_" style="fill:#191410;" d="M333.985,327.283c-0.656,0-1.313-0.166-1.911-0.5l-32.534-18.102l0.043-0.142
							c-0.913-0.774-1.575-1.831-1.931-3.102l-4.673-16.69c-0.234-0.837-0.59-1.572-1.059-2.19l-4.711-2.671
							c-2.47-0.972-3.412-4.145-2.27-8.021l7.76-26.305c1.267-4.291,1.416-8.31,0.423-11.318l-7.86-23.789
							c-1.23-3.725,0.743-9.357,4.692-13.395l19.938-20.38c5.182-5.295,11.24-7.896,15.806-6.801l38.533,9.988
							c1.588,0.412,3.116,1.03,4.545,1.838l31.776,17.987l-1.191,1.889l1.91,1.231c1.733,1.118,2.898,2.976,3.369,5.37l4.217,21.443
							c0.985,5.012-2.704,12.15-8.056,15.59l-48.676,31.273l-6.621,10.501l-7.674,33.237c-0.282,1.217-1.099,2.205-2.241,2.713
							C335.074,327.17,334.529,327.283,333.985,327.283z M302.075,307.66l31.03,17.268c0.505,0.283,1.097,0.307,1.623,0.072
							c0.527-0.234,0.904-0.691,1.035-1.252l7.851-33.738l6.969-11.053l0.197-0.127l48.873-31.4
							c4.533-2.912,7.928-9.297,7.122-13.396l-4.217-21.441c-0.357-1.816-1.201-3.199-2.438-3.996l-3.673-2.369l1.124-1.783
							l-29.841-16.892c-1.268-0.717-2.624-1.266-4.032-1.63l-38.516-9.985c-3.828-0.924-9.111,1.464-13.771,6.227l-19.938,20.38
							c-3.316,3.389-5.157,8.328-4.194,11.243l7.86,23.79c1.145,3.465,1.006,7.816-0.403,12.585l-7.76,26.304
							c-0.798,2.707-0.337,4.922,1.149,5.513l5.323,3.091c0.713,0.873,1.242,1.919,1.575,3.105l4.673,16.691
							c0.297,1.06,0.863,1.855,1.683,2.361L302.075,307.66z"/>
					</g>
					<path id="XMLID_222_" style="fill:#00A89F;" d="M331.835,271.863l-3.679-9.219l-33.357-19.91c0,2.207-0.335,4.602-1.081,7.127
						l-7.76,26.305c-0.975,3.303-0.276,5.982,1.774,6.798l4.894,2.773l27.506,15.536L331.835,271.863z"/>
					<g id="XMLID_50_">
						<path id="XMLID_218_" style="fill:#00A89F;" d="M419.432,380.605l-1.234,0.936l-3.021-8.303l-28.414,25.318
							c-1.562,1.395-3.166,2.656-4.788,3.777l-22.17,15.289c-9.089,6.268-17.662,5.613-20.729-1.58l-1.169-2.746
							c-8.637-20.268-10.704-46.254-5.993-75.328l3.119-19.246l-13.599,7.854l-3.334,22.014
							c-4.297,28.383-2.067,53.717,6.469,73.525l5.149,11.945c2.817,6.539,10.255,7.689,18.589,2.879l21.033-12.145l1.127,3.477
							c1.229,3.791,5.606,4.07,9.987,0.506c9.768-7.951,26.902-18.916,38.977-10.168c7.304,5.287,12.583,9.074,16.268,11.701
							c2.077,1.479,4.778-0.717,3.771-3.062L419.432,380.605z"/>
						<path id="XMLID_219_" style="fill:#191410;" d="M338.721,440.949c-1.323,0-2.578-0.189-3.742-0.576
							c-2.82-0.936-4.976-2.973-6.233-5.893l-5.15-11.943c-8.6-19.957-10.86-45.582-6.542-74.107l3.409-22.518l15.976-9.223
							l-3.476,21.451c-4.673,28.838-2.626,54.682,5.922,74.74l1.168,2.746c1.058,2.48,2.883,4.158,5.279,4.854
							c3.792,1.098,8.843-0.262,13.869-3.73l22.172-15.289c1.587-1.096,3.163-2.34,4.685-3.695l29.582-26.361l3.064,8.422
							l1.169-0.885l20.573,47.889c0.643,1.498,0.224,3.193-1.046,4.217c-1.28,1.033-2.975,1.084-4.315,0.127
							c-3.687-2.627-8.969-6.414-16.274-11.705c-11.621-8.418-28.598,2.734-37.685,10.131c-2.831,2.307-5.817,3.223-8.208,2.523
							c-1.651-0.488-2.881-1.738-3.458-3.523l-0.724-2.23l-19.896,11.488C345.303,439.9,341.825,440.949,338.721,440.949z
							 M322.407,327.238l-3.256,21.51c-4.26,28.133-2.051,53.357,6.392,72.949l5.15,11.943c1.026,2.381,2.692,3.969,4.953,4.717
							c3.312,1.098,7.62,0.266,12.131-2.336l22.17-12.803l1.53,4.729c0.366,1.129,1.053,1.848,2.041,2.139
							c1.685,0.5,4.02-0.301,6.268-2.131c9.557-7.783,27.501-19.457,40.268-10.205c7.302,5.287,12.578,9.07,16.261,11.695
							c0.663,0.473,1.34,0.281,1.754-0.051c0.419-0.34,0.751-0.971,0.426-1.727l-19.503-45.396l-1.299,0.982l-2.979-8.182
							l-27.245,24.277c-1.586,1.414-3.231,2.715-4.892,3.859l-22.171,15.287c-5.64,3.889-11.204,5.314-15.665,4.023
							c-3.029-0.879-5.325-2.973-6.641-6.061l-1.169-2.746c-8.705-20.428-10.804-46.678-6.064-75.91l2.761-17.041L322.407,327.238z"
							/>
					</g>
					<g id="XMLID_48_">
						<path id="XMLID_214_" style="fill:#00A89F;" d="M352.602,317.32l-7.468,4.621c-4.305,2.664-7.934,1.27-8.104-3.113
							l-0.416-10.648l23.058-14.267l0.416,10.649C360.258,308.945,356.906,314.656,352.602,317.32z"/>
						<path id="XMLID_215_" style="fill:#191410;" d="M341.034,324.352c-0.874,0-1.686-0.188-2.399-0.568
							c-1.63-0.867-2.576-2.611-2.666-4.912l-0.439-11.27l25.132-15.549l0.486,12.469c0.187,4.799-3.321,10.815-7.988,13.701
							l-7.468,4.621C344.079,323.842,342.474,324.352,341.034,324.352z M337.697,308.757l0.393,10.032
							c0.041,1.07,0.343,2.482,1.541,3.119c1.206,0.643,3.009,0.328,4.944-0.869l7.469-4.621c3.939-2.436,7.138-7.846,6.983-11.813
							l-0.347-8.832L337.697,308.757z"/>
					</g>
					<path id="XMLID_166_" style="fill:#00A89F;" d="M305.991,406.783l2.464-17.25l-8.177-4.783l-5.845,8.23
						c-3.511,4.943-4.115,10.465-1.376,12.592l16.413,12.748l8.176,4.783L305.991,406.783z"/>
					<path id="XMLID_54_" style="fill:#191410;" d="M434.416,340.914l-17.825-33.395c-2.124-3.982-3.518-8.682-4.138-13.967
						l-0.032-0.273l-6.754-9.377l-39.971,25.684l1.502,19.352c0.529,6.779,2.211,12.705,5.002,17.615l12.942,22.773l23.172,11.721
						l13.073-19.479c1.816-1.182,3.417-2.523,4.886-4.088C430.889,354.904,438.336,348.258,434.416,340.914z"/>
					<g id="XMLID_43_">
						<path id="XMLID_154_" style="fill:#00A89F;" d="M384.547,298.735l2.954,37.944c0.515,6.604,2.16,12.412,4.866,17.174
							L413,390.16c4.976,8.754,18.206,6.152,29.216-5.744l0,0c10.399-11.24,15.023-26.717,10.507-35.18l-17.824-33.393
							c-2.186-4.096-3.619-8.927-4.257-14.342l-3.539-30.109L384.547,298.735z"/>
						<path id="XMLID_155_" style="fill:#191410;" d="M422.299,396.41c-0.562,0-1.113-0.031-1.655-0.092
							c-3.757-0.436-6.719-2.383-8.566-5.635l-20.633-36.307c-2.791-4.908-4.473-10.836-5.002-17.615l-3.002-38.577l44.518-28.603
							l3.737,31.797c0.622,5.285,2.016,9.984,4.14,13.967l17.823,33.395c4.723,8.844,0.038,24.83-10.663,36.396
							C436.367,392.299,428.762,396.41,422.299,396.41z M385.653,299.285l2.906,37.311c0.504,6.467,2.095,12.096,4.73,16.732
							l20.633,36.307c1.499,2.639,3.908,4.221,6.965,4.574c6.016,0.707,13.902-3.33,20.548-10.514
							c10.128-10.945,14.674-25.859,10.351-33.957l-17.823-33.395c-2.25-4.215-3.722-9.168-4.375-14.718l-3.342-28.423
							L385.653,299.285z"/>
					</g>
					<g id="XMLID_53_">
						<path id="XMLID_150_" style="fill:#00A89F;" d="M366.114,326.896l-7.47,4.621c-4.304,2.664-7.933,1.271-8.104-3.111
							l-0.502-7.5l23.566-15.141l-0.007,8.374C373.771,318.523,370.419,324.234,366.114,326.896z"/>
						<path id="XMLID_151_" style="fill:#191410;" d="M354.547,333.93c-0.874,0-1.686-0.189-2.399-0.568
							c-1.63-0.867-2.577-2.611-2.668-4.914l-0.542-8.094l25.73-16.531l-0.008,10.318c0.187,4.754-3.321,10.771-7.988,13.66
							l-7.468,4.619C357.591,333.42,355.985,333.93,354.547,333.93z M351.138,321.463l0.461,6.873
							c0.045,1.102,0.346,2.514,1.545,3.15c1.207,0.643,3.012,0.326,4.944-0.871l7.468-4.619c4.009-2.48,7.14-7.781,6.982-11.814
							l0.004-6.473L351.138,321.463z"/>
					</g>
					<path id="XMLID_146_" style="fill:#00A89F;" d="M395.567,202.551c1.115,0.268,2.141,0.701,3.06,1.295l0,0l-30.809-17.439
						c-1.348-0.763-2.788-1.346-4.287-1.733l-36.956-9.58c-0.241-0.062-0.375,0.268-0.158,0.391l31.941,18.119L395.567,202.551z"/>
					<path id="XMLID_271_" style="fill:#FFEECC;" d="M395.567,206.688c1.115,0.27,2.141,0.703,3.06,1.295l0,0l-30.809-17.438
						c-1.348-0.764-2.788-1.346-4.287-1.734l-36.956-9.58c-0.241-0.062-0.375,0.268-0.158,0.391l31.941,18.119L395.567,206.688z"/>
					<path id="XMLID_138_" style="fill:#00A89F;" d="M446.4,334.764l-0.207-12.744l9.99-12.207L429.8,294.387l0,0l0.831,7.062
						c0.636,5.415,2.069,10.245,4.255,14.342l0.013,0.054l-20.068,24.592c-4.139,5.074-4.716,12.176-1.447,17.852l2.753,4.779
						c0.768,1.334,1.809,2.369,2.999,3.104l0,0l0.009,0.006c0.065,0.041,0.137,0.072,0.205,0.111l11.222,6.129
						c0.346,0.189,0.779,0.033,0.925-0.334l7.082-17.729l10.153-12.596l-2.931-5.492L446.4,334.764z"/>
					<path id="XMLID_277_" style="fill:#FFEECC;" d="M364.948,196.244l-26.467-15.115l-7.037-1.823
						c-4.206-1.012-9.879,1.484-14.798,6.512l-19.938,20.378c-3.636,3.715-5.541,9-4.443,12.318l1.725,5.225l31.255,17.641
						l16.703-33.396L364.948,196.244z"/>
					<path id="XMLID_202_" style="fill:#00A89F;" d="M326.53,182.549c-0.056-0.062-26.583-34.185-26.583-34.185
						c-3.152-4.054-7.529-6.592-12.808-7.429l-82.32-13.713l-6.663,29.927l69.582,10.122c6.187,0.929,11.135,4.178,14.356,9.424
						c0,0,18.442,30.069,19.493,31.106c5.048,4.987,14.724,3.377,21.611-3.596C330.087,197.23,331.485,187.979,326.53,182.549z"/>
					<path id="XMLID_273_" style="fill:#FFEECC;" d="M296.784,151.946c-3.154-4.054-7.53-6.593-12.81-7.429l-74.407-12.396
						l1.323,9.532l70,11.545c6.186,0.929,9.976,3.55,12.857,8.123c0,0,18.739,28.188,19.788,29.225
						c0.873,0.863,1.716,1.747,2.565,2.555c4.564,4.339,11.533-2.206,7.332-6.896c-0.022-0.023-0.044-0.049-0.066-0.074
						C323.312,186.069,296.784,151.946,296.784,151.946z"/>
					<path id="XMLID_204_" style="fill:#191410;" d="M327.34,181.86c-0.834-1.062-26.296-33.814-26.556-34.148
						c-3.301-4.246-7.963-6.953-13.471-7.825l-83.312-13.878l-7.13,32.024l70.709,10.283c5.856,0.881,10.562,3.969,13.609,8.931
						c4.342,7.08,18.593,30.262,19.651,31.309c2.132,2.105,5.035,3.207,8.351,3.207c0.869,0,1.767-0.076,2.686-0.229
						c4.302-0.717,8.591-3.055,12.077-6.586C331.188,197.625,332.64,187.708,327.34,181.86z M205.638,128.433l81.336,13.55
						c5.046,0.799,9.129,3.165,12.137,7.032c25.902,33.321,26.581,34.185,26.636,34.248c2.307,2.529,3.077,6.006,2.442,9.667
						c-4.735,9.016-15.05,8.064-19.934,3.239c-1.05-1.037-18.453-29.07-18.453-29.07c-3.221-5.245-8.169-8.494-14.355-9.424
						l-57.207-10.207c-1.44,4.425-3.954,8.075-6.969,10.516l-11.829-1.72L205.638,128.433z"/>
					<path id="XMLID_198_" style="fill:#00A89F;" d="M209.971,124.233c-0.961-0.267-1.939-0.392-2.916-0.392l-14.618-1.961
						l-7.586,36.962l15.335,2.187c7.463,1.764,15.631-4.677,18.396-14.633C221.398,136.258,217.543,126.335,209.971,124.233z"/>
					<path id="XMLID_278_" style="fill:#FFEECC;" d="M206.612,128.462c-0.963-0.267-1.94-0.393-2.918-0.392l-14.557-1.953
						l-6.38,31.088l15.334,2.188c7.089,1.675,14.802-4.058,17.931-13.167C216.816,137.76,213.077,130.257,206.612,128.462z"/>
					<path id="XMLID_276_" style="fill:#191410;" d="M210.255,123.21c-1.031-0.286-2.088-0.422-3.058-0.419l-15.599-2.093
						l-8.013,39.038l16.357,2.329c0.923,0.217,1.853,0.324,2.782,0.324c7.211-0.002,14.287-6.37,16.88-15.708
						C222.573,135.995,218.378,125.466,210.255,123.21z M193.278,123.064l13.779,1.839c0.006,0,0.011,0,0.016,0
						c0.894,0,1.774,0.119,2.615,0.353c5.474,1.521,8.809,7.582,8.739,14.723c-3.792,6.233-9.939,9.76-15.686,8.402l-14.242-2.031
						L193.278,123.064z"/>
					<g id="XMLID_69_">
						
							<ellipse id="XMLID_194_" transform="matrix(0.9635 0.2676 -0.2676 0.9635 44.4988 -45.43)" style="fill:#00A89F;" cx="188.927" cy="140.546" rx="14.227" ry="19.051"/>
						<path id="XMLID_195_" style="fill:#191410;" d="M186.707,160.354c-1.059,0-2.117-0.139-3.161-0.429
							c-8.123-2.256-12.317-12.785-9.35-23.47c1.423-5.123,4.262-9.534,7.993-12.42c3.823-2.959,8.129-3.974,12.119-2.868
							c3.992,1.109,7.155,4.201,8.906,8.706c1.709,4.398,1.867,9.642,0.443,14.763C201.071,153.948,193.887,160.354,186.707,160.354
							z M191.11,122.855c-2.557,0-5.189,0.975-7.623,2.858c-3.372,2.609-5.946,6.625-7.247,11.31
							c-2.654,9.557,0.878,18.914,7.872,20.857c7.001,1.951,14.847-4.255,17.5-13.812c1.301-4.684,1.167-9.452-0.378-13.426
							c-1.502-3.866-4.165-6.505-7.495-7.43C192.881,122.973,192,122.855,191.11,122.855z"/>
					</g>
					
						<ellipse id="XMLID_190_" transform="matrix(0.9636 0.2675 -0.2675 0.9636 44.4825 -45.4174)" style="fill:#00A89F;" cx="188.927" cy="140.546" rx="8.798" ry="11.781"/>
					<g id="XMLID_68_">
						<path id="XMLID_270_" style="fill:#00A89F;" d="M210.566,159.532l-0.918-1.35c0.056-0.038,5.619-3.902,7.812-10.958
							l1.56,0.484C216.65,155.329,210.813,159.364,210.566,159.532z"/>
					</g>
					<path id="XMLID_279_" style="fill:#FFEECC;" d="M194.152,147.824L180.415,145c0.87,2.9,2.757,5.116,5.357,5.838
						C188.683,151.646,191.795,150.393,194.152,147.824z"/>
					<path id="XMLID_8481_" style="fill:#191410;" d="M198.139,133.8c-1.129-2.909-3.181-4.908-5.776-5.628
						c-5.236-1.458-11.041,2.912-12.936,9.736c-0.902,3.251-0.8,6.584,0.288,9.384c1.13,2.908,3.182,4.907,5.777,5.627
						c0.68,0.189,1.369,0.279,2.058,0.279c4.62,0,9.229-4.078,10.877-10.015C199.33,139.933,199.228,136.6,198.139,133.8z
						 M186.059,150.874c-1.934-0.537-3.484-2.082-4.366-4.35c-0.753-1.939-0.913-4.198-0.533-6.492l15.191,2.682
						C194.743,148.352,190.141,152.01,186.059,150.874z"/>
					<path id="XMLID_147_" style="fill:#191410;" d="M398.104,204.768l-0.915-0.518c-0.585-0.285-1.21-0.51-1.87-0.668
						l-37.482-9.057l-31.942-18.12c-0.562-0.318-0.795-0.984-0.553-1.584c0.24-0.601,0.883-0.918,1.499-0.757l36.957,9.579
						c1.59,0.414,3.119,1.032,4.544,1.84l29.84,16.89c0.352,0.175,0.693,0.369,1.021,0.58L398.104,204.768z M358.753,192.605
						l31.059,7.469l-22.516-12.745c-1.265-0.715-2.622-1.264-4.031-1.631l-30.729-7.965L358.753,192.605z"/>
					<path id="XMLID_280_" style="fill:#FFEECC;" d="M292.35,285.737l27.505,15.536l10.179-24.195l-33.243-19.842
						c-0.002,2.207-0.336,4.602-1.081,7.126l-5.971,19.896L292.35,285.737z"/>
					<g id="XMLID_74_">
						<path id="XMLID_174_" style="fill:#00A89F;" d="M322.667,308.913l-1.591-6.951l-15.809-8.981l-0.645,0.604l-18.274,19.933
							c-7.272,7.934-12.356,18.039-13.643,27.115c-0.101,0.705,0.102,1.188,0.462,1.438l0.03,0.037
							c0.03,0.018,0.059,0.033,0.091,0.049l16.299,8.303L322.667,308.913z"/>
						<path id="XMLID_86_" style="fill:#FFEECC;" d="M324.512,317.605l-1.59-6.951l-15.808-8.98l-0.646,0.604l-18.273,19.935
							c-7.273,7.932-9.289,12.082-10.575,21.158c-0.101,0.705,0.102,1.188,0.462,1.438c0,0,0.091,0.07,0.121,0.086l12.456,6.119
							L324.512,317.605z"/>
					</g>
					<path id="XMLID_223_" style="fill:#191410;" d="M320.669,302.793l-33.459-18.906c-2.47-0.972-3.412-4.145-2.27-8.021
						l7.76-26.305c0.688-2.33,1.037-4.627,1.037-6.826v-1.869l35.272,21.051l3.967,9.946L320.669,302.793z M295.789,244.561
						c-0.142,1.833-0.494,3.709-1.054,5.601l-7.76,26.304c-0.798,2.707-0.337,4.922,1.149,5.513l31.47,17.772l11.099-27.887
						l-3.39-8.492L295.789,244.561z"/>
					<g id="XMLID_41_">
						<path id="XMLID_210_" style="fill:#00A89F;" d="M319.614,233.033l7.861,23.79c1.068,3.233,0.923,7.422-0.413,11.952
							l-7.76,26.303c-0.976,3.305-0.275,5.984,1.773,6.8l2.487,0.989c1.851,0.736,3.164,2.302,3.781,4.508l4.675,16.691
							c1.157,4.135,5.441,4.92,10.189,1.871l91.363-58.701c4.93-3.168,8.482-9.951,7.589-14.492l-4.217-21.442
							c-0.414-2.109-1.417-3.726-2.905-4.685l-34.978-22.55c-0.92-0.593-1.944-1.026-3.06-1.294l-37.208-8.949
							c-4.206-1.012-9.879,1.485-14.797,6.512l-19.938,20.379C320.424,224.43,318.519,229.714,319.614,233.033z"/>
						<path id="XMLID_211_" style="fill:#191410;" d="M336.818,328.854c-0.81,0-1.578-0.135-2.289-0.404
							c-1.746-0.664-2.967-2.08-3.531-4.098l-4.675-16.691c-0.526-1.879-1.615-3.195-3.152-3.809l-2.487-0.986
							c-2.603-1.037-3.543-4.211-2.397-8.087l7.76-26.304c1.266-4.292,1.415-8.312,0.422-11.318l-7.861-23.791
							c-1.229-3.725,0.744-9.357,4.693-13.393l19.938-20.379c5.183-5.296,11.241-7.899,15.806-6.802l37.208,8.949
							c1.228,0.295,2.367,0.778,3.387,1.435l34.978,22.55c1.734,1.118,2.9,2.976,3.37,5.37l4.218,21.442
							c0.985,5.013-2.704,12.151-8.057,15.591l-91.363,58.701C340.701,328.168,338.654,328.854,336.818,328.854z M320.621,232.7
							l7.862,23.79c1.143,3.462,1.004,7.814-0.403,12.585l-7.76,26.306c-0.799,2.704-0.338,4.92,1.147,5.512l2.487,0.986
							c2.175,0.867,3.701,2.668,4.412,5.209l4.675,16.691c0.381,1.361,1.135,2.264,2.243,2.686c1.648,0.629,3.967,0.109,6.351-1.422
							l91.362-58.699c4.533-2.912,7.928-9.297,7.122-13.396l-4.217-21.442c-0.357-1.816-1.2-3.198-2.439-3.996l-34.978-22.551
							c-0.816-0.526-1.736-0.914-2.732-1.154l-37.208-8.949c-3.843-0.919-9.13,1.459-13.79,6.223l-19.938,20.379
							C321.502,224.845,319.658,229.784,320.621,232.7L320.621,232.7z"/>
					</g>
					<path id="XMLID_206_" style="fill:#00A89F;" d="M416.691,263.312l-42.376,27.321c-3.457,2.229-6.443,1.224-6.666-2.247
						l-0.834-12.927c-0.223-3.47,2.398-8.091,5.856-10.32l42.374-27.321c3.458-2.229,6.442-1.223,6.667,2.248l0.834,12.926
						C422.771,256.463,420.149,261.084,416.691,263.312z"/>
					<path id="XMLID_186_" style="fill:#00A89F;" d="M351.53,219.982c0.075-0.129,0.031-0.293-0.098-0.367l-6.906-3.934
						c0,0-2.063-0.279-3.296,0.432l-3.095,1.787c-3.031,1.75-5.51,6.486-5.51,10.527c0,1.89,0.558,3.279,1.444,4.073l0.068,0.071
						c0.282,0.235,0.588,0.428,0.931,0.537l6.234,3.607c0.176,0.102,0.4,0.042,0.502-0.133L351.53,219.982z"/>
					<g id="XMLID_77_">
						<path id="XMLID_178_" style="fill:#00A89F;" d="M413.378,250.42l-0.703-10.91l-40.003,25.791
							c-3.458,2.229-6.079,6.85-5.856,10.32l0.705,10.91l40.001-25.791C410.979,258.51,413.601,253.89,413.378,250.42z"/>
						<path id="XMLID_281_" style="fill:#FFEECC;" d="M410.467,257.646l-0.703-10.91l-40.003,25.791
							c-3.459,2.229-6.08,6.85-5.856,10.32l0.703,10.909l40.003-25.79C408.068,265.736,410.689,261.116,410.467,257.646z"/>
					</g>
					<polygon id="XMLID_71_" style="fill:#191410;" points="293.587,286.775 297.717,301.118 305.268,292.98 					"/>
					<path id="XMLID_274_" style="fill:#191410;" d="M328.146,262.839c0.108-2.147-0.108-4.125-0.671-5.831l-7.861-23.791
						c-0.387-1.17-0.382-2.592-0.077-4.097c-0.655-0.354-1.056-0.558-1.056-0.558l-32.709-18.135
						c-0.26,1.423-0.256,2.766,0.112,3.879l7.86,23.789c0.475,1.44,0.696,3.077,0.693,4.842l33.332,19.895L328.146,262.839z"/>
					<path id="XMLID_284_" style="fill:#FFEECC;" d="M341.037,219.015l-3.095,1.788c-2.652,1.531-4.883,5.352-5.396,8.99
						c0.202,1.202,0.674,2.12,1.333,2.708l0.068,0.071c0.282,0.236,0.587,0.428,0.93,0.537l6.235,3.607
						c0.174,0.102,0.398,0.042,0.501-0.133l8.587-14.66l-5.865-3.342C344.335,218.582,342.27,218.304,341.037,219.015z"/>
					<path id="XMLID_203_" style="fill:#191410;" d="M352.584,219.504c-0.093-0.344-0.314-0.632-0.627-0.811l-6.457-3.678
						l-0.832-0.385c-0.512-0.198-2.465-0.303-3.969,0.564l-3.095,1.787c-3.33,1.922-6.041,7.057-6.041,11.445
						c0,2.1,0.64,3.826,1.739,4.806l0.155,0.152c0.381,0.319,0.765,0.547,1.17,0.693l6.145,3.556c0.226,0.129,0.471,0.19,0.713,0.19
						c0.491,0,0.971-0.253,1.235-0.706l9.725-16.602l0.002-0.001C352.627,220.208,352.675,219.849,352.584,219.504z
						 M341.238,235.452l-1.434-0.829l1.567-8.426l-6.301-3.152c0.915-1.837,2.194-3.416,3.596-4.225l3.095-1.787
						c0.472-0.273,1.228-0.344,1.828-0.344c0.233,0,0.602,0.102,0.761,0.113l5.857,3.336L341.238,235.452z"/>
					<path id="XMLID_188_" style="fill:#191410;" d="M422.772,239.996c-0.122-1.873-0.946-3.287-2.322-3.979
						c-1.628-0.823-3.809-0.487-5.98,0.91l-42.374,27.321c-3.804,2.451-6.588,7.406-6.339,11.279l0.003,0.053
						c0.002,0.035-0.005,0.074-0.003,0.108l0.821,12.712l0.01-0.006l0.003,0.06c0.119,1.874,0.943,3.288,2.318,3.981
						c0.588,0.297,1.248,0.442,1.953,0.442c1.25,0,2.64-0.458,4.028-1.353l42.376-27.32c3.805-2.453,6.588-7.408,6.339-11.281
						L422.772,239.996z M367.877,275.452c-0.14-3.062,2.292-7.276,5.37-9.261l38.485-24.812l0.587,9.109
						c0.197,3.07-2.263,7.355-5.373,9.358l-38.475,24.808L367.877,275.452z M416.115,262.421L373.74,289.74
						c-1.499,0.968-2.951,1.268-3.875,0.801c-0.865-0.438-1.107-1.449-1.157-2.223l-0.08-1.239l39.47-25.448
						c2.193-1.413,4.023-3.664,5.152-6.055l6.016,3.763C418.383,260.567,417.297,261.66,416.115,262.421z"/>
					<path id="XMLID_181_" style="fill:#191410;" d="M322.005,301.27l-16.894-9.599l-19.546,21.131
						c-7.396,8.069-12.597,18.419-13.911,27.683c-0.147,1.027,0.163,1.902,0.85,2.416l17.375,8.896l33.619-42.223l0.317-0.399
						L322.005,301.27z M289.298,349.119l-0.674-0.344l2.402-8.332l-15.194-7.68c2.342-6.496,6.275-13.049,11.3-18.527l18.217-19.879
						l0.075-0.068l14.723,8.363l1.372,6L289.298,349.119z"/>
					<path id="XMLID_287_" style="fill:#FFEECC;" d="M300.733,391.4l-5.846,8.229c-1.167,1.645-1.981,3.346-2.49,4.971
						c0.274,0.885,0.746,1.625,1.427,2.152l16.413,12.748l0.928,0.541l-4.72-6.607l0.702-4.924l-0.39-0.547l1.718-12.033
						L300.733,391.4z"/>
					<path id="XMLID_167_" style="fill:#191410;" d="M316.111,423.434l-7.177-4.197l-16.527-12.824
						c-3.238-2.516-2.739-8.553,1.16-14.045l6.408-9.023l9.63,5.635l-2.503,17.533l10.733,15.031
						C318.657,422.691,317.329,424.146,316.111,423.434z M300.582,386.156l-5.282,7.438c-3.124,4.398-3.838,9.396-1.592,11.141
						l16.413,12.746l3.785,2.211l-9.026-12.637l2.424-16.963L300.582,386.156z"/>
					<g id="XMLID_78_">
						<path id="XMLID_162_" style="fill:#00A89F;" d="M314.167,411.566c-2.649-6.768-4.544-14.154-5.712-22.033l-5.846,8.23
							c-3.511,4.943-4.115,10.465-1.376,12.592l16.413,12.748c0.311,0.24,0.698,0.26,1.104,0.176L314.167,411.566z"/>
						<path id="XMLID_163_" style="fill:#191410;" d="M318.343,424.387c-0.513,0-0.965-0.148-1.347-0.445l-16.413-12.746
							c-3.239-2.514-2.74-8.553,1.161-14.045l6.409-9.021l1.351,1.25c1.167,7.867,3.069,15.203,5.652,21.801l5.043,12.889
							l-1.236,0.252C318.748,424.363,318.541,424.387,318.343,424.387z M307.815,392.266l-4.34,6.111
							c-3.125,4.4-3.838,9.398-1.592,11.141l14.856,11.539l-3.562-9.102C310.822,405.936,309.022,399.322,307.815,392.266z"/>
					</g>
					<g id="XMLID_83_">
						<polygon id="XMLID_283_" style="fill:#00A89F;" points="330.157,438.137 317.224,430.316 316.467,427.994 329.4,435.814 
													"/>
					</g>
					<polygon id="XMLID_290_" style="fill:#00A89F;" points="404.595,378.418 403.696,376.957 386.654,368.338 385.245,369.59 
						385.285,369.658 404.899,379.578 404.955,379.494 					"/>
					<path id="XMLID_288_" style="fill:#00A89F;" d="M344.804,401.898l-1.489,7.699c-0.312,1.83-0.954,4.381-2.215,6.338l0.917,1.35
						c1.308-1.771,2.271-4.266,2.811-7.43l1.743-9.172L344.804,401.898z"/>
					<path id="XMLID_292_" style="fill:#FFEECC;" d="M447.743,344.404l-0.913-1.713l0.601-1.504l-0.022-1.391l-1.316-2.469
						l0.599-1.504l-0.205-12.744l7.259-8.87l-22.914-13.397l0,0l2.344,7.957c0.207,1.76,0.341,3.352,0.499,4.854
						c0.453,1.121,0.955,2.199,1.505,3.227l0.012,0.055l-0.844,1.035c0.338,1.449,0.813,2.854,1.57,4.275l0.013,0.053
						l-20.068,24.594c-2.223,2.723-3.382,6.035-3.506,9.395c0.338,1.059,0.749,2.102,1.32,3.092l2.752,4.781
						c0.768,1.332,1.81,2.369,2.999,3.102v0.002l0.008,0.004c0.066,0.041,0.137,0.072,0.205,0.113l11.222,6.129
						c0.346,0.189,0.779,0.033,0.926-0.334l7.081-17.73L447.743,344.404z"/>
					<path id="XMLID_159_" style="fill:#191410;" d="M447.466,334.961l-0.206-12.57l10.184-12.441l-0.487-0.916l-28.459-16.637
						l1.08,9.175c0.621,5.294,1.989,10.046,4.067,14.131l-19.637,24.062c-4.39,5.381-5.01,13.037-1.545,19.053l2.753,4.779
						c0.831,1.445,1.963,2.615,3.369,3.482l11.479,6.271c0.255,0.139,0.537,0.209,0.82,0.209c0.198,0,0.396-0.035,0.586-0.104
						c0.462-0.166,0.83-0.523,1.011-0.977l7.022-17.584l10.496-13.018l-3.03-5.672L447.466,334.961z M447.464,341.639l-9.713,12.049
						l-7.072,17.58l-3.866-2.111l-4.957-13.27l-9.463-5.113c-0.08-3.447,1.005-6.9,3.261-9.666l20.068-24.592l0.317-0.459
						l-0.12-0.51l-0.097-0.256c-2.124-3.981-3.518-8.683-4.138-13.968l-0.582-4.946l23.473,13.725l-9.448,11.547l0.209,12.92
						l-0.705,1.764L447.464,341.639z"/>
					<g id="XMLID_133_">
						<path id="XMLID_40_" style="fill:#00A89F;" d="M456.196,309.867l-30.069,36.738c-4.141,5.074-4.717,12.178-1.448,17.852
							l2.752,4.779c3.093,5.371,10.614,5.959,14.503,1.135l23.382-28.785c2.855-3.518,3.325-8.404,1.192-12.402L456.196,309.867z"/>
						<path id="XMLID_135_" style="fill:#191410;" d="M435.072,374.715c-0.256,0-0.513-0.01-0.77-0.029
							c-3.251-0.254-6.164-2.092-7.792-4.918l-2.752-4.779c-3.465-6.016-2.844-13.672,1.545-19.053l30.671-37.475l0.981,0.574
							l10.487,19.65c2.341,4.385,1.829,9.709-1.304,13.57l-23.382,28.785C440.876,373.373,438.046,374.715,435.072,374.715z
							 M456.01,311.771l-29.062,35.511c-3.836,4.697-4.378,11.389-1.349,16.648l2.752,4.779c1.297,2.252,3.527,3.658,6.116,3.859
							c2.596,0.191,5.01-0.842,6.641-2.865l23.383-28.787c2.595-3.193,3.019-7.602,1.081-11.232L456.01,311.771z"/>
					</g>
					<polygon id="XMLID_285_" style="fill:#191410;" points="465.661,449.268 469.833,458.846 462.728,462.723 448.073,461.664 
						441.266,451.623 444.087,452.727 453.418,453.785 459.8,451.602 					"/>
					<g id="XMLID_291_">
						<path id="XMLID_293_" style="fill:#00A89F;" d="M457.645,464.676c-1.325,0-2.22-0.139-2.308-0.15l0.256-1.613
							c0.046,0.006,4.869,0.73,8.783-1.414l0.784,1.432C462.526,464.375,459.61,464.676,457.645,464.676z"/>
					</g>
					<g id="XMLID_70_">
						<path id="XMLID_182_" style="fill:#00A89F;" d="M348.287,234.826l-3.095,1.787c-3.031,1.75-5.51-0.125-5.51-4.164l0,0
							c0-4.041,2.479-8.777,5.51-10.527l3.095-1.786c3.029-1.75,5.509,0.124,5.509,4.165l0,0
							C353.796,228.34,351.316,233.077,348.287,234.826z"/>
						<path id="XMLID_183_" style="fill:#191410;" d="M343.015,238.332c-0.695,0-1.354-0.172-1.951-0.518
							c-1.552-0.896-2.443-2.852-2.443-5.366c0-4.389,2.711-9.523,6.041-11.445l3.095-1.787c1.662-0.959,3.315-1.06,4.659-0.283
							c1.552,0.896,2.442,2.853,2.442,5.368c0,4.387-2.71,9.521-6.039,11.445l-3.095,1.785
							C344.8,238.064,343.88,238.332,343.015,238.332z M350.457,220.539c-0.593,0-1.183,0.252-1.639,0.516l-3.095,1.787
							c-2.699,1.557-4.979,5.956-4.979,9.606c0,1.711,0.515,3.029,1.379,3.528c0.852,0.49,1.848,0.117,2.538-0.283l3.095-1.786
							c2.699-1.559,4.978-5.958,4.978-9.606c0-1.711-0.515-3.031-1.38-3.529C351.066,220.605,350.762,220.539,350.457,220.539z"/>
					</g>
					<g id="XMLID_76_">
						<path id="XMLID_170_" style="fill:#00A89F;" d="M327.345,307.459c-0.617-2.207-1.931-3.771-3.781-4.509l-2.487-0.988
							c-0.058-0.023-0.103-0.062-0.156-0.087l-18.275,19.934c-7.271,7.932-12.356,18.037-13.645,27.113
							c-0.214,1.514,0.877,2.117,2.226,1.229l40.585-26.748L327.345,307.459z"/>
						<path id="XMLID_171_" style="fill:#191410;" d="M290.049,351.629c-0.411,0-0.797-0.107-1.138-0.324
							c-0.771-0.488-1.12-1.41-0.96-2.529c1.312-9.262,6.513-19.611,13.911-27.684l18.802-20.51l0.884,0.43l2.407,0.954
							c2.175,0.864,3.701,2.665,4.412,5.206l4.675,16.691l-41.232,27.174C291.213,351.43,290.608,351.629,290.049,351.629z
							 M321.19,303.148l-17.763,19.377c-7.121,7.77-12.121,17.691-13.375,26.547c-0.042,0.289,0.004,0.438,0.023,0.467
							c-0.005-0.027,0.214-0.043,0.566-0.275l39.938-26.318l-4.257-15.201c-0.526-1.879-1.615-3.195-3.152-3.808L321.19,303.148z"/>
					</g>
				</g>
			</g>
		</g>
	</g>
</g>
</svg>
