
<svg width="300px" height="300px" viewBox="0 0 300 300" version="1.1" xmlns="http://www.w3.org/2000/svg" xmlns:xlink="http://www.w3.org/1999/xlink">
    <!-- Generator: Sketch 50.2 (55047) - http://www.bohemiancoding.com/sketch -->
    <desc>Created with Sketch.</desc>
    <defs></defs>
    <g id="logos" stroke="none" stroke-width="1" fill="none" fill-rule="evenodd">
        <g id="generali-colour-copy" fill="#FFFFFF">
            <path d="M227.055689,178.860884 C227.665824,177.294002 228.855588,176.301508 230.496851,175.984884 L247.125068,172.282821 L245.622101,157.480657 L245.573291,157.159974 C245.1645,155.221667 243.925926,149.313385 236.201615,148.682167 C206.477865,146.289222 199.581304,141.890992 192.359338,137.232968 C192.347135,137.212672 192.336966,137.186286 192.328831,137.16599 L192.286122,137.186286 L191.818351,136.88387 C184.100142,131.901104 176.432777,131.860511 175.680277,131.880807 C167.262446,131.886896 156.607453,135.211447 155.739027,135.487478 C153.168324,136.240474 150.764392,137.011737 148.437743,137.754586 C139.131149,140.742216 131.087534,143.330007 117.583209,142.928138 L115.11623,142.855071 L114.481689,145.233809 C113.993581,147.064544 110.214811,161.964131 113.861385,171.537943 C110.593095,174.107467 110.595128,177.08089 110.613432,177.478699 C110.747662,180.752509 109.972791,181.560305 109.716534,181.824159 C108.156622,183.437722 102.980642,183.648805 98.6181757,183.648805 C98.6039392,183.648805 98.5856351,183.648805 98.5652973,183.648805 L96.9769122,183.648805 L96.0413716,184.931538 C93.3547432,188.623453 87.5462568,189.488079 83.8264662,188.546326 C82.1892703,183.581827 82.1485946,179.7864 83.7227432,177.521322 C85.5856892,174.848286 89.5332635,174.558048 91.1419865,174.558048 L92.077527,174.558048 C96.0251014,174.558048 99.2384797,171.334979 99.2384797,167.375152 L99.2384797,140.701623 C100.44248,138.848562 101.406493,136.711351 102.24848,134.306227 C108.770824,133.267052 113.765797,127.742371 113.765797,121.103419 C113.765797,118.554191 113.011264,116.092238 111.65473,113.987501 C117.684899,111.091205 122.840541,105.172775 122.840541,97.4154907 C122.840541,89.6582067 118.929574,86.1002478 115.213851,83.7702211 C116.263284,80.7907096 117.989966,75.556268 119.163459,70.2812337 L124.382149,51.6288422 C126.716932,44.3140196 132.81625,39.5890177 139.930426,39.5890177 L231.853385,39.5890177 C227.964791,45.0548382 222.439,47.6405996 214.781804,47.6405996 L159.15375,47.6405996 L156.249507,53.8492683 L206.101615,53.8492683 C202.184547,60.0660556 196.449277,62.9948261 188.306007,62.9948261 L152.157534,62.9948261 L149.253291,69.2055245 L181.507068,69.2055245 C177.600169,75.1909328 171.927946,78.0182213 163.935176,78.0182213 L144.229845,78.0182213 L141.325601,84.2268901 L161.978676,84.2268901 C162.167818,84.4826247 162.686432,85.4243777 162.686432,87.9431609 C162.686432,91.9293738 159.324588,95.1788275 155.191939,95.1788275 C153.772358,95.1788275 152.562257,94.8520554 150.434919,93.9894584 C149.523784,93.6017972 148.610615,93.2161656 147.695412,92.830534 L142.901784,97.1232226 C143.798682,97.5047949 144.695581,97.8823079 145.59248,98.2618506 L145.59248,98.2659099 C149.743432,100.060112 152.053811,100.995776 155.191939,100.995776 C158.995115,100.995776 162.424074,99.4248343 164.85648,96.9161993 C168.397297,97.143519 174.106128,97.6143954 179.633953,98.0629459 C186.24375,98.6068894 192.483399,99.1183587 195.70898,99.2888484 C197.323804,99.3781526 198.836939,99.4532493 200.284993,99.522257 C203.026534,99.6562133 205.534189,99.7800213 208.041845,99.9626889 C220.588257,120.291563 227.019081,122.964599 251.31873,125.871043 C253.069818,129.000748 254.648034,132.313121 256.151,135.64376 L256.151,175.229858 L256.159135,175.457178 C256.293365,177.277765 256.293365,177.892746 256.043209,178.223577 C255.201223,179.325672 251.450926,180.888495 250.14727,181.426349 L229.667068,189.130863 C226.951966,185.459244 225.97575,181.627284 227.055689,178.860884 Z M222.624074,189.611887 L182.133473,189.611887 L199.485716,171.334979 C202.989926,167.72019 204.106473,163.376761 202.63198,159.110458 C201.789993,156.648504 199.499953,151.931621 197.112291,147.094989 C204.000716,150.289642 214.444196,153.161583 235.693169,154.87054 C238.253703,155.081622 238.930953,155.950308 239.437365,158.272216 L240.368838,167.425893 L229.262345,169.897994 C225.544588,170.632724 222.622041,173.074381 221.243135,176.610014 C219.721865,180.510982 220.24048,185.102027 222.624074,189.611887 Z M149.592932,189.611887 C148.470284,185.215687 148.927885,181.70441 150.93523,179.412946 C152.857155,177.216876 155.808176,176.549124 157.894838,176.849511 L169.729426,179.041522 L170.028392,179.092263 L171.675757,179.092263 L180.038676,170.094869 L180.115959,170.011654 C181.545709,168.351408 185.891905,163.319931 181.454189,156.902209 L170.276514,138.51773 C172.127257,138.257936 173.984101,138.091506 175.702649,138.091506 L175.777899,138.087447 C175.834845,138.097595 181.439953,138.008291 187.445716,141.497242 C188.257196,143.236643 189.390014,145.530136 190.648926,148.077335 C192.995912,152.824662 195.918459,158.732945 196.731973,161.121831 C196.990264,161.872798 197.781405,164.152083 194.980885,167.042291 L173.552939,189.611887 L149.592932,189.611887 Z M146.237189,175.329311 C143.979689,177.908983 141.789304,182.402606 143.210919,189.611887 L105.089676,189.611887 C109.181649,189.207989 112.159108,188.252029 114.215264,186.120907 C116.710716,183.531086 116.932399,179.987334 116.84698,177.458403 C116.930365,177.237172 117.345257,176.382694 119.210236,175.540393 L122.494797,174.046578 L120.526095,171.020385 C117.270007,166.025441 118.689588,155.108007 119.950534,149.17537 C120.050189,149.17537 120.147811,149.17537 120.245432,149.17537 C133.174196,149.17537 141.535081,146.496245 150.3495,143.666927 C152.649709,142.928138 155.023135,142.167023 157.528757,141.438382 L157.604007,141.411997 C157.656885,141.39576 160.233689,140.579844 163.741966,139.7619 L176.172453,160.200374 L176.284311,160.372894 C177.522885,162.136651 177.677453,163.299634 175.42402,165.921929 L169.194541,172.62786 L158.982912,170.736235 L158.889358,170.719998 C154.276736,170.011654 149.310236,171.822093 146.237189,175.329311 Z M78.6037095,173.983659 C75.9516554,177.785175 75.6303176,183.033824 77.6254595,189.611887 L71.1824324,189.611887 L71.1824324,139.427009 C73.490777,139.073852 75.974027,138.414219 78.2844054,137.362865 C78.1542432,139.552847 77.8512095,141.28007 77.4424189,143.59386 C77.3488649,144.131714 77.2512432,144.693925 77.1495541,145.290639 L76.52925,148.913546 L80.2205676,148.913546 C85.7341554,148.913546 89.8464662,148.052979 93.0069662,146.423178 L93.0069662,167.375152 C93.0069662,167.913006 92.5900405,168.347349 92.077527,168.347349 L91.1419865,168.347349 C85.6670405,168.347349 81.0950946,170.399315 78.6037095,173.983659 Z M64.9448176,184.172452 L35.5912162,176.549124 L6.23558108,184.172452 L6.23558108,131.775266 L35.5912162,124.170205 L64.9448176,131.775266 L64.9448176,184.172452 Z M10.0041824,189.611887 L35.5912162,182.966846 L61.1762162,189.611887 L10.0041824,189.611887 Z M20.2402162,112.47136 C21.4645541,110.602062 24.2711757,108.988498 27.7774189,109.59536 L30.4355743,110.056089 L31.2714595,107.502801 C31.4972095,106.816783 31.7982095,106.313432 32.2131014,105.919682 C32.9615338,105.215397 34.0740135,104.884566 35.4935946,104.923129 C39.2438919,105.044907 43.946,107.650965 47.7593446,111.736631 C49.1484189,113.222327 50.3768243,114.943462 51.4750676,116.686922 C51.6865811,117.054287 51.9306351,117.448037 52.1543514,117.793076 C52.4594189,118.28019 52.7177095,118.677999 52.7726216,118.771363 C52.9068514,119.008831 54.7942027,121.838149 54.6640405,122.018787 C55.9534595,120.214437 57.2428784,118.403998 58.5322973,116.601678 C58.5689054,116.548907 58.5119595,116.382476 58.4021351,116.149068 C58.1133378,115.527998 57.4279527,114.452289 57.0191622,113.817011 C56.9235743,113.660729 56.8218851,113.506477 56.7242635,113.350194 C56.7181622,113.340046 56.7079932,113.325839 56.7039257,113.313661 C56.6652838,113.250742 56.4903784,112.9808 56.2625946,112.627642 C55.8334662,111.957861 55.2172297,110.983634 54.9447027,110.449839 L63.0696689,97.4905874 C65.0953176,97.9107229 66.822,97.9756714 67.6436486,97.9756714 L67.8449932,97.9756714 C79.2972297,97.9756714 91.1460541,91.381371 91.1460541,80.3462184 L91.1440203,80.0762763 C91.0016554,77.0724091 90.4382973,74.2045278 89.9847635,71.9008864 C89.6878311,70.380686 89.4051351,68.9497898 89.4051351,68.2333269 C89.4051351,67.0236615 91.1074122,65.6800398 93.5479527,65.6800398 L97.2555405,65.6800398 L95.5776689,56.1021687 C100.792291,52.2742677 103.993466,46.0412433 103.82873,40.0801906 C109.444007,44.3789681 113.405818,51.8318062 114.131878,59.7636392 C114.343392,62.065251 113.887824,65.2862897 113.141426,68.6737588 L112.742804,70.0904475 L112.809919,70.1107439 C111.481858,75.6394833 109.523324,81.3285642 108.488128,84.0239261 L107.530216,86.516324 L109.860932,87.8335603 C114.040358,90.1960613 116.609027,91.9232849 116.609027,97.4154907 C116.609027,103.713464 110.928669,108.541977 105.439486,109.564916 L97.9327905,110.967397 L104.28023,115.197167 C106.316047,116.552966 107.530216,118.761215 107.530216,121.103419 C107.530216,125.059187 104.160236,128.276167 100.015385,128.276167 L97.6236554,128.276167 L96.950473,130.468178 C94.617723,138.044824 92.0876959,141.748917 83.9484932,142.538447 C84.3247432,140.238865 84.5850676,138.024528 84.5850676,134.890764 C84.5850676,134.156034 84.5220203,132.09189 84.4894797,131.430227 L84.1274662,124.371139 L79.1528311,129.414795 C77.4627568,131.125781 74.4710608,132.48564 71.1824324,133.133095 L71.1824324,126.973138 L35.5912162,117.752483 L22.9288784,121.036441 C20.1039527,118.215241 19.5344932,113.553158 20.2402162,112.47136 Z M58.6726284,89.6602363 C58.7661824,89.2299526 59.1139595,88.8889731 59.4820743,88.8991213 L64.8390608,89.0696111 C71.3756419,88.8422914 78.0301824,86.1591073 78.7786149,79.3679319 C78.7786149,74.7707973 75.5103243,70.2954412 70.8916014,70.2954412 C68.4246216,70.2954412 65.6485068,71.9983091 62.5307162,74.0604233 C60.4969324,75.404045 58.8902432,76.4675764 57.6740405,76.4675764 C56.8483243,76.4675764 56.1853108,75.9195736 56.1853108,75.4689935 C56.1853108,75.3938968 56.1975135,75.3147409 56.2239527,75.2416738 L59.6488446,70.6668653 L56.6876554,68.683907 C56.0551486,68.2698604 55.0768986,67.494538 54.9670743,66.9160906 C54.9162297,66.6420892 55.3128176,66.1509163 55.4389122,66.0047822 C56.6612162,64.5779453 58.0685946,62.8385438 59.4922432,60.6932144 C60.3647365,59.4734007 60.8731824,58.8015899 62.335473,58.8015899 C63.7814932,58.8015899 64.9631216,59.9605143 64.9631216,61.3792327 C64.9631216,62.3209856 66.0003514,63.0638339 67.2857027,63.0638339 C68.5710541,63.0638339 69.1486486,62.1545551 69.9418243,61.3792327 C69.9418243,61.3792327 72.9965676,58.5844184 71.3797095,57.2631228 C69.5350676,55.7551003 62.1402297,58.8320345 64.1963851,52.0570962 L64.7088986,51.0909876 C65.5000405,50.045723 69.0367905,47.4335763 76.3441757,47.4335763 C77.7251149,47.4335763 79.1853716,47.5330287 80.6802027,47.7197555 L81.7743784,47.857771 L97.2840135,38.3144038 C97.4182432,38.6371166 97.4650203,38.8705252 97.4650203,38.8705252 L97.4812905,38.9638886 C98.2907365,43.6482977 95.3315811,49.2237188 90.6030338,51.9332882 L88.7075473,53.0150863 L89.9318851,59.9970478 C85.9497365,61.2148318 83.1736216,64.399337 83.1736216,68.2333269 C83.1736216,69.5505633 83.4786892,71.1154157 83.8671419,73.0902554 C84.3003378,75.2883555 84.7884459,77.7726349 84.9145405,80.2995367 C84.9145405,87.5656478 74.8717162,92.3698057 66.3725338,92.0958043 L66.1549189,92.0897154 C65.8030743,92.0775375 60.3932095,91.6513131 59.0671824,90.6060486 C58.8068581,90.4152624 58.6014459,89.9870084 58.6726284,89.6602363 Z M71.5241081,41.1863444 C72.5003243,39.9381158 74.092777,38.5579606 75.9963986,37.2995838 C77.4871622,36.3212973 79.4273919,35.4465225 81.3188108,34.9005493 C84.326777,34.0379523 87.7842095,33.9811224 91.3535,34.6651111 L80.3547973,41.4359901 C78.984027,41.295945 77.6396959,41.2228779 76.3441757,41.2228779 C74.4751284,41.2228779 72.7606486,41.3730713 71.1865,41.6267763 C71.3024257,41.4786126 71.4102162,41.3263896 71.5241081,41.1863444 Z M239.132297,39.5890177 L280.60725,39.5890177 C276.718655,45.0588975 271.186764,47.6405996 263.531601,47.6405996 L232.912986,47.6405996 C235.353527,45.5033887 237.43002,42.8161453 239.132297,39.5890177 Z M237.051736,62.9948261 L206.435155,62.9948261 C209.144155,60.6262362 211.397588,57.5655391 213.195453,53.8492683 L254.849378,53.8492683 C250.934345,60.0660556 245.197041,62.9948261 237.051736,62.9948261 Z M212.682939,78.0182213 L182.066358,78.0182213 C184.687905,75.7186392 186.886426,72.7695723 188.655818,69.2055245 L230.256865,69.2055245 C226.349966,75.1868735 220.677743,78.0182213 212.682939,78.0182213 Z M219.721865,101.332696 C229.42098,102.927993 237.362905,107.28563 243.327993,114.27774 C244.605209,115.775614 245.835649,117.368881 247.04575,119.092046 C230.728703,116.954835 225.050378,114.584215 215.926824,100.764397 C217.140993,100.924738 218.397872,101.109436 219.721865,101.332696 Z M284.827351,168.34126 C285.42325,169.30331 285.93373,170.208529 286.432007,171.077215 C287.040108,172.152924 287.633973,173.198189 288.335628,174.288105 C283.613182,173.993808 280.037791,171.381661 276.726791,166.447606 C279.777466,165.384075 283.470818,166.139101 284.827351,168.34126 Z M246.032926,189.611887 L252.396635,187.212853 L252.488155,187.182408 C261.522223,183.447871 262.807574,181.115814 262.384547,175.122287 L262.384547,150.886356 C269.256703,168.304727 275.754642,180.551574 289.077959,180.545485 C290.888027,180.545485 292.824189,180.324255 294.90475,179.853378 L300.103101,178.680246 L296.527709,174.744774 C294.245804,172.23005 293.137392,170.281596 291.860176,168.026666 C291.333426,167.10115 290.792439,166.14316 290.137561,165.083688 C287.017736,160.035973 279.604595,158.324987 273.598831,161.008171 C270.873561,155.609329 268.127953,148.568507 264.827122,139.881648 L264.107162,138.229521 C263.539736,136.932581 262.968243,135.625493 262.384547,134.316375 L262.384547,134.099204 L262.288959,134.099204 C260.240939,129.512218 258.058689,124.906964 255.451378,120.59195 C253.079986,116.672715 250.667919,113.293364 248.078912,110.259053 C241.129473,102.114107 231.934736,97.0501555 220.740791,95.2031831 C213.004277,93.9285692 207.52323,93.6606567 200.588027,93.3217069 C199.150142,93.2547287 197.649209,93.1776024 196.048622,93.0923575 C192.908459,92.9178085 186.420689,92.3901021 180.146466,91.8725439 C175.916196,91.5295347 171.578135,91.1763774 168.16748,90.9226724 C168.397297,89.9646823 168.531527,88.9721884 168.531527,87.9431609 C168.531527,86.5569168 168.403399,85.3269549 168.159345,84.2268901 L212.682939,84.2268901 C224.157547,84.2268901 232.465554,79.1629383 237.409682,69.1953763 C248.819209,69.0918646 257.068236,63.9264309 261.943216,53.8492683 L263.531601,53.8492683 C275.408899,53.8492683 283.904014,48.4402777 288.776959,37.7684307 L290.784304,33.3783193 L139.930426,33.3783193 C130.019797,33.3783193 121.577561,39.8325745 118.423162,49.8123144 L118.323507,50.1593828 C115.758905,43.0231686 111.062899,36.9646932 105.046966,33.3965861 C96.6840473,28.4280274 87.1659392,26.761693 79.5880608,28.9354374 C77.0804054,29.6600189 74.5849527,30.7864691 72.5572703,32.1219722 C70.8204189,33.2666892 68.3778446,35.105543 66.6064189,37.3685916 C64.6783919,39.8346042 62.8134122,42.8222342 61.4467095,45.6150189 C60.5803176,46.3274225 59.9051014,47.0560633 59.4393649,47.7644076 L57.6313311,51.1478175 L57.537777,51.3386036 C55.3758649,56.2097396 52.7461824,59.5830013 50.7022297,61.9698579 C48.6684459,64.3343885 48.564723,66.5791703 48.83725,68.0486297 C49.13825,69.6540749 50.0005743,70.9652224 50.9218784,71.953657 L50.869,72.0449908 C50.267,73.0801072 49.9517635,74.265417 49.9517635,75.4689935 C49.9517635,79.440999 53.4152973,82.4448661 57.6740405,82.4448661 C60.7714932,82.4448661 63.3035541,81.0038218 65.9800135,79.2339757 C67.0680878,78.5154831 69.9479257,76.6076215 70.8916014,76.5041099 C72.0874662,76.5041099 73.171473,77.5838784 73.171473,78.7732474 C73.171473,82.0267603 68.9676419,83.7823989 65.9535743,83.9995704 L59.8278176,84.6531145 C55.4185743,85.067161 53.3278446,87.3992174 53.3278446,89.4836576 C53.3278446,91.5782461 54.3345676,92.7574669 55.0341892,93.4556631 L55.4917905,93.9204507 L57.0456014,95.3026355 L50.5476622,105.743104 C45.9147027,101.462593 40.4967027,98.8707426 35.6908716,98.7205492 C32.58325,98.6170376 29.8986554,99.5527016 27.9218176,101.415911 C27.3482905,101.957825 26.8459459,102.576865 26.4188514,103.256795 C26.3822432,103.256795 26.3415676,103.256795 26.3049595,103.256795 C21.1716892,103.256795 17.0410743,105.996809 15.0174595,109.079832 C12.8189392,112.444975 13.6080473,118.274101 16.4024662,122.725101 L0,126.973138 L0,205.209671 L300.792554,205.209671 L300.792554,189.611887 L246.032926,189.611887 Z" id="Fill-9"></path>
            <polyline id="Fill-11" points="58.6158446 140.082219 39 135 39 141.413662 58.6158446 146.495881 58.6158446 140.082219"></polyline>
            <polyline id="Fill-12" points="13 146.50197 32.6138108 141.419751 32.6138108 135 13 140.088307 13 146.50197"></polyline>
            <polyline id="Fill-13" points="13 159.497911 32.6138108 154.419751 32.6138108 148 13 153.078159 13 159.497911"></polyline>
            <polyline id="Fill-14" points="58.6158446 153.078159 39 148 39 154.419751 58.6158446 159.497911 58.6158446 153.078159"></polyline>
            <polyline id="Fill-15" points="58.6158446 166.088307 39 161 39 167.417722 58.6158446 172.50197 58.6158446 166.088307"></polyline>
            <polyline id="Fill-16" points="13 172.50197 32.6138108 167.417722 32.6138108 161 13 166.088307 13 172.50197"></polyline>
            <g id="Group" transform="translate(0.000000, 219.000000)">
                <path d="M57.143223,25.2259615 L57.1737297,4.48257692 C70.1472365,4.48257692 74.9083243,3.82823077 77.1678581,19.7730769 L78.5386284,19.7730769 L78.5386284,2.02826923 L43.2057027,2.0405 L43.2057027,4.48257692 L49.3233243,4.48257692 L49.3233243,50.138 L42.5813311,50.138 L42.5813311,52.5433846 L78.9941959,52.5433846 L78.9941959,33.8853462 L77.1678581,33.8853462 C75.353723,47.9935385 71.7885,50.1441154 61.7782162,50.1441154 L57.143223,50.1441154 L57.143223,27.9595385 C57.2754189,27.9595385 58.9370203,27.9595385 59.8298514,27.9595385 C64.3184122,28.0716538 66.8748784,30.6971923 67.7900811,38.4392692 L69.4435473,38.4392692 L69.4293108,15.5045385 C69.3988041,15.5493846 67.8022838,15.5045385 67.8022838,15.5045385 C67.8022838,15.6186923 67.4829797,25.3686538 59.6325743,25.2259615 L57.143223,25.2259615" id="Fill-1"></path>
                <path d="M42.7053919,26.1391923 L22.772277,26.1391923 L22.772277,28.4018846 L29.5976554,28.4018846 L29.5976554,44.8196538 C28.4445,48.9903462 22.3167095,50.7311923 20.4903716,50.7311923 C7.75685135,50.7311923 8.67002027,32.0609231 8.67002027,27.0605769 C8.67002027,22.4903462 8.2144527,3.38180769 20.4903716,3.38180769 C29.1420878,3.38180769 33.6916622,12.0146923 35.5159662,19.769 L36.8969054,19.769 C36.8969054,16.5767692 36.94775,1.37596154 36.9172432,1.41265385 C36.94775,1.29442308 30.9867297,5.70157692 30.9663919,5.63430769 C31.1006216,5.60576923 28.2411216,1.54923077 20.4903716,1.54923077 C5.46477703,1.54923077 -0.0447432432,16.5767692 -1.2468325e-18,27.0605769 C0.0691486486,36.6556154 4.48245946,53 20.4903716,53 C25.5239865,53 29.0688716,50.4335769 30.9663919,47.5206154 C30.9867297,47.4574231 37.3117973,52.5250385 37.3321351,52.5433846 L37.3321351,28.4018846 L42.7053919,28.4018846 L42.7053919,26.1391923" id="Fill-3"></path>
                <path d="M216.850162,34.3215769 L224.118905,12.4916923 L231.865588,34.3215769 L216.850162,34.3215769 Z M188.621243,25.6071538 L180.447466,25.6071538 L180.447466,4.452 L190.901115,4.452 C197.039074,5.38357692 197.291264,12.4916923 197.291264,14.7543846 C197.291264,20.2256154 195.009358,25.6071538 188.621243,25.6071538 Z M275.62448,33.8853462 C273.810345,47.9935385 270.243088,50.1074231 260.236872,50.1074231 L259.626736,50.1074231 L259.626736,4.46219231 L265.996547,4.46219231 L265.996547,2.00176923 L245.056709,2.00176923 L245.056709,4.46219231 L251.42652,4.46219231 L251.42652,50.1074231 L246.374601,50.1074231 L227.773615,0.640076923 L225.034108,0.640076923 C225.095122,0.6095 209.581419,45.5229231 209.548878,45.6554231 C209.581419,45.5229231 208.379453,49.5101538 205.827054,50.0034615 C203.473966,50.1176154 203.644804,48.8863846 203.644804,48.4521923 L203.644804,39.803 C203.644804,37.5341923 203.473966,32.3748462 201.118845,30.0061538 C198.481027,27.3418846 193.972128,27.1461923 194.075851,27.0463077 C194.075851,27.0463077 205.511818,24.6776154 205.511818,13.7820385 C205.511818,6.14392308 200.213811,2.34830769 191.358716,2.01196154 L166.219115,2.01196154 L166.219115,4.47034615 L172.649939,4.47034615 L172.649939,50.1176154 C172.649939,50.1176154 166.351311,50.1176154 166.219115,50.1176154 L166.219115,52.5434009 L186.841682,52.5433846 L186.841682,50.1176154 C186.707453,50.1176154 180.408824,50.1176154 180.408824,50.1176154 L180.408824,28.1674615 C180.37425,28.1674615 188.525655,28.1674615 188.985291,28.1674615 C203.864453,29.3986923 186.432892,52.5658077 205.930777,52.5433846 L218.218899,52.5433846 L218.218899,50.1074231 C217.535547,50.1074231 213.03275,50.2378846 212.752088,47.0945769 C212.56498,44.8196538 215.715311,36.6556154 215.715311,36.6556154 L232.44725,36.6556154 C232.439115,36.623 237.651703,50.1176154 237.69848,50.1176154 L231.865588,50.1176154 L231.865588,52.5433846 L277.450818,52.5434009 L277.450818,33.8853462 L275.62448,33.8853462 Z" id="Fill-5"></path>
                <path d="M141.427291,4.452 C154.404865,4.452 159.194426,3.82823077 161.453959,19.7730769 L162.82473,19.7730769 L162.82473,2.02826923 L111.308986,2.02826923 L111.308986,4.452 L112.657385,4.452 C114.473554,4.452 118.787209,4.58653846 119.035331,8.39438462 L119.033297,8.39438462 L119.033297,37.5178846 L94.9349932,2.02826923 L81.8130203,2.02826923 L81.8130203,4.452 L83.9912027,4.452 C86.5781757,4.452 90.2084797,4.56819231 90.3711824,8.39438462 L90.3711824,45.7084231 C90.3711824,49.3491154 84.9328446,50.7311923 82.6611081,50.7311923 L82.6346689,50.7311923 L82.6346689,52.5433846 L100.387568,52.5433846 L100.387568,50.7311923 C98.1158311,50.7311923 92.6408851,49.3491154 92.6408851,45.7084231 L92.7039324,12.8586154 C102.242378,26.5244615 120.2495,52.5658077 120.414236,52.5433846 L121.317236,52.5433846 L121.317236,8.39438462 C121.565358,4.58653846 125.879014,4.452 127.695182,4.452 L133.611459,4.452 L133.611459,50.138 L126.865399,50.138 L126.865399,52.5433846 L163.280297,52.5433991 L163.280297,33.8853462 L161.453959,33.8853462 C159.639824,47.9935385 156.074601,50.1441154 146.064318,50.1441154 L141.427291,50.1441154 L141.427291,27.9595385 C141.563554,27.9595385 143.221088,27.9595385 144.113919,27.9595385 C148.604514,28.0716538 151.16098,30.6971923 152.074149,38.4392692 L153.729649,38.4392692 L153.717446,15.5045385 C153.686939,15.5493846 152.090419,15.5045385 152.090419,15.5045385 C152.090419,15.6186923 151.769081,25.3686538 143.918676,25.2259615 L141.427291,25.2259615 L141.427291,4.452" id="Fill-6"></path>
                <polyline id="Fill-7" points="300.349189 4.46015385 300.349189 1.99769231 279.79577 1.99769231 279.79577 4.46015385 286.251 4.46015385 286.273372 50.0829615 279.79577 50.0829615 279.79577 52.5433846 300.349189 52.5433846 300.349189 50.0829615 293.893959 50.0829615 293.893959 4.46015385 300.349189 4.46015385"></polyline>
            </g>
        </g>
    </g>
</svg>