
<svg width="300px" height="300px" viewBox="0 0 300 300" version="1.1" xmlns="http://www.w3.org/2000/svg" xmlns:xlink="http://www.w3.org/1999/xlink">
    <!-- Generator: Sketch 50.2 (55047) - http://www.bohemiancoding.com/sketch -->
    <desc>Created with Sketch.</desc>
    <defs></defs>
    <g id="partner-logos" stroke="none" stroke-width="1" fill="none" fill-rule="evenodd">
        <g id="mydrive-white" fill="#FFFFFF" fill-rule="nonzero">
            <path d="M54.0375,102.861538 C54.7,102.215385 55.5833333,102 56.2458333,102 C57.1291667,102 58.2333333,102.215385 58.8958333,103.076923 C59.7791667,103.938462 60,105.015385 60,106.092308 L60,154.338462 C60,156.276923 58.4541667,158 56.4666667,158 C54.4791667,158 52.7125,156.492308 52.7125,154.553846 L52.7125,154.338462 L52.7125,116.430769 L36.3708333,145.723077 C36.15,146.369231 35.4875,147.015385 35.0458333,147.446154 C34.6041667,147.876923 33.9416667,148.092308 33.2791667,148.092308 C31.9541667,147.876923 30.6291667,147.015385 30.1875,145.723077 L14.2875,116.861538 L14.2875,154.338462 C14.2875,156.276923 12.7416667,158 10.7541667,158 C8.76666667,158 7,156.492308 7,154.553846 L7,154.338462 L7,105.876923 C7,104.8 7.22083333,103.723077 8.10416667,103.076923 C8.76666667,102.215385 9.87083333,102 10.975,102 C11.8583333,102 12.7416667,102.215385 13.4041667,102.861538 C14.2875,103.507692 14.7291667,104.584615 15.3916667,105.446154 L33.9416667,138.184615 L52.4916667,105.446154 C52.4916667,104.369231 53.375,103.507692 54.0375,102.861538 Z M69.4417178,123.384615 C69.2208589,122.738462 69,122.092308 69,121.446154 C69,120.584615 69.4417178,119.507692 70.1042945,119.076923 C70.7668712,118.430769 71.8711656,118.215385 72.7546012,118.215385 C74.0797546,118.215385 75.404908,119.076923 75.8466258,120.369231 L86.8895706,149.661538 L98.3742331,120.369231 C98.595092,119.723077 99.0368098,119.292308 99.4785276,118.646154 C99.9202454,118.215385 100.582822,118 101.466258,118 C102.349693,118 103.233129,118.215385 103.895706,118.861538 C104.558282,119.507692 105,120.369231 105,121.230769 C105,121.661538 105,122.092308 104.779141,122.523077 C104.779141,122.953846 104.558282,123.169231 104.558282,123.6 L89.0981595,161.507692 C88.2147239,163.446154 87.3312883,165.384615 86.2269939,167.323077 C85.3435583,168.830769 84.2392638,170.123077 83.1349693,171.2 C82.0306748,172.276923 80.7055215,172.923077 79.3803681,173.353846 C77.8343558,173.784615 76.0674847,174 74.5214724,174 C71.6503067,174 70.1042945,172.923077 70.1042945,170.769231 C69.8834356,169.046154 71.208589,167.538462 72.7546012,167.538462 C72.9754601,167.538462 73.196319,167.538462 73.6380368,167.538462 C74.9631902,167.538462 76.0674847,167.323077 77.392638,167.107692 C78.2760736,166.892308 79.1595092,166.461538 80.0429448,165.815385 C80.7055215,165.169231 81.3680982,164.523077 81.809816,163.661538 C82.2515337,162.8 82.6932515,161.938462 83.1349693,161.076923 L84.2392638,158.276923 L69.4417178,123.384615 Z M121.48,121.100775 L121.48,151.488372 L133.36,151.488372 C136,151.488372 138.42,151.054264 140.62,149.751938 C142.82,148.666667 144.58,147.147287 146.12,145.193798 C147.66,143.023256 148.76,140.635659 149.64,138.248062 C150.52,135.426357 150.96,132.387597 150.74,129.565891 C150.74,126.744186 150.3,123.705426 149.64,120.883721 C148.98,118.496124 147.66,116.108527 146.12,114.155039 C144.58,112.20155 142.6,110.899225 140.62,109.813953 C137.98,108.945736 135.34,108.511628 132.92,108.511628 L117.96,108.511628 C117.96,108.511628 114.44,108.728682 114.44,105.689922 C114.44,104.821705 114.66,103.736434 115.32,103.085271 C115.76,102.217054 116.86,102 117.74,102 L133.58,102 C137.1,102 140.4,102.651163 143.7,103.953488 C146.56,105.255814 149.2,107.209302 151.4,109.596899 C153.6,112.20155 155.36,115.24031 156.24,118.27907 C157.34,121.968992 158,125.658915 158,129.565891 C158,133.472868 157.34,137.162791 156.24,140.852713 C155.14,144.108527 153.38,147.147287 151.18,149.751938 C148.98,152.356589 146.56,154.310078 143.48,155.829457 C140.4,157.348837 136.88,158 133.58,158 L117.52,158 C116.42,158 115.54,157.782946 114.88,156.914729 C114.22,156.263566 114,155.178295 114,154.310078 L114,121.317829 C114,119.364341 115.54,117.627907 117.52,117.410853 C117.74,117.410853 117.74,117.410853 117.96,117.410853 C119.94,117.410853 121.48,119.147287 121.48,121.100775 Z M169.111111,118.768421 C169.777778,118.105263 170.666667,117.663158 171.555556,117.884211 C173.111111,117.663158 174.666667,118.768421 174.888889,120.315789 C174.888889,120.536842 174.888889,120.978947 174.888889,121.2 L174.888889,125.842105 C176,123.410526 177.777778,121.2 180,119.431579 C182.444444,117.663158 185.333333,117 188.222222,117 C189.333333,117 190.222222,117.221053 191.111111,117.884211 C191.777778,118.547368 192,119.210526 192,120.094737 C192,120.978947 191.777778,121.863158 191.111111,122.526316 C190.444444,123.189474 189.555556,123.631579 188.444444,123.631579 C186.666667,123.631579 184.888889,123.852632 183.333333,124.515789 C181.777778,125.178947 180.444444,126.063158 179.111111,127.168421 C177.777778,128.494737 176.888889,130.042105 176.222222,131.589474 C175.555556,133.578947 175.111111,135.568421 175.111111,137.778947 L175.111111,155.684211 C175.111111,156.568421 174.666667,157.673684 174,158.115789 C173.333333,158.778947 172.444444,159 171.555556,159 C170.666667,159 169.777778,158.778947 169.111111,158.115789 C168.444444,157.452632 168,156.568421 168,155.684211 L168,120.978947 C168.222222,120.315789 168.444444,119.431579 169.111111,118.768421 Z M204.879113,104.098911 C205.732337,104.935407 206.158948,105.981026 205.945642,107.026646 C205.945642,108.072265 205.732337,109.327009 204.879113,109.954381 C204.02589,110.581752 202.959361,111 201.892832,111 C200.826302,111 199.759773,110.581752 199.119856,109.954381 C197.626715,108.281389 197.626715,105.771903 199.119856,104.098911 C199.973079,103.47154 200.826302,103.053292 201.892832,103.053292 C202.959361,102.844168 204.02589,103.262416 204.879113,104.098911 Z M199.093793,118.996567 C200.358415,117.667811 202.466119,117.667811 203.941511,118.996567 C204.573822,119.660945 204.995363,120.546783 204.995363,121.65408 L204.995363,149.336505 C204.995363,150.222343 205.206133,151.32964 205.416904,152.215477 C205.627674,152.879855 206.470756,153.322774 207.103067,153.322774 C207.735378,153.322774 208.367689,153.544234 208.578459,154.208612 C208.78923,154.87299 209,155.537368 209,156.201746 C209,157.087584 208.78923,158.194881 208.156919,158.859259 C207.313837,159.523637 206.259985,159.966556 205.206133,159.966556 C203.09843,160.188016 201.201497,159.302178 199.726104,157.530503 C198.461482,155.315909 197.829171,152.658396 198.039941,150.000883 L198.039941,121.65408 C198.039941,120.546783 198.461482,119.660945 199.093793,118.996567 Z M245.578313,118.654255 C246.012048,118.218085 246.662651,118 247.313253,118 C248.180723,118 249.26506,118.218085 249.915663,118.87234 C250.566265,119.526596 251,120.398936 251,121.489362 C251,122.143617 250.783133,122.797872 250.566265,123.234043 L236.253012,156.382979 C236.036145,157.037234 235.385542,157.691489 234.951807,158.345745 C233.650602,159.218085 232.13253,159.218085 230.831325,158.345745 C230.180723,157.691489 229.746988,157.037234 229.53012,156.382979 L215.650602,123.670213 C215.433735,123.234043 215.216867,123.015957 215.216867,122.579787 C215,122.143617 215,121.925532 215,121.489362 C215,120.617021 215.433735,119.744681 216.084337,119.090426 C216.73494,118.43617 217.60241,118.218085 218.686747,118.218085 C219.554217,118.218085 220.204819,118.43617 220.855422,118.87234 C221.289157,119.308511 221.506024,119.744681 221.722892,120.180851 L233.216867,148.75 L244.710843,120.398936 C244.710843,119.744681 244.927711,119.090426 245.578313,118.654255 Z M267.632225,149.637305 C270.009647,152.272357 273.251587,153.589883 276.709656,153.370296 C278.870949,153.370296 281.248371,152.93112 283.193535,152.05277 C284.70644,151.394007 286.219345,150.296068 287.516121,149.19813 C287.948379,148.758954 288.596767,148.539367 289.245155,148.539367 C290.109673,148.539367 290.97419,148.978542 291.406448,149.637305 C292.054836,150.296068 292.270966,150.954831 292.270966,151.833182 C292.270966,152.491945 292.054836,152.93112 291.838707,153.589883 C291.622578,154.029059 291.190319,154.468234 290.75806,154.687822 C289.029026,156.224936 286.867733,157.542462 284.70644,158.420813 C281.896759,159.518751 279.087078,160.177514 276.061268,159.957927 C273.467716,159.957927 270.658035,159.518751 268.280613,158.420813 C265.903191,157.322874 263.958027,155.78576 262.228992,154.029059 C260.499958,152.05277 259.203182,149.856893 258.338665,147.22184 C257.474148,144.586788 256.82576,141.732148 257.041889,138.65792 C257.041889,135.80328 257.474148,132.729053 258.554794,130.094 C259.419311,127.458948 260.932217,125.263071 262.661251,123.286782 C264.390285,121.310492 266.335449,119.773379 268.712871,118.67544 C273.467716,116.479563 278.654819,116.479563 283.409664,118.455852 C285.570957,119.334203 287.299992,120.651729 289.029026,122.408431 C290.541931,123.945545 291.838707,125.921834 292.703224,128.117711 C293.567741,130.313588 294,132.509465 294,134.705342 C294,136.022868 293.783871,137.120806 293.351612,138.438333 C292.703224,139.536271 291.622578,139.975446 290.325802,139.975446 L263.958027,139.975446 C263.958027,143.48885 265.254803,147.002253 267.632225,149.637305 Z M268.485981,125.90566 C266.018692,127.981132 264.448598,130.886792 264,134 L288,134 C288,132.754717 288,131.301887 287.327103,130.056604 C286.878505,128.811321 285.981308,127.566038 285.084112,126.528302 C283.962617,125.490566 282.841121,124.660377 281.271028,124.037736 C279.700935,123.415094 278.130841,123 276.336449,123 C273.420561,123 270.504673,124.037736 268.485981,125.90566 Z" id="Logotype_-_white-Copy"></path>
        </g>
    </g>
</svg>