<svg xmlns="http://www.w3.org/2000/svg" width="155" height="30" viewBox="0 0 155 30" fill="none"><path d="M12.593 18.997a4.523 4.523 0 1 0 6.396-6.396 4.523 4.523 0 0 0-6.396 6.396zm14.307 8c6.139-6.166 6.139-16.194 0-22.36a15.718 15.718 0 0 0-22.296 0c-6.139 6.165-6.139 16.194 0 22.36a15.77 15.77 0 0 0 3.576 2.69 2.5 2.5 0 1 0 2.412-4.38A10.848 10.848 0 0 1 8.15 8.16a10.714 10.714 0 0 1 15.203 0 10.847 10.847 0 0 1-2.411 17.13 2.5 2.5 0 1 0 2.428 4.373 15.799 15.799 0 0 0 3.53-2.67v.004zM133.73 9.085h4.176V22.81h-4.176V9.085zm-24.159 13.666h-4.179V3.063h4.18V22.75zm22.09-2.161a2.42 2.42 0 0 1-.712 1.47 2.304 2.304 0 0 1-1.695.692 2.421 2.421 0 1 1 2.407-2.162zm6.376-14.22a2.306 2.306 0 0 1-.521.776h-.001a2.399 2.399 0 0 1-4.082-1.695 2.387 2.387 0 0 1 4.774 0c.006.315-.052.627-.17.919z" fill="#FF5907"/><path fill-rule="evenodd" clip-rule="evenodd" d="M56.168 15.289a7.45 7.45 0 0 0-14.885-.298h-.033v14.322h3.58v-7.678a7.422 7.422 0 0 0 11.336-6.343l.002-.003zm-4.481 1.989a3.58 3.58 0 1 0-5.954-3.979 3.58 3.58 0 0 0 5.954 3.979zm9.645-.558h10.524v-2.146c0-2.094-.694-3.74-2.08-4.94-1.387-1.2-3.072-1.8-5.057-1.8a7.379 7.379 0 0 0-5.167 2.01c-1.46 1.346-2.19 3.156-2.19 5.43.002 2.273.717 4.085 2.148 5.436s3.243 2.027 5.437 2.027c2.193 0 4.102-.77 5.728-2.31l-2.254-2.445c-.913.95-2.076 1.423-3.49 1.422a3.95 3.95 0 0 1-2.364-.751 2.87 2.87 0 0 1-1.235-1.932zm.474-3.974a2.779 2.779 0 0 0-.367 1.103h6.33c-.09-.859-.413-1.52-.967-1.986a3.048 3.048 0 0 0-2.021-.699 3.626 3.626 0 0 0-2.189.725c-.32.227-.587.519-.786.857zm26.28 2.545a7.458 7.458 0 1 0-14.916 0 7.458 7.458 0 0 0 14.916 0zm-4.234 2.155a3.879 3.879 0 1 0-6.45-4.31 3.879 3.879 0 0 0 6.45 4.31zm20.347-2.154a7.45 7.45 0 0 0-14.885-.298h-.03v14.319h3.58v-7.678a7.422 7.422 0 0 0 11.335-6.343zm-4.486 1.99a3.58 3.58 0 0 0 .603-1.99h.005a3.584 3.584 0 0 0-6.892-1.373 3.58 3.58 0 0 0 6.284 3.362zm15.364-.562h10.524v-2.146c0-2.094-.694-3.74-2.08-4.94-1.387-1.2-3.074-1.8-5.062-1.799a7.378 7.378 0 0 0-5.169 2.008c-1.459 1.347-2.188 3.157-2.187 5.43 0 2.274.717 4.086 2.147 5.437 1.431 1.351 3.243 2.027 5.437 2.027 2.193 0 4.103-.77 5.73-2.308l-2.255-2.444c-.913.949-2.076 1.423-3.49 1.422a3.952 3.952 0 0 1-2.362-.752 2.868 2.868 0 0 1-1.235-1.933l.002-.001zm.475-3.974a2.778 2.778 0 0 0-.367 1.103h6.33c-.09-.859-.412-1.52-.967-1.986a3.049 3.049 0 0 0-2.02-.699 3.626 3.626 0 0 0-2.19.725 2.788 2.788 0 0 0-.786.857zm39.056 2.549a7.463 7.463 0 0 0-4.605-6.89 7.456 7.456 0 0 0-10.169 5.435 7.458 7.458 0 1 0 14.774 1.455zm-4.234 2.155a3.879 3.879 0 1 0-6.452-4.308 3.879 3.879 0 0 0 6.452 4.308z" fill="#FF5907"/></svg>