
<svg width="300px" height="300px" viewBox="0 0 300 300" version="1.1" xmlns="http://www.w3.org/2000/svg" xmlns:xlink="http://www.w3.org/1999/xlink">
    <!-- Generator: Sketch 50.2 (55047) - http://www.bohemiancoding.com/sketch -->
    <desc>Created with Sketch.</desc>
    <defs>
        <polyline id="path-1" points="0.00488562092 1.31707317 0.655894608 299.306098 292.24685 298.670732 291.597063 0.681707317"></polyline>
        <polyline id="path-3" points="0.00488562092 1.31707317 0.655894608 299.306098 292.24685 298.670732 291.597063 0.681707317"></polyline>
        <polyline id="path-5" points="0.00488562092 1.31707317 0.655894608 299.306098 292.24685 298.670732 291.597063 0.681707317"></polyline>
        <polygon id="path-7" points="0.00488562092 1.31707317 0.655894608 299.306098 292.24685 298.670732 291.597063 0.681707317"></polygon>
        <polyline id="path-9" points="0.00488562092 1.31707317 0.655894608 299.306098 292.24685 298.670732 291.597063 0.681707317"></polyline>
        <polyline id="path-11" points="0.00488562092 1.31707317 0.655894608 299.306098 292.24685 298.670732 291.597063 0.681707317"></polyline>
        <polyline id="path-13" points="0.00488562092 1.31707317 0.655894608 299.306098 292.24685 298.670732 291.597063 0.681707317"></polyline>
        <polyline id="path-15" points="0.00488562092 1.31707317 0.655894608 299.306098 292.24685 298.670732 291.597063 0.681707317"></polyline>
        <polyline id="path-17" points="0.00488562092 1.31707317 0.655894608 299.306098 292.24685 298.670732 291.597063 0.681707317"></polyline>
        <polyline id="path-19" points="0.00488562092 1.31707317 0.655894608 299.306098 292.24685 298.670732 291.597063 0.681707317"></polyline>
        <polyline id="path-21" points="0.00488562092 1.31707317 0.655894608 299.306098 292.24685 298.670732 291.597063 0.681707317"></polyline>
        <polyline id="path-23" points="0.00488562092 1.31707317 0.655894608 299.306098 292.24685 298.670732 291.597063 0.681707317"></polyline>
        <polyline id="path-25" points="0.00488562092 1.31707317 0.655894608 299.306098 292.24685 298.670732 291.597063 0.681707317"></polyline>
        <polyline id="path-27" points="0.00488562092 1.31707317 0.655894608 299.306098 292.24685 298.670732 291.597063 0.681707317"></polyline>
        <polyline id="path-29" points="0.00488562092 1.31707317 0.655894608 299.306098 292.24685 298.670732 291.597063 0.681707317"></polyline>
        <polyline id="path-31" points="0.00488562092 1.31707317 0.655894608 299.306098 292.24685 298.670732 291.597063 0.681707317"></polyline>
        <polyline id="path-33" points="0.00488562092 1.31707317 0.655894608 299.306098 292.24685 298.670732 291.597063 0.681707317"></polyline>
        <polyline id="path-35" points="0.00488562092 1.31707317 0.655894608 299.306098 292.24685 298.670732 291.597063 0.681707317"></polyline>
        <polyline id="path-37" points="0.00488562092 1.31707317 0.655894608 299.306098 292.24685 298.670732 291.597063 0.681707317"></polyline>
        <polyline id="path-39" points="0.00488562092 1.31707317 0.655894608 299.306098 292.24685 298.670732 291.597063 0.681707317"></polyline>
        <polyline id="path-41" points="0.00488562092 1.31707317 0.655894608 299.306098 292.24685 298.670732 291.597063 0.681707317"></polyline>
        <polyline id="path-43" points="0.00488562092 1.31707317 0.655894608 299.306098 292.24685 298.670732 291.597063 0.681707317"></polyline>
        <polyline id="path-45" points="0.00488562092 1.31707317 0.655894608 299.306098 292.24685 298.670732 291.597063 0.681707317"></polyline>
        <polyline id="path-47" points="0.00488562092 1.31707317 0.655894608 299.306098 292.24685 298.670732 291.597063 0.681707317"></polyline>
        <polyline id="path-49" points="0.00488562092 1.31707317 0.655894608 299.306098 292.24685 298.670732 291.597063 0.681707317"></polyline>
        <polygon id="path-51" points="0.00488562092 1.31707317 0.655894608 299.306098 292.24685 298.670732 291.597063 0.681707317"></polygon>
        <polygon id="path-53" points="0.00488562092 1.31707317 0.655894608 299.306098 292.24685 298.670732 291.597063 0.681707317"></polygon>
        <polygon id="path-55" points="0.00488562092 1.31707317 0.655894608 299.306098 292.24685 298.670732 291.597063 0.681707317"></polygon>
        <polygon id="path-57" points="0.00488562092 1.31707317 0.655894608 299.306098 292.24685 298.670732 291.597063 0.681707317"></polygon>
        <polyline id="path-59" points="0.00488562092 1.31707317 0.655894608 299.306098 292.24685 298.670732 291.597063 0.681707317"></polyline>
        <polygon id="path-61" points="0.00488562092 1.31707317 0.655894608 299.306098 292.24685 298.670732 291.597063 0.681707317"></polygon>
        <polygon id="path-63" points="0.00488562092 1.31707317 0.655894608 299.306098 292.24685 298.670732 291.597063 0.681707317"></polygon>
        <polygon id="path-65" points="0.00488562092 1.31707317 0.655894608 299.306098 292.24685 298.670732 291.597063 0.681707317"></polygon>
        <polygon id="path-67" points="0.00488562092 1.31707317 0.655894608 299.306098 292.24685 298.670732 291.597063 0.681707317"></polygon>
        <polygon id="path-69" points="0.00488562092 1.31707317 0.655894608 299.306098 292.24685 298.670732 291.597063 0.681707317"></polygon>
        <polygon id="path-71" points="0.00488562092 1.31707317 0.655894608 299.306098 292.24685 298.670732 291.597063 0.681707317"></polygon>
        <polygon id="path-73" points="0.00488562092 1.31707317 0.655894608 299.306098 292.24685 298.670732 291.597063 0.681707317"></polygon>
        <polygon id="path-75" points="0.00488562092 1.31707317 0.655894608 299.306098 292.24685 298.670732 291.597063 0.681707317"></polygon>
        <polygon id="path-77" points="0.00488562092 1.31707317 0.655894608 299.306098 292.24685 298.670732 291.597063 0.681707317"></polygon>
        <polygon id="path-79" points="0.00488562092 1.31707317 0.655894608 299.306098 292.24685 298.670732 291.597063 0.681707317"></polygon>
        <polygon id="path-81" points="0.00488562092 1.31707317 0.655894608 299.306098 292.24685 298.670732 291.597063 0.681707317"></polygon>
        <polygon id="path-83" points="0.00488562092 1.31707317 0.655894608 299.306098 292.24685 298.670732 291.597063 0.681707317"></polygon>
        <polygon id="path-85" points="0.00488562092 1.31707317 0.655894608 299.306098 292.24685 298.670732 291.597063 0.681707317"></polygon>
        <polygon id="path-87" points="0.00488562092 1.31707317 0.655894608 299.306098 292.24685 298.670732 291.597063 0.681707317"></polygon>
        <polygon id="path-89" points="0.00488562092 1.31707317 0.655894608 299.306098 292.24685 298.670732 291.597063 0.681707317"></polygon>
        <polygon id="path-91" points="0.00488562092 1.31707317 0.655894608 299.306098 292.24685 298.670732 291.597063 0.681707317"></polygon>
        <polygon id="path-93" points="0.00488562092 1.31707317 0.655894608 299.306098 292.24685 298.670732 291.597063 0.681707317"></polygon>
        <polyline id="path-95" points="0.00488562092 1.31707317 0.655894608 299.306098 292.24685 298.670732 291.597063 0.681707317"></polyline>
        <polygon id="path-97" points="0.00488562092 1.31707317 0.655894608 299.306098 292.24685 298.670732 291.597063 0.681707317"></polygon>
        <polygon id="path-99" points="0.00488562092 1.31707317 0.655894608 299.306098 292.24685 298.670732 291.597063 0.681707317"></polygon>
        <polygon id="path-101" points="0.00488562092 1.31707317 0.655894608 299.306098 292.24685 298.670732 291.597063 0.681707317"></polygon>
        <polygon id="path-103" points="0.00488562092 1.31707317 0.655894608 299.306098 292.24685 298.670732 291.597063 0.681707317"></polygon>
        <polygon id="path-105" points="0.00488562092 1.31707317 0.655894608 299.306098 292.24685 298.670732 291.597063 0.681707317"></polygon>
        <polygon id="path-107" points="0.00488562092 1.31707317 0.655894608 299.306098 292.24685 298.670732 291.597063 0.681707317"></polygon>
        <polygon id="path-109" points="0.00488562092 1.31707317 0.655894608 299.306098 292.24685 298.670732 291.597063 0.681707317"></polygon>
        <polygon id="path-111" points="0.00488562092 1.31707317 0.655894608 299.306098 292.24685 298.670732 291.597063 0.681707317"></polygon>
        <polyline id="path-113" points="0.00488562092 1.31707317 0.655894608 299.306098 292.24685 298.670732 291.597063 0.681707317"></polyline>
    </defs>
    <g id="logos" stroke="none" stroke-width="1" fill="none" fill-rule="evenodd">
        <g id="welshgovt-white">
            <g id="Group" transform="translate(2.000000, 0.000000)">
                <mask id="mask-2" fill="white">
                    <use xlink:href="#path-1"></use>
                </mask>
                <g id="Clip-5"></g>
                <path d="M37.4372917,66.477561 C37.4372917,66.477561 38.4461724,63.9543902 40.461491,62.9226829 C42.4878023,61.8836585 45.3153554,61.7007317 48.6302492,62.0678049 C51.4590237,62.3678049 57.3217688,64.9446341 65.7995425,71.9409756 C77.598317,81.6812195 81.8194935,87.7104878 81.9074346,87.4214634 C82.643942,85.0495122 85.4629453,80.4604878 85.4629453,80.4604878 C79.8884518,75.6056098 60.4192525,62.9580488 54.3635253,60.5653659 C47.5468627,57.8421951 38.1860131,57.1312195 37.4372917,66.477561" id="Fill-4" fill="#FFFFFF" mask="url(#mask-2)"></path>
                <mask id="mask-4" fill="white">
                    <use xlink:href="#path-3"></use>
                </mask>
                <g id="Clip-8"></g>
                <path d="M44.4768607,54.7145122 C52.6944751,52.6413415 53.6178574,58.0547561 55.3559171,59.3523171 L61.6571467,63.1803659 C53.1146385,44.3937805 44.4768607,54.7145122 44.4768607,54.7145122" id="Fill-7" fill="#FFFFFF" mask="url(#mask-4)"></path>
                <mask id="mask-6" fill="white">
                    <use xlink:href="#path-5"></use>
                </mask>
                <g id="Clip-11"></g>
                <path d="M48.1150605,64.2665854 C67.6587655,78.5019512 51.317585,85.1446341 51.317585,85.1446341 C55.1564616,86.7653659 58.2075319,85.6604878 59.868643,83.1726829 C60.4720172,82.2373171 61.0424134,81.0873171 61.363643,80.18 C61.9120539,78.6373171 61.9706814,77.3812195 61.9706814,77.3812195 C68.9009346,84.1373171 76.4602116,95.6897561 81.3995743,101.817805 C79.8886961,95.8653659 81.0380384,93.1885366 80.5702402,92.6287805 C74.6806242,85.5921951 72.7129404,83.0763415 68.8630711,78.8226829 C57.2157508,66.0239024 48.1150605,64.2665854 48.1150605,64.2665854" id="Fill-10" fill="#FFFFFF" mask="url(#mask-6)"></path>
                <mask id="mask-8" fill="white">
                    <use xlink:href="#path-7"></use>
                </mask>
                <g id="Clip-14"></g>
                <path d="M128.997492,62.7128049 C128.072888,60.3615854 128.355033,53.6042683 128.613971,52.379878 C129.576438,49.7847561 130.446078,47.2359756 130.972504,44.8213415 L131.402439,45.0432927 L134.466944,46.9506098 C133.19424,45.3652439 131.971614,41.1810976 131.324269,38.6542683 C131.276634,38.327439 131.213121,37.9871951 131.123958,37.6664634 C129.76942,32.2445122 127.02248,29.0847561 127.02248,29.0847561 C127.02248,29.0847561 129.037798,34.2506098 128.370911,38.4457317 C127.721123,47.1969512 115.305539,57.2591463 118.147749,72.5932927 C119.719698,81.0628049 128.231671,87.7932927 128.231671,87.7932927 C128.231671,87.7932927 125.51038,82.2176829 123.574453,71.6920732 C122.804967,67.5542683 124.148513,64.2993902 125.978178,59.327439 L126.660944,59.9628049 L128.997492,62.7128049 Z" id="Fill-13" fill="#FFFFFF" mask="url(#mask-8)"></path>
                <mask id="mask-10" fill="white">
                    <use xlink:href="#path-9"></use>
                </mask>
                <g id="Clip-17"></g>
                <path d="M214.731955,2.63060976 C214.731955,2.63060976 192.678263,6.23670732 181.768671,9.75378049 C170.85053,13.2720732 154.930734,20.1830488 147.728107,29.2123171 C140.530366,38.252561 146.637393,52.5342683 144.812613,62.059878 C142.990277,71.5818293 128.863504,81.2781707 128.863504,81.2781707 C128.863504,81.2781707 145.320718,77.0330488 151.355681,63.7720732 C155.79671,54.0269512 150.118397,47.2684146 156.930174,32.2220732 C163.739509,17.1928049 214.731955,2.63060976 214.731955,2.63060976" id="Fill-16" fill="#FFFFFF" mask="url(#mask-10)"></path>
                <mask id="mask-12" fill="white">
                    <use xlink:href="#path-11"></use>
                </mask>
                <g id="Clip-20"></g>
                <path d="M215.307726,3.68878049 C215.307726,3.68878049 197.108788,9.35585366 191.40849,27.1339024 L199.560148,25.3168293 C199.560148,25.3168293 199.650532,14.24 215.307726,3.68878049" id="Fill-19" fill="#FFFFFF" mask="url(#mask-12)"></path>
                <mask id="mask-14" fill="white">
                    <use xlink:href="#path-13"></use>
                </mask>
                <g id="Clip-23"></g>
                <path d="M244.201288,28.207439 C244.201288,28.207439 215.512922,22.5489024 187.348539,30.8732927 C159.175606,39.1915854 163.175708,53.8854878 162.885013,62.0818293 C162.616304,70.2818293 155.698265,88.4818293 130.886639,86.1379268 C130.886639,86.1379268 145.608237,94.1269512 161.96041,80.909878 C178.299147,67.6854878 166.842366,51.7342683 180.005451,44.0903659 C193.148992,36.457439 203.345283,30.105 244.201288,28.207439" id="Fill-22" fill="#FFFFFF" mask="url(#mask-14)"></path>
                <mask id="mask-16" fill="white">
                    <use xlink:href="#path-15"></use>
                </mask>
                <g id="Clip-26"></g>
                <path d="M172.847161,69.0332927 C172.847161,69.0332927 184.052333,70.567439 190.667463,78.2491463 C190.667463,78.2491463 181.622958,71.2796341 171.370482,73.0954878 C171.370482,73.0954878 172.347606,71.0796341 172.847161,69.0332927" id="Fill-25" fill="#FFFFFF" mask="url(#mask-16)"></path>
                <mask id="mask-18" fill="white">
                    <use xlink:href="#path-17"></use>
                </mask>
                <g id="Clip-29"></g>
                <path d="M221.280764,56.722561 C221.280764,56.722561 194.221752,57.4152439 194.0019,80.1286585 C193.499902,79.279878 179.073885,54.279878 221.280764,56.722561" id="Fill-28" fill="#FFFFFF" mask="url(#mask-18)"></path>
                <mask id="mask-20" fill="white">
                    <use xlink:href="#path-19"></use>
                </mask>
                <g id="Clip-32"></g>
                <path d="M242.233971,29.6482927 C214.999077,35.3080488 221.280764,56.732439 221.280764,56.732439 C207.359187,29.2446341 242.233971,29.6482927 242.233971,29.6482927" id="Fill-31" fill="#FFFFFF" mask="url(#mask-20)"></path>
                <mask id="mask-22" fill="white">
                    <use xlink:href="#path-21"></use>
                </mask>
                <g id="Clip-35"></g>
                <path d="M166.815862,100.357195 C173.882913,81.197439 193.124931,80.3889024 193.82846,80.3608537 C173.357708,76.3876829 168.1704,86.7303659 166.992966,93.9852439 C149.487786,90.6120732 134.523129,90.290122 134.523129,90.290122 C155.555727,93.1803659 166.815862,100.357195 166.815862,100.357195" id="Fill-34" fill="#FFFFFF" mask="url(#mask-22)"></path>
                <mask id="mask-24" fill="white">
                    <use xlink:href="#path-23"></use>
                </mask>
                <g id="Clip-38"></g>
                <path d="M56.4452884,157.525 C56.4452884,157.525 60.7605131,155.178659 65.8146879,155.659146 C68.9231642,155.94939 74.9373636,153.687195 74.9373636,153.687195 C72.4029477,153.672561 66.4095123,150.70061 61.1367059,151.362805 C55.8724493,152.029878 56.4452884,157.525 56.4452884,157.525" id="Fill-37" fill="#FFFFFF" mask="url(#mask-24)"></path>
                <mask id="mask-26" fill="white">
                    <use xlink:href="#path-25"></use>
                </mask>
                <g id="Clip-41"></g>
                <path d="M157.034238,143.776951 C157.034238,143.776951 156.599418,139.637927 160.555549,139.141585 C164.51046,138.634268 168.997902,140.878171 170.89963,140.881829 C170.89963,140.881829 166.40608,142.584268 164.054875,142.369634 C160.27829,142.012317 157.034238,143.776951 157.034238,143.776951" id="Fill-40" fill="#FFFFFF" mask="url(#mask-26)"></path>
                <mask id="mask-28" fill="white">
                    <use xlink:href="#path-27"></use>
                </mask>
                <g id="Clip-44"></g>
                <path d="M195.6795,159.387439 C195.6795,159.387439 199.561125,157.25939 204.123074,157.682561 C206.924978,157.950854 211.218217,157.564268 211.218217,157.564268 C208.931746,157.553293 205.326158,152.895976 199.90434,153.816707 C195.198266,154.611829 195.6795,159.387439 195.6795,159.387439" id="Fill-43" fill="#FFFFFF" mask="url(#mask-28)"></path>
                <mask id="mask-30" fill="white">
                    <use xlink:href="#path-29"></use>
                </mask>
                <g id="Clip-47"></g>
                <path d="M219.050844,55.6752439 C186.088781,47.8191463 175.849741,53.5203659 175.849741,53.5203659 C175.849741,53.5203659 176.571592,51.6642683 177.032062,50.6215854 C177.768569,48.9752439 177.971322,48.5459756 178.178961,48.1520732 C202.3237,47.1642683 219.050844,55.6752439 219.050844,55.6752439" id="Fill-46" fill="#FFFFFF" mask="url(#mask-30)"></path>
                <mask id="mask-32" fill="white">
                    <use xlink:href="#path-31"></use>
                </mask>
                <g id="Clip-50"></g>
                <path d="M92.8452406,35.0462195 C92.8452406,35.0462195 89.1260617,31.0803659 84.7766377,31.090122 C78.4925078,31.1035366 73.2648934,37.8096341 67.6757431,37.8340244 C62.0780429,37.8462195 59.2749179,35.9608537 59.2749179,35.9608537 C59.2749179,35.9608537 62.6765315,40.5145122 68.0091867,40.5023171 C74.9504326,40.4876829 80.0668991,33.6645122 84.6667112,33.6547561 C89.2543092,33.6352439 92.8452406,35.0462195 92.8452406,35.0462195" id="Fill-49" fill="#FFFFFF" mask="url(#mask-32)"></path>
                <mask id="mask-34" fill="white">
                    <use xlink:href="#path-33"></use>
                </mask>
                <g id="Clip-53"></g>
                <path d="M107.249028,42.1892683 C107.249028,42.1892683 108.224931,45.6880488 107.682627,52.0782927 C107.162308,63.0319512 85.7339751,78.1660976 86.0393264,96.314878 C86.2091017,107.163659 94.2373983,113.625854 94.2373983,113.625854 C94.2373983,113.625854 90.6208174,104.06122 92.2062014,94.4782927 C94.3949596,81.1697561 111.151418,65.957561 110.595679,52.9014634 C110.254906,45.2026829 107.249028,42.1892683 107.249028,42.1892683" id="Fill-52" fill="#FFFFFF" mask="url(#mask-34)"></path>
                <mask id="mask-36" fill="white">
                    <use xlink:href="#path-35"></use>
                </mask>
                <g id="Clip-56"></g>
                <path d="M97.0285535,113.42878 C97.0285535,113.42878 93.7771728,105.806829 96.1955551,99.027561 C97.7736107,94.6592683 101.903182,90.9263415 110.067054,88.8678049 C110.067054,88.8678049 95.8144767,101.882439 106.316119,113.072683 C106.316119,113.072683 98.8631042,121.008049 96.023337,127.787317 C93.1921197,134.547073 86.9983738,148.734878 84.95252,152.043415 C82.8859024,155.323902 79.9985004,159.567805 71.8505061,163.256829 C62.8243215,164.064146 52.9419318,165.589756 52.3092439,172.55561 C52.3092439,172.55561 50.5601916,170.817805 50.7128672,166.422683 C50.8655429,162.020244 58.1646605,157.088537 65.8094359,157.336098 C73.4529898,157.595854 80.2769808,155.62878 83.8349342,146.422683 C87.3855592,137.201951 95.1671319,115.050732 97.0285535,113.42878" id="Fill-55" fill="#FFFFFF" mask="url(#mask-36)"></path>
                <mask id="mask-38" fill="white">
                    <use xlink:href="#path-37"></use>
                </mask>
                <g id="Clip-59"></g>
                <path d="M109.207551,114.141098 C109.207551,114.141098 97.646951,149.800854 77.271469,162.931341 C77.271469,162.931341 89.6968243,161.130122 93.535701,162.685 C97.3794632,164.248415 101.320938,166.843537 97.5968734,172.806951 C97.5968734,172.806951 104.981489,168.73622 102.927086,162.638659 C101.311167,157.814268 94.0560196,157.438659 94.0560196,157.438659 C94.0560196,157.438659 91.9637525,156.542317 93.1729436,153.456951 C94.3784706,150.365488 102.152715,140.091098 103.387556,138.228902 C104.623618,136.352073 114.709982,121.08378 115.109382,120.204512 C115.109382,120.204512 124.028083,121.447195 128.27613,112.95939 C132.712274,104.13622 123.19997,95.6240244 123.19997,95.6240244 C123.19997,95.6240244 127.384504,105.089878 122.580717,109.754512 C116.880419,115.276463 109.207551,114.141098 109.207551,114.141098" id="Fill-58" fill="#FFFFFF" mask="url(#mask-38)"></path>
                <mask id="mask-40" fill="white">
                    <use xlink:href="#path-39"></use>
                </mask>
                <g id="Clip-62"></g>
                <path d="M119.146126,122.426951 C119.146126,122.426951 123.440587,121.52939 124.896502,120.436707 C124.896502,120.436707 126.891056,122.586707 135.112335,122.391585 C135.806093,122.38061 136.261677,122.389146 136.519394,122.389146 C145.653062,121.235488 156.764185,117.950122 174.229059,110.633049 L176.13323,113.737927 C162.497462,118.365976 146.054904,131.35378 125.398499,129.352561 C123.93037,129.20622 117.144243,127.863537 115.731077,127.428171 C116.588503,126.276951 119.146126,122.426951 119.146126,122.426951" id="Fill-61" fill="#FFFFFF" mask="url(#mask-40)"></path>
                <mask id="mask-42" fill="white">
                    <use xlink:href="#path-41"></use>
                </mask>
                <g id="Clip-65"></g>
                <path d="M177.986223,139.618049 C176.217629,142.563171 173.572065,146.49122 167.927951,148.402195 C161.791612,148.293659 154.415545,149.816829 153.931869,155.04 C153.931869,155.04 152.627408,153.729024 152.726342,150.449756 C152.841154,147.136341 157.361575,143.526585 164.053654,143.876585 C169.790594,144.172927 173.486567,141.79122 175.950141,135.509512 C177.636902,131.29122 175.818229,122.242439 178.072943,116.502195 C178.072943,116.502195 181.167984,118.886341 182.535958,120.01561 C182.535958,120.01561 182.648327,119.976585 181.997318,121.54122 C179.876959,126.620488 180.910268,133.954634 177.986223,139.618049" id="Fill-64" fill="#FFFFFF" mask="url(#mask-42)"></path>
                <mask id="mask-44" fill="white">
                    <use xlink:href="#path-43"></use>
                </mask>
                <g id="Clip-68"></g>
                <path d="M186.649895,121.90561 C186.649895,121.90561 188.40994,123.095854 190.10525,124.006829 C188.70552,127.409268 188.257264,129.562927 187.986112,130.28122 C187.407166,131.884878 185.482232,138.398293 184.571063,140.721463 C183.659895,143.026341 185.224515,143.690976 185.224515,143.690976 C185.224515,143.690976 190.670761,143.984878 191.882395,147.599512 C193.428694,152.171463 187.901835,155.217805 187.901835,155.217805 C190.680532,150.75561 187.730839,148.80439 184.848322,147.633659 C181.962142,146.472683 173.534446,147.815366 173.534446,147.815366 C182.37742,142.958049 185.235508,125.245854 186.649895,121.90561" id="Fill-67" fill="#FFFFFF" mask="url(#mask-44)"></path>
                <mask id="mask-46" fill="white">
                    <use xlink:href="#path-45"></use>
                </mask>
                <g id="Clip-71"></g>
                <path d="M220.23231,157.894878 C220.23231,157.894878 222.6055,162.803415 221.26684,164.611951 C215.914642,164.782683 212.272412,164.621707 204.373584,165.44122 C197.067138,166.198537 192.335414,166.68878 191.776011,172.974146 C191.776011,172.974146 190.191848,171.400976 190.320096,167.435122 C190.460557,163.477805 197.043931,159.043659 203.932657,159.281463 C203.932657,159.281463 212.556999,159.41439 213.526795,158.903415 C215.586084,157.799756 210.316942,147.78878 209.417988,145.982683 C201.739013,130.727805 201.922224,125.777805 201.613208,124.968049 C201.613208,124.968049 180.204417,121.011951 174.909626,106.466829 C191.933572,120.855854 205.998053,120.703415 205.998053,120.703415 C207.792297,127.621707 215.142714,148.098537 220.23231,157.894878" id="Fill-70" fill="#FFFFFF" mask="url(#mask-46)"></path>
                <mask id="mask-48" fill="white">
                    <use xlink:href="#path-47"></use>
                </mask>
                <g id="Clip-74"></g>
                <path d="M233.642973,84.0642683 C231.030387,91.8654878 229.426682,100.308171 229.767454,109.520366 C230.077691,117.956951 235.575236,129.672805 248.884888,128.454512 C255.809035,127.830122 260.135252,123.341098 262.354545,118.802073 C264.959803,113.454512 264.775371,107.971585 264.775371,107.971585 C264.775371,107.971585 264.929268,99.2557317 256.543099,91.8691463 C251.944509,87.6971951 244.850587,84.4947561 233.642973,84.0642683 M225.602462,77.589878 C227.827862,77.5167073 229.710048,77.539878 231.820636,77.6715854 C241.067895,57.8313415 256.853336,37.285 256.827687,25.1923171 C256.810587,17.3752439 251.408312,12.132561 251.408312,12.132561 L250.500808,15.0764634 C250.500808,15.0764634 246.108634,5.10207317 242.885346,2.59109756 L242.986723,2.6545122 C242.986723,2.6545122 253.047437,6.63134146 256.482029,9.40085366 L256.480808,9.34963415 L253.942728,10.0154878 L253.849901,10.0154878 C260.269607,15.9154878 259.931277,25.2984146 259.931277,25.2984146 C260.479688,39.687439 244.901886,56.2520732 235.911122,78.0106098 C256.275612,80.4984146 270.522082,93.1130488 270.552617,106.870366 C270.594145,126.152073 258.796592,132.958171 248.057997,133.127683 C244.269198,133.172805 240.067564,132.582561 235.148965,129.688659 C229.414468,126.319146 224.616788,120.03622 224.589917,107.780122 C224.564268,95.7654878 227.346629,88.3020732 228.918577,84.089878 L228.873385,84.0484146 C223.997536,84.230122 219.187642,84.8228049 214.997,85.7032927 C214.997,85.7032927 211.210644,86.8362195 209.50312,87.3618293 C214.05774,90.0118293 218.51709,94.3252439 220.093924,101.092317 C221.094255,105.939878 220.644778,112.113049 218.249603,119.971585 C217.750048,127.661829 221.129676,139.064268 223.750812,147.539878 L226.684627,155.282561 C228.245583,158.704512 230.654194,159.663049 230.654194,159.663049 C230.654194,159.663049 236.623201,160.524024 238.305076,164.132561 C240.561012,168.930122 236.723357,171.388659 236.723357,171.388659 C238.087666,165.605732 233.077462,164.987439 230.122883,164.555732 L229.881045,164.522805 C226.992421,164.113049 225.067487,164.369146 225.067487,164.369146 C225.432687,162.408171 221.659766,151.989878 221.916261,152.671585 C221.916261,152.671585 217.075832,138.882561 215.040971,132.815488 C212.912062,126.572805 211.462254,117.702073 211.462254,117.702073 C211.462254,117.702073 225.840636,93.6532927 193.532025,82.8910976 C193.532025,82.8910976 195.803839,82.6496341 197.554112,82.8728049 C201.195121,81.4362195 205.909746,80.439878 205.909746,80.439878 C211.646686,78.8752439 218.116469,77.8508537 225.602462,77.589878" id="Fill-73" fill="#FFFFFF" mask="url(#mask-48)"></path>
                <mask id="mask-50" fill="white">
                    <use xlink:href="#path-49"></use>
                </mask>
                <g id="Clip-77"></g>
                <path d="M103.216925,21.6192683 C103.216925,21.6192683 99.8275257,27.4765854 94.5241842,24.087561 C94.5241842,24.087561 94.6402177,20.6058537 97.639989,20.9314634 C100.643424,21.2656098 100.248911,22.494878 103.216925,21.6192683 M90.7756916,22.39 C90.7756916,22.39 79.6010551,18.8595122 72.6769089,24.5241463 L76.3447888,30.8021951 C76.3447888,30.8021951 86.9160511,22.1509756 94.7733509,34.5107317 C94.7733509,34.5107317 88.9521336,42.1436585 76.6305976,40.0290244 C76.6305976,40.0290244 80.0004547,45.7839024 88.1704342,45.7156098 C96.3489636,45.6412195 104.283212,37.4168293 106.848163,40.1790244 C106.848163,40.1790244 105.961423,28.4912195 120.235986,24.3326829 C120.235986,24.3326829 123.50813,26.9802439 124.096848,28.4717073 C124.096848,28.4717073 128.772387,24.7765854 128.502456,15.737561 C128.22764,6.69243902 123.112395,2.59 121.285173,1.05219512 C121.285173,1.05219512 122.371002,6.45097561 119.979491,11.4863415 C118.589531,14.4168293 115.516476,18.0765854 110.801852,18.2265854 C110.801852,18.2265854 106.925112,18.3009756 104.350389,17.5278049 C101.774446,16.7558537 91.5378484,13.34 90.7756916,22.39" id="Fill-76" fill="#FFFFFF" mask="url(#mask-50)"></path>
                <mask id="mask-52" fill="white">
                    <use xlink:href="#path-51"></use>
                </mask>
                <g id="Clip-80"></g>
                <polygon id="Fill-79" fill="#FFFFFF" mask="url(#mask-52)" points="5.5230723 206.265976 8.94667116 206.258659 8.99919158 230.419634 17.9081213 230.400122 17.9142283 233.35622 5.58292116 233.383049"></polygon>
                <mask id="mask-54" fill="white">
                    <use xlink:href="#path-53"></use>
                </mask>
                <g id="Clip-83"></g>
                <polygon id="Fill-82" fill="#FFFFFF" mask="url(#mask-54)" points="21.0413922 204.208659 24.311094 204.201341 24.374607 233.341585 21.1049052 233.348902"></polygon>
                <mask id="mask-56" fill="white">
                    <use xlink:href="#path-55"></use>
                </mask>
                <g id="Clip-86"></g>
                <path d="M36.44319,237.357805 C35.4770584,240.737073 34.0785494,241.948049 31.5881042,241.954146 C30.8088476,241.955366 29.953864,241.876098 29.3700323,241.72122 L29.5202651,238.772439 C30.0259269,239.001707 30.6097586,239.156585 31.3108452,239.155366 C32.2439988,239.152927 32.943864,238.726098 33.4837251,236.661463 L34.2532104,233.630976 L27.9483166,213.51878 L31.3719154,213.511463 L35.8422586,229.663902 L35.9192071,229.663902 L40.0084718,213.491951 L43.2769522,213.485854 L36.44319,237.357805 Z" id="Fill-85" fill="#FFFFFF" mask="url(#mask-56)"></path>
                <mask id="mask-58" fill="white">
                    <use xlink:href="#path-57"></use>
                </mask>
                <g id="Clip-89"></g>
                <polygon id="Fill-88" fill="#FFFFFF" mask="url(#mask-58)" points="66.3522283 233.250244 62.6171712 233.25878 58.4192014 216.523415 58.3410315 216.523415 54.5644465 233.275854 50.8293893 233.28439 45.5321548 213.480732 48.9581965 213.473415 52.7653166 230.018537 52.8447079 230.017317 56.5846507 213.456341 60.473605 213.447805 64.4382864 229.992927 64.5164563 229.992927 68.2160927 213.430732 71.4845731 213.423415"></polygon>
                <mask id="mask-60" fill="white">
                    <use xlink:href="#path-59"></use>
                </mask>
                <g id="Clip-92"></g>
                <path d="M81.2498301,230.849268 C84.3619706,230.841951 85.7946789,228.277317 85.7849077,223.300488 C85.773915,218.330976 84.3289926,215.76878 81.2168521,215.776098 C78.1022688,215.783415 76.6695605,218.350488 76.6805531,223.32 C76.6915458,228.296829 78.1352467,230.856585 81.2498301,230.849268 M81.2107451,213.133415 C86.4627876,213.122439 89.1938497,217.077317 89.2085065,223.293171 C89.221942,229.507805 86.5079796,233.478537 81.2559371,233.489512 C76.0014518,233.500488 73.2679469,229.543171 73.25329,223.327317 C73.2398546,217.112683 75.9574812,213.14439 81.2107451,213.133415" id="Fill-91" fill="#FFFFFF" mask="url(#mask-60)"></path>
                <mask id="mask-62" fill="white">
                    <use xlink:href="#path-61"></use>
                </mask>
                <g id="Clip-95"></g>
                <path d="M99.6192761,215.736098 C96.6219477,215.742195 95.2649665,218.310488 95.2759592,223.28 C95.2869518,228.256829 96.6549257,230.815366 99.6522541,230.809268 C102.64714,230.803171 104.004121,228.237317 103.993128,223.260488 C103.982136,218.290976 102.614162,215.73 99.6192761,215.736098 Z M107.276266,229.508049 C107.278708,230.711707 107.397185,231.956829 107.438712,233.160488 L104.286266,233.167805 L104.162904,230.253171 L104.084734,230.25439 C103.232193,231.809268 101.757957,233.444634 98.8791046,233.450732 C94.7935041,233.460488 92.0245784,230.123902 92.0099216,223.287317 C91.9940433,216.450732 94.7483121,213.10439 98.8339126,213.094634 C101.091069,213.089756 102.571413,213.98 103.89908,216.071463 L103.97725,216.071463 L103.950379,204.027561 L107.220081,204.021463 L107.276266,229.508049 Z" id="Fill-94" fill="#FFFFFF" mask="url(#mask-62)"></path>
                <mask id="mask-64" fill="white">
                    <use xlink:href="#path-63"></use>
                </mask>
                <g id="Clip-98"></g>
                <path d="M111.680897,217.610976 C111.677233,216.176829 111.559978,214.736585 111.517229,213.336585 L114.668454,213.329268 L114.793038,216.439024 L114.871208,216.439024 C115.915509,214.029268 117.586391,213.053659 120.50555,213.047561 L120.512878,216.273171 C120.12325,216.192683 119.694537,216.159756 119.264602,216.160976 C116.736293,216.165854 114.95182,218.340244 114.961592,222.653659 L114.983577,233.143902 L111.715096,233.15122 L111.680897,217.610976 Z" id="Fill-97" fill="#FFFFFF" mask="url(#mask-64)"></path>
                <mask id="mask-66" fill="white">
                    <use xlink:href="#path-65"></use>
                </mask>
                <g id="Clip-101"></g>
                <path d="M133.482858,223.392195 C132.899027,223.312927 132.083128,223.314146 131.186616,223.316585 C127.336747,223.325122 125.509525,225.159268 125.514411,227.447073 C125.519296,229.548293 126.612454,230.906829 128.869611,230.901951 C131.710599,230.895854 133.493851,228.599512 133.487744,225.88122 L133.482858,223.392195 Z M123.969333,214.670244 C125.602352,213.616585 127.624999,213.032439 129.568254,213.027561 C132.487413,213.021463 134.240129,214.260488 134.86671,214.88122 C135.722915,215.733659 136.581563,216.934878 136.58767,219.734878 L136.609656,230.067805 C136.612098,231.23 136.693933,232.399512 136.773324,233.097073 L133.81508,233.103171 L133.615991,230.423902 L133.537821,230.423902 C132.646196,231.940976 131.014398,233.38122 127.980428,233.387317 C124.711947,233.394634 122.256923,231.498293 122.248373,227.690976 C122.239823,223.842195 124.763246,221.003171 131.571359,220.988537 L133.477973,220.984878 L133.47553,220.090976 C133.471866,218.610488 133.355832,217.759268 132.729251,216.906829 C132.06725,216.010488 130.779888,215.667805 129.420464,215.671463 C127.395375,215.675122 125.452119,216.492195 124.327205,217.737317 L123.969333,214.670244 Z" id="Fill-100" fill="#FFFFFF" mask="url(#mask-66)"></path>
                <mask id="mask-68" fill="white">
                    <use xlink:href="#path-67"></use>
                </mask>
                <g id="Clip-104"></g>
                <path d="M151.609367,221.642317 C151.600817,217.524024 150.312234,215.469146 147.704534,215.475244 C145.60616,215.478902 143.739853,217.039878 143.671454,221.65939 L151.609367,221.642317 Z M143.67634,224.148415 C143.687333,228.731341 145.480355,230.865488 149.1006,230.858171 C150.734841,230.854512 152.521757,230.03378 153.650335,229.21061 L153.81156,232.166707 C152.256712,232.906951 150.235286,233.338659 148.250502,233.343537 C142.99846,233.354512 140.264955,229.397195 140.25152,223.181341 C140.238084,216.966707 142.954489,212.998415 147.892631,212.988659 C152.370302,212.978902 154.868076,216.548415 154.88029,222.371585 L154.883954,224.124024 L143.67634,224.148415 Z" id="Fill-103" fill="#FFFFFF" mask="url(#mask-68)"></path>
                <mask id="mask-70" fill="white">
                    <use xlink:href="#path-69"></use>
                </mask>
                <g id="Clip-107"></g>
                <path d="M167.274255,232.800488 C166.494999,233.07122 165.407948,233.306585 164.513879,233.307805 C161.516551,233.315122 159.917732,232.113902 159.910403,228.617561 L159.882311,215.876098 L156.731085,215.883415 L156.724978,213.238293 L159.877425,213.230976 L159.867654,209.19439 L163.134913,208.212683 L163.145906,213.224878 L167.231506,213.215122 L167.237613,215.860244 L163.152013,215.86878 L163.177662,227.560244 C163.182548,229.813902 163.767601,230.67 165.245501,230.666341 C166.063843,230.665122 166.646453,230.428537 167.268148,230.155366 L167.274255,232.800488 Z" id="Fill-106" fill="#FFFFFF" mask="url(#mask-70)"></path>
                <mask id="mask-72" fill="white">
                    <use xlink:href="#path-71"></use>
                </mask>
                <g id="Clip-110"></g>
                <path d="M169.970752,203.884268 L173.240453,203.876951 L173.266103,215.920854 L173.344273,215.920854 C174.196814,214.250122 175.906781,212.926951 178.20058,212.922073 C181.663264,212.914756 184.003476,214.889146 184.012026,219.245244 L184.042561,232.994024 L180.775302,233.001341 L180.74721,220.218415 C180.741103,217.074512 179.570997,215.718415 177.468958,215.723293 C174.900343,215.728171 173.269767,217.515976 173.277096,221.087927 L173.303967,233.017195 L170.034265,233.024512 L169.970752,203.884268 Z" id="Fill-109" fill="#FFFFFF" mask="url(#mask-72)"></path>
                <mask id="mask-74" fill="white">
                    <use xlink:href="#path-73"></use>
                </mask>
                <g id="Clip-113"></g>
                <path d="M214.77788,232.38378 C213.144862,232.888659 211.432451,233.205732 209.836075,233.20939 C201.239825,233.227683 197.606144,226.708171 197.589045,219.364268 C197.570723,210.898415 202.500315,205.565488 209.583244,205.549634 C211.528942,205.545976 213.474641,205.891098 214.721696,206.513049 L214.729024,209.852073 C213.248681,208.924024 211.535049,208.499634 209.628436,208.503293 C205.192292,208.513049 201.154326,212.052073 201.168983,218.65939 C201.18364,225.652073 203.995315,230.270366 209.909359,230.258171 C211.660854,230.254512 213.370821,229.78378 214.770552,228.963049 L214.77788,232.38378 Z" id="Fill-112" fill="#FFFFFF" mask="url(#mask-74)"></path>
                <mask id="mask-76" fill="white">
                    <use xlink:href="#path-75"></use>
                </mask>
                <g id="Clip-116"></g>
                <path d="M225.252652,236.946585 C224.287741,240.325854 222.888011,241.536829 220.397566,241.542927 C219.620752,241.544146 218.763326,241.464878 218.179494,241.31 L218.329727,238.36122 C218.835388,238.590488 219.421663,238.745366 220.120307,238.744146 C221.05346,238.741707 221.753326,238.314878 222.293187,236.250244 L223.066336,233.219756 L216.757778,213.107561 L220.181377,213.100244 L224.652942,229.252683 L224.731112,229.252683 L228.820376,213.080732 L232.086414,213.074634 L225.252652,236.946585 Z" id="Fill-115" fill="#FFFFFF" mask="url(#mask-76)"></path>
                <mask id="mask-78" fill="white">
                    <use xlink:href="#path-77"></use>
                </mask>
                <g id="Clip-119"></g>
                <path d="M234.816621,217.342805 C234.812957,215.908659 234.695702,214.468415 234.655395,213.068415 L237.804178,213.061098 L237.926319,216.017195 L238.006931,216.017195 C239.053676,213.761098 240.722115,212.785488 242.901102,212.781829 C245.004362,212.776951 246.562875,213.859878 247.576641,215.881829 C248.623386,213.93061 250.137928,212.765976 252.396306,212.761098 C255.818684,212.752561 258.160118,214.728171 258.169889,219.083049 L258.199203,232.831829 L254.929501,232.839146 L254.900187,219.239146 C254.89408,216.717195 253.802144,215.55622 251.857667,215.561098 C249.445391,215.565976 248.126274,217.042805 248.133602,220.619634 L248.160473,232.85378 L244.890771,232.861098 L244.861458,219.261098 C244.85535,216.739146 243.762193,215.578171 241.818937,215.583049 C239.40544,215.587927 238.087544,217.063537 238.096094,220.641585 L238.121743,232.875732 L234.85082,232.883049 L234.816621,217.342805 Z" id="Fill-118" fill="#FFFFFF" mask="url(#mask-78)"></path>
                <mask id="mask-80" fill="white">
                    <use xlink:href="#path-79"></use>
                </mask>
                <g id="Clip-122"></g>
                <path d="M262.130417,217.283293 C262.126753,215.849146 262.008277,214.408902 261.965528,213.008902 L265.117975,213.002805 L265.240115,216.111341 L265.317064,216.111341 C266.361365,213.701585 268.033469,212.725976 270.951406,212.719878 L270.958734,215.945488 C270.569106,215.865 270.142836,215.832073 269.716565,215.833293 C267.183371,215.838171 265.398898,218.012561 265.408669,222.325976 L265.431876,232.81622 L262.164617,232.823537 L262.130417,217.283293 Z" id="Fill-121" fill="#FFFFFF" mask="url(#mask-80)"></path>
                <mask id="mask-82" fill="white">
                    <use xlink:href="#path-81"></use>
                </mask>
                <g id="Clip-125"></g>
                <path d="M287.679406,228.493293 C287.68307,229.934756 287.801546,231.367683 287.844295,232.767683 L284.689406,232.775 L284.568487,229.818902 L284.490317,229.818902 C283.443572,232.079878 281.771469,233.053049 279.47767,233.057927 C276.014986,233.065244 273.677216,231.088415 273.667445,226.737195 L273.63691,212.983537 L276.904169,212.97622 L276.932261,225.759146 C276.939589,228.907927 278.109696,230.266463 280.212955,230.261585 C282.776685,230.255488 284.412147,228.466463 284.403597,224.888415 L284.377947,212.960366 L287.645206,212.953049 L287.679406,228.493293 Z" id="Fill-124" fill="#FFFFFF" mask="url(#mask-82)"></path>
                <mask id="mask-84" fill="white">
                    <use xlink:href="#path-83"></use>
                </mask>
                <g id="Clip-128"></g>
                <polygon id="Fill-127" fill="#FFFFFF" mask="url(#mask-84)" points="5.95007557 250.26561 9.52757149 250.258293 14.0137929 272.23878 14.0907414 272.23878 18.9067422 250.237561 23.2647161 250.227805 28.1772079 272.208293 28.252935 272.208293 32.9541238 250.207073 36.2213828 250.199756 30.3671875 277.330244 26.3182292 277.33878 21.133364 254.11561 21.055194 254.11561 15.9692627 277.361951 11.9227471 277.370488"></polygon>
                <mask id="mask-86" fill="white">
                    <use xlink:href="#path-85"></use>
                </mask>
                <g id="Clip-131"></g>
                <path d="M48.3937851,265.87 C48.3852353,261.750488 47.0954314,259.691951 44.4889526,259.696829 C42.3856928,259.701707 40.5242712,261.259024 40.4558725,265.887073 L48.3937851,265.87 Z M40.4607582,268.372439 C40.4717508,272.952927 42.2647737,275.087073 45.8850188,275.078537 C47.5168162,275.074878 49.3061748,274.259024 50.4323105,273.437073 L50.5947574,276.39439 C49.0411299,277.134634 47.0172614,277.563902 45.0324779,277.56878 C39.7804355,277.579756 37.0469306,273.624878 37.0334951,267.407805 C37.0188382,261.19439 39.7364649,257.224878 44.677049,257.213902 C49.1510564,257.204146 51.6488301,260.77122 51.6622655,266.599268 L51.6659297,268.348049 L40.4607582,268.372439 Z" id="Fill-130" fill="#FFFFFF" mask="url(#mask-86)"></path>
                <mask id="mask-88" fill="white">
                    <use xlink:href="#path-87"></use>
                </mask>
                <g id="Clip-134"></g>
                <polygon id="Fill-133" fill="#FFFFFF" mask="url(#mask-88)" points="56.3271785 248.134634 59.5968803 248.127317 59.6603934 277.266341 56.3906916 277.273659"></polygon>
                <mask id="mask-90" fill="white">
                    <use xlink:href="#path-89"></use>
                </mask>
                <g id="Clip-137"></g>
                <path d="M64.6289477,273.406707 C66.1117337,274.298171 67.6690253,274.87622 69.3032655,274.872561 C71.7937108,274.866463 73.0749649,273.585976 73.0713007,272.070122 C73.0688578,270.710366 72.3653284,269.779878 70.5356634,268.966463 L68.3542337,267.996951 C65.5120237,266.722561 64.4567296,265.444512 64.451844,262.921341 C64.4445155,259.653049 66.9679387,257.165244 70.8214722,257.156707 C72.4557124,257.153049 73.8945278,257.420122 75.025549,257.844512 L74.8740948,260.645732 C73.8639926,260.179878 72.4618194,259.794512 70.9839191,259.796951 C68.8440172,259.801829 67.7166601,260.972561 67.7203243,262.527439 C67.7239886,264.116463 68.891652,265.005488 71.0755245,265.860366 L72.2431879,266.32378 C74.6566846,267.285976 76.1773342,268.914024 76.1822198,271.361585 C76.1895482,274.782317 74.3672116,277.504268 69.8138129,277.515244 C67.7533023,277.518902 65.8845523,277.096951 64.4420727,276.364024 L64.6289477,273.406707 Z" id="Fill-136" fill="#FFFFFF" mask="url(#mask-90)"></path>
                <mask id="mask-92" fill="white">
                    <use xlink:href="#path-91"></use>
                </mask>
                <g id="Clip-140"></g>
                <path d="M79.8271373,248.083415 L83.0956176,248.076098 L83.1224886,260.11878 L83.1982157,260.11878 C84.0531993,258.44561 85.7607239,257.123659 88.0569657,257.11878 C91.5196495,257.111463 93.8598619,259.088293 93.8684118,263.435854 L93.8989469,277.191951 L90.6292451,277.199268 L90.6023742,264.417561 C90.5950458,261.267561 89.4224967,259.910244 87.325344,259.915122 C84.7542859,259.92 83.1261528,261.715122 83.1334812,265.288293 L83.1603521,277.215122 L79.8906503,277.222439 L79.8271373,248.083415 Z" id="Fill-139" fill="#FFFFFF" mask="url(#mask-92)"></path>
                <mask id="mask-94" fill="white">
                    <use xlink:href="#path-93"></use>
                </mask>
                <g id="Clip-143"></g>
                <path d="M126.421915,275.990854 C124.825538,276.578659 122.104247,277.40061 119.693193,277.406707 C111.093279,277.425 107.462041,270.907927 107.446163,263.564024 C107.427842,255.094512 112.356212,249.762805 119.436698,249.746951 C121.772025,249.742073 123.951012,250.05061 125.820983,250.937195 L125.828312,254.353049 C123.765358,253.310366 121.466674,252.694512 119.484333,252.698171 C115.049411,252.707927 111.007781,256.251829 111.022437,262.859146 C111.037094,269.853049 113.848769,274.465244 119.765256,274.451829 C120.853528,274.44939 122.25448,274.17622 123.147327,273.705488 L123.129006,265.159146 L118.575607,265.168902 L118.5695,262.218902 L126.391379,262.201829 L126.421915,275.990854 Z" id="Fill-142" fill="#FFFFFF" mask="url(#mask-94)"></path>
                <mask id="mask-96" fill="white">
                    <use xlink:href="#path-95"></use>
                </mask>
                <g id="Clip-146"></g>
                <path d="M138.788276,274.721098 C141.902859,274.71378 143.338011,272.147927 143.327018,267.177195 C143.317247,262.205244 141.869882,259.643049 138.755298,259.649146 C135.643158,259.656463 134.210449,262.224756 134.220221,267.196707 C134.231213,272.167439 135.676136,274.728415 138.788276,274.721098 M138.749191,257.008902 C144.003676,256.996707 146.737181,260.955244 146.750617,267.168659 C146.764052,273.385732 144.047647,277.352805 138.794383,277.365 C133.542341,277.375976 130.810057,273.421098 130.796622,267.204024 C130.783186,260.99061 133.497149,257.019878 138.749191,257.008902" id="Fill-145" fill="#FFFFFF" mask="url(#mask-96)"></path>
                <mask id="mask-98" fill="white">
                    <use xlink:href="#path-97"></use>
                </mask>
                <g id="Clip-149"></g>
                <polygon id="Fill-148" fill="#FFFFFF" mask="url(#mask-98)" points="148.476707 257.258171 152.057867 257.250854 156.451261 273.791098 156.529431 273.789878 160.928933 257.231341 164.352532 257.224024 158.443373 277.050854 154.551976 277.05939"></polygon>
                <mask id="mask-100" fill="white">
                    <use xlink:href="#path-99"></use>
                </mask>
                <g id="Clip-152"></g>
                <path d="M177.48215,265.58878 C177.4736,261.469268 176.185017,259.410732 173.577317,259.41561 C171.4765,259.420488 169.610193,260.977805 169.544237,265.605854 L177.48215,265.58878 Z M169.549123,268.09122 C169.560115,272.671707 171.353138,274.805854 174.97094,274.797317 C176.607623,274.793659 178.394539,273.977805 179.520675,273.155854 L179.684343,276.113171 C178.129494,276.853415 176.105626,277.282683 174.123285,277.287561 C168.8688,277.298537 166.137738,273.343659 166.124302,267.126585 C166.110867,260.913171 168.824829,256.943659 173.765413,256.932683 C178.240642,256.922927 180.738416,260.49 180.75063,266.318049 L180.754294,268.066829 L169.549123,268.09122 Z" id="Fill-151" fill="#FFFFFF" mask="url(#mask-100)"></path>
                <mask id="mask-102" fill="white">
                    <use xlink:href="#path-101"></use>
                </mask>
                <g id="Clip-155"></g>
                <path d="M184.357195,261.454634 C184.353531,260.01439 184.236276,258.581463 184.193527,257.180244 L187.344752,257.172927 L187.469336,260.280244 L187.545063,260.280244 C188.589364,257.869268 190.260247,256.896098 193.179405,256.89 L193.186734,260.11439 C192.797105,260.037561 192.369614,259.996098 191.9409,259.997317 C189.415034,260.003415 187.628118,262.183902 187.63789,266.498537 L187.659875,276.987561 L184.391395,276.994878 L184.357195,261.454634 Z" id="Fill-154" fill="#FFFFFF" mask="url(#mask-102)"></path>
                <mask id="mask-104" fill="white">
                    <use xlink:href="#path-103"></use>
                </mask>
                <g id="Clip-158"></g>
                <path d="M195.872848,261.429512 C195.869184,259.989268 195.751929,258.556341 195.706737,257.155122 L198.860405,257.147805 L198.984989,260.102683 L199.060716,260.101463 C200.10746,257.844146 201.779564,256.870976 204.075806,256.866098 C207.536047,256.85878 209.875038,258.83561 209.884809,263.183171 L209.915344,276.939268 L206.648085,276.946585 L206.619993,264.164878 C206.613886,261.014878 205.441337,259.657561 203.339298,259.66122 C200.773126,259.667317 199.14255,261.462439 199.149878,265.03561 L199.176749,276.962439 L195.907047,276.969756 L195.872848,261.429512 Z" id="Fill-157" fill="#FFFFFF" mask="url(#mask-104)"></path>
                <mask id="mask-106" fill="white">
                    <use xlink:href="#path-105"></use>
                </mask>
                <g id="Clip-161"></g>
                <path d="M214.625693,261.388659 C214.622029,259.948415 214.502331,258.515488 214.462025,257.114268 L217.61325,257.106951 L217.735391,260.061829 L217.813561,260.06061 C218.860305,257.803293 220.528745,256.830122 222.710174,256.825244 C224.810991,256.821585 226.369504,257.908171 227.385714,259.920366 C228.430015,257.978902 229.947,256.80939 232.201714,256.804512 C235.627756,256.797195 237.967969,258.774024 237.97774,263.121585 L238.007054,276.877683 L234.738573,276.885 L234.709259,263.28622 C234.703152,260.763049 233.609995,259.595976 231.664296,259.599634 C229.253242,259.605732 227.932903,261.088659 227.940232,264.65939 L227.967103,276.899634 L224.697401,276.906951 L224.668087,263.308171 C224.66198,260.785 223.571265,259.617927 221.625567,259.621585 C219.214513,259.627683 217.894174,261.11061 217.901502,264.681341 L217.928373,276.921585 L214.659893,276.928902 L214.625693,261.388659 Z" id="Fill-160" fill="#FFFFFF" mask="url(#mask-106)"></path>
                <mask id="mask-108" fill="white">
                    <use xlink:href="#path-107"></use>
                </mask>
                <g id="Clip-164"></g>
                <path d="M253.113516,265.424146 C253.104966,261.304634 251.817605,259.246098 249.211126,259.250976 C247.110309,259.255854 245.244002,260.813171 245.175603,265.44122 L253.113516,265.424146 Z M245.180489,267.926585 C245.19026,272.507073 246.986947,274.64122 250.604749,274.632683 C252.237768,274.629024 254.024684,273.813171 255.153262,272.99122 L255.314488,275.948537 C253.763303,276.68878 251.738213,277.118049 249.757094,277.122927 C244.500166,277.133902 241.769104,273.179024 241.755668,266.961951 C241.742233,260.748537 244.454974,256.779024 249.399222,256.768049 C253.872008,256.758293 256.372225,260.325366 256.384439,266.153415 L256.389324,267.902195 L245.180489,267.926585 Z" id="Fill-163" fill="#FFFFFF" mask="url(#mask-108)"></path>
                <mask id="mask-110" fill="white">
                    <use xlink:href="#path-109"></use>
                </mask>
                <g id="Clip-167"></g>
                <path d="M259.990638,261.289878 C259.986973,259.849634 259.866054,258.416707 259.825748,257.015488 L262.975752,257.00939 L263.099114,259.963049 L263.179727,259.961829 C264.224028,257.704512 265.893689,256.731341 268.192374,256.726463 C271.652615,256.719146 273.990384,258.695976 274.000156,263.043537 L274.030691,276.799634 L270.763432,276.806951 L270.735339,264.025244 C270.728011,260.875244 269.557905,259.517927 267.457088,259.521585 C264.890915,259.527683 263.257897,261.322805 263.266446,264.895976 L263.292096,276.822805 L260.024837,276.830122 L259.990638,261.289878 Z" id="Fill-166" fill="#FFFFFF" mask="url(#mask-110)"></path>
                <mask id="mask-112" fill="white">
                    <use xlink:href="#path-111"></use>
                </mask>
                <g id="Clip-170"></g>
                <path d="M287.530883,276.534268 C286.751626,276.811098 285.664576,277.044024 284.769286,277.046463 C281.773179,277.052561 280.174359,275.85378 280.165809,272.35622 L280.138938,259.614756 L276.986491,259.622073 L276.980384,256.978171 L280.132831,256.970854 L280.124281,252.934268 L283.39154,251.952561 L283.402533,256.964756 L287.488134,256.955 L287.494241,259.598902 L283.40864,259.607439 L283.43429,271.301341 C283.439175,273.55378 284.023007,274.405 285.50335,274.401341 C286.321692,274.400122 286.900638,274.168415 287.524776,273.896463 L287.530883,276.534268 Z" id="Fill-169" fill="#FFFFFF" mask="url(#mask-112)"></path>
                <mask id="mask-114" fill="white">
                    <use xlink:href="#path-113"></use>
                </mask>
                <g id="Clip-173"></g>
                <path d="M290.948008,189.981463 L1.4847402,190.611951 C0.896022876,190.613171 0.417232026,190.14 0.416010621,189.552195 C0.414789216,188.96561 0.891137255,188.487561 1.47985458,188.486341 L290.943123,187.855854 C291.528176,187.853415 292.005745,188.330244 292.006967,188.916829 C292.008188,189.504634 291.533061,189.980244 290.948008,189.981463" id="Fill-172" fill="#FFFFFF" mask="url(#mask-114)"></path>
            </g>
        </g>
    </g>
</svg>