
<svg width="300px" height="300px" viewBox="0 0 300 300" version="1.1" xmlns="http://www.w3.org/2000/svg" xmlns:xlink="http://www.w3.org/1999/xlink">
    <!-- Generator: Sketch 50.2 (55047) - http://www.bohemiancoding.com/sketch -->
    <desc>Created with Sketch.</desc>
    <defs></defs>
    <g id="logos" stroke="none" stroke-width="1" fill="none" fill-rule="evenodd">
        <g id="welshgovt-white-copy" fill="#FFFFFF">
            <path d="M192.511,149.956 C205.769,161.693 214.125,178.839 214.125,197.938 C214.125,233.318 185.444,262 150.064,262 C114.682,262 86,233.318 86,197.938 C86,178.59 94.577,161.246 108.135,149.5 L108.254,150.044 C94.997,138.307 86.64,121.161 86.64,102.062 C86.64,66.682 115.323,38 150.703,38 C186.083,38 214.765,66.682 214.765,102.062 C214.765,121.41 206.19,138.754 192.63,150.5 L192.511,149.956 Z M132.462,97.09 C131.486,97.894 131,98.982 131,100.358 C131,101.734 131.486,102.824 132.462,103.626 C131.486,104.43 131,105.49 131,106.808 C131,108.184 131.486,109.274 132.462,110.076 C131.486,110.88 131,111.968 131,113.344 C131,114.72 131.486,115.81 132.462,116.612 C131.486,117.472 131,118.562 131,119.88 C131,121.2 131.486,122.288 132.462,123.148 C131.486,123.952 131,125.012 131,126.33 C131,127.534 131.415,128.553 132.247,129.383 C133.077,130.215 134.096,130.63 135.3,130.63 C136.504,130.63 137.506,130.23 138.31,129.426 C139.112,130.23 140.144,130.63 141.405,130.63 C142.552,130.63 143.526,130.23 144.33,129.426 C145.132,130.23 146.164,130.63 147.426,130.63 C148.63,130.63 149.632,130.23 150.436,129.426 C151.238,130.23 152.27,130.63 153.532,130.63 C154.678,130.63 155.652,130.23 156.456,129.426 C157.258,130.23 158.29,130.63 159.552,130.63 C160.756,130.63 161.758,130.23 162.562,129.426 C163.364,130.23 164.397,130.63 165.658,130.63 C166.804,130.63 167.808,130.215 168.668,129.383 C169.528,128.553 169.958,127.534 169.958,126.33 C169.958,125.184 169.528,124.18 168.668,123.32 C167.808,122.46 166.804,122.03 165.658,122.03 C164.454,122.03 163.422,122.46 162.562,123.32 C161.702,122.46 160.698,122.03 159.552,122.03 C158.404,122.03 157.401,122.46 156.542,123.32 C155.682,122.46 154.678,122.03 153.532,122.03 C152.327,122.03 151.296,122.46 150.436,123.32 C149.575,122.46 148.572,122.03 147.426,122.03 C146.278,122.03 145.275,122.46 144.416,123.32 C143.556,122.46 142.552,122.03 141.405,122.03 C140.201,122.03 139.17,122.46 138.31,123.32 C138.252,123.32 138.224,123.292 138.224,123.234 C138.224,123.178 138.194,123.148 138.138,123.148 C139.112,122.174 139.6,121.084 139.6,119.88 C139.6,118.676 139.112,117.588 138.138,116.612 C139.112,115.752 139.6,114.664 139.6,113.344 C139.6,112.026 139.112,110.936 138.138,110.076 C139.112,109.216 139.6,108.128 139.6,106.808 C139.6,105.948 139.313,105.088 138.739,104.228 C139.198,104.4 139.714,104.486 140.288,104.486 C141.491,104.486 142.438,104.086 143.126,103.282 C143.928,104.086 144.932,104.486 146.136,104.486 C147.34,104.486 148.285,104.086 148.974,103.282 C149.775,104.086 150.75,104.486 151.898,104.486 C153.044,104.486 154.019,104.086 154.822,103.282 C155.624,104.086 156.599,104.486 157.746,104.486 C158.892,104.486 159.866,104.086 160.67,103.282 C161.472,104.086 162.446,104.486 163.594,104.486 C164.74,104.486 165.73,104.086 166.561,103.282 C167.392,102.48 167.808,101.506 167.808,100.358 C167.808,99.212 167.392,98.223 166.561,97.391 C165.73,96.561 164.74,96.144 163.594,96.144 C162.562,96.144 161.586,96.546 160.67,97.348 C159.752,96.546 158.778,96.144 157.746,96.144 C156.714,96.144 155.738,96.546 154.822,97.348 C153.904,96.546 152.93,96.144 151.898,96.144 C150.865,96.144 149.89,96.546 148.974,97.348 C148.17,96.546 147.224,96.144 146.136,96.144 C145.046,96.144 144.042,96.546 143.126,97.348 C142.322,96.546 141.376,96.144 140.288,96.144 C139.714,96.144 139.198,96.23 138.739,96.402 C139.313,95.658 139.6,94.798 139.6,93.822 C139.6,92.504 139.112,91.414 138.138,90.554 C139.112,89.694 139.6,88.606 139.6,87.286 C139.6,86.026 139.112,84.964 138.138,84.104 C139.112,83.13 139.6,82.04 139.6,80.836 C139.6,79.518 139.112,78.428 138.138,77.568 L138.31,77.396 C139.112,78.2 140.144,78.6 141.405,78.6 C142.552,78.6 143.526,78.2 144.33,77.396 C145.132,78.2 146.164,78.6 147.426,78.6 C148.63,78.6 149.632,78.2 150.436,77.396 C151.238,78.2 152.27,78.6 153.532,78.6 C154.678,78.6 155.652,78.2 156.456,77.396 C157.258,78.2 158.29,78.6 159.552,78.6 C160.756,78.6 161.758,78.2 162.562,77.396 C163.364,78.2 164.397,78.6 165.658,78.6 C166.804,78.6 167.808,78.185 168.668,77.353 C169.528,76.523 169.958,75.504 169.958,74.3 C169.958,73.096 169.528,72.079 168.668,71.247 C167.808,70.417 166.804,70 165.658,70 C164.454,70 163.422,70.43 162.562,71.29 C161.702,70.43 160.698,70 159.552,70 C158.348,70 157.316,70.43 156.456,71.29 C155.596,70.43 154.62,70 153.532,70 C152.327,70 151.296,70.43 150.436,71.29 C149.575,70.43 148.572,70 147.426,70 C146.222,70 145.19,70.43 144.33,71.29 C143.47,70.43 142.494,70 141.405,70 C140.201,70 139.17,70.43 138.31,71.29 C137.449,70.43 136.446,70 135.3,70 C134.096,70 133.077,70.417 132.247,71.247 C131.415,72.079 131,73.096 131,74.3 C131,75.676 131.486,76.766 132.462,77.568 C131.486,78.372 131,79.46 131,80.836 C131,82.156 131.486,83.244 132.462,84.104 C131.486,84.908 131,85.968 131,87.286 C131,88.662 131.486,89.752 132.462,90.554 C131.486,91.358 131,92.446 131,93.822 C131,95.198 131.486,96.288 132.462,97.09 Z M132.462,194.09 C131.486,194.894 131,195.982 131,197.358 C131,198.734 131.486,199.822 132.462,200.626 C131.486,201.43 131,202.488 131,203.808 C131,205.184 131.486,206.274 132.462,207.075 C131.486,207.879 131,208.968 131,210.344 C131,211.72 131.486,212.81 132.462,213.611 C131.486,214.472 131,215.562 131,216.88 C131,218.198 131.486,219.287 132.462,220.148 C131.486,220.95 131,222.012 131,223.329 C131,224.533 131.415,225.553 132.247,226.383 C133.077,227.215 134.096,227.63 135.3,227.63 C136.504,227.63 137.506,227.23 138.31,226.426 C139.112,227.23 140.144,227.63 141.405,227.63 C142.552,227.63 143.526,227.23 144.33,226.426 C145.132,227.23 146.164,227.63 147.426,227.63 C148.63,227.63 149.632,227.23 150.436,226.426 C151.238,227.23 152.27,227.63 153.532,227.63 C154.678,227.63 155.652,227.23 156.456,226.426 C157.258,227.23 158.29,227.63 159.552,227.63 C160.756,227.63 161.758,227.23 162.562,226.426 C163.364,227.23 164.397,227.63 165.658,227.63 C166.804,227.63 167.808,227.215 168.668,226.383 C169.528,225.553 169.958,224.533 169.958,223.329 C169.958,222.184 169.528,221.18 168.668,220.319 C167.808,219.46 166.804,219.029 165.658,219.029 C164.454,219.029 163.422,219.46 162.562,220.319 C161.702,219.46 160.698,219.029 159.552,219.029 C158.404,219.029 157.401,219.46 156.542,220.319 C155.682,219.46 154.678,219.029 153.532,219.029 C152.327,219.029 151.296,219.46 150.436,220.319 C149.575,219.46 148.572,219.029 147.426,219.029 C146.278,219.029 145.275,219.46 144.416,220.319 C143.556,219.46 142.552,219.029 141.405,219.029 C140.201,219.029 139.17,219.46 138.31,220.319 C138.252,220.319 138.224,220.292 138.224,220.234 C138.224,220.178 138.194,220.148 138.138,220.148 C139.112,219.174 139.6,218.083 139.6,216.88 C139.6,215.676 139.112,214.587 138.138,213.611 C139.112,212.752 139.6,211.662 139.6,210.344 C139.6,209.026 139.112,207.936 138.138,207.075 C139.112,206.216 139.6,205.127 139.6,203.808 C139.6,202.947 139.313,202.088 138.739,201.228 C139.198,201.4 139.714,201.486 140.288,201.486 C141.491,201.486 142.438,201.085 143.126,200.281 C143.928,201.085 144.932,201.486 146.136,201.486 C147.34,201.486 148.285,201.085 148.974,200.281 C149.775,201.085 150.75,201.486 151.898,201.486 C153.044,201.486 154.019,201.085 154.822,200.281 C155.624,201.085 156.599,201.486 157.746,201.486 C158.892,201.486 159.866,201.085 160.67,200.281 C161.472,201.085 162.446,201.486 163.594,201.486 C164.74,201.486 165.73,201.085 166.561,200.281 C167.392,199.48 167.808,198.506 167.808,197.358 C167.808,196.212 167.392,195.223 166.561,194.391 C165.73,193.561 164.74,193.144 163.594,193.144 C162.562,193.144 161.586,193.546 160.67,194.348 C159.752,193.546 158.778,193.144 157.746,193.144 C156.714,193.144 155.738,193.546 154.822,194.348 C153.904,193.546 152.93,193.144 151.898,193.144 C150.865,193.144 149.89,193.546 148.974,194.348 C148.17,193.546 147.224,193.144 146.136,193.144 C145.046,193.144 144.042,193.546 143.126,194.348 C142.322,193.546 141.376,193.144 140.288,193.144 C139.714,193.144 139.198,193.23 138.739,193.402 C139.313,192.656 139.6,191.798 139.6,190.821 C139.6,189.504 139.112,188.413 138.138,187.554 C139.112,186.694 139.6,185.606 139.6,184.285 C139.6,183.026 139.112,181.964 138.138,181.104 C139.112,180.13 139.6,179.039 139.6,177.836 C139.6,176.518 139.112,175.428 138.138,174.568 L138.31,174.396 C139.112,175.198 140.144,175.6 141.405,175.6 C142.552,175.6 143.526,175.198 144.33,174.396 C145.132,175.198 146.164,175.6 147.426,175.6 C148.63,175.6 149.632,175.198 150.436,174.396 C151.238,175.198 152.27,175.6 153.532,175.6 C154.678,175.6 155.652,175.198 156.456,174.396 C157.258,175.198 158.29,175.6 159.552,175.6 C160.756,175.6 161.758,175.198 162.562,174.396 C163.364,175.198 164.397,175.6 165.658,175.6 C166.804,175.6 167.808,175.185 168.668,174.353 C169.528,173.522 169.958,172.504 169.958,171.299 C169.958,170.096 169.528,169.078 168.668,168.247 C167.808,167.416 166.804,167 165.658,167 C164.454,167 163.422,167.43 162.562,168.29 C161.702,167.43 160.698,167 159.552,167 C158.348,167 157.316,167.43 156.456,168.29 C155.596,167.43 154.62,167 153.532,167 C152.327,167 151.296,167.43 150.436,168.29 C149.575,167.43 148.572,167 147.426,167 C146.222,167 145.19,167.43 144.33,168.29 C143.47,167.43 142.494,167 141.405,167 C140.201,167 139.17,167.43 138.31,168.29 C137.449,167.43 136.446,167 135.3,167 C134.096,167 133.077,167.416 132.247,168.247 C131.415,169.078 131,170.096 131,171.299 C131,172.675 131.486,173.765 132.462,174.568 C131.486,175.37 131,176.46 131,177.836 C131,179.154 131.486,180.243 132.462,181.104 C131.486,181.906 131,182.968 131,184.285 C131,185.661 131.486,186.752 132.462,187.554 C131.486,188.358 131,189.445 131,190.821 C131,192.197 131.486,193.287 132.462,194.09 Z" id="Combined-Shape"></path>
        </g>
    </g>
</svg>